<?xml version="1.0" encoding="UTF-8" standalone="no"?>
<!-- Created with Inkscape (http://www.inkscape.org/) -->

<svg
   width="24in"
   height="12in"
   viewBox="0 0 609.59999 304.80001"
   version="1.1"
   id="svg1"
   xml:space="preserve"
   sodipodi:docname="Miku_Panel_LAYER_1_16x12.svg"
   inkscape:version="1.4 (e7c3feb1, 2024-10-09)"
   xmlns:inkscape="http://www.inkscape.org/namespaces/inkscape"
   xmlns:sodipodi="http://sodipodi.sourceforge.net/DTD/sodipodi-0.dtd"
   xmlns="http://www.w3.org/2000/svg"
   xmlns:svg="http://www.w3.org/2000/svg"
   xmlns:rdf="http://www.w3.org/1999/02/22-rdf-syntax-ns#"
   xmlns:cc="http://creativecommons.org/ns#"
   xmlns:dc="http://purl.org/dc/elements/1.1/"><sodipodi:namedview
     id="namedview1"
     pagecolor="#ffffff"
     bordercolor="#666666"
     borderopacity="1.0"
     inkscape:showpageshadow="2"
     inkscape:pageopacity="0.0"
     inkscape:pagecheckerboard="0"
     inkscape:deskcolor="#d1d1d1"
     inkscape:document-units="mm"
     inkscape:zoom="0.384406"
     inkscape:cx="737.50149"
     inkscape:cy="572.31156"
     inkscape:window-width="1440"
     inkscape:window-height="847"
     inkscape:window-x="0"
     inkscape:window-y="25"
     inkscape:window-maximized="1"
     inkscape:current-layer="svg1"
     showgrid="false" /><title
     id="title3192">SVG Image created as MPR121-Breakout-F_Cu.svg date 2024/11/12 20:38:25 </title><defs
     id="defs1" /><g
     id="g2"
     transform="matrix(1.0000012,0,0,1,17.916432,16.793922)"
     style="stroke-width:0.03527776;stroke-dasharray:none"><g
       id="g1"
       style="stroke-width:0.03527776;stroke-dasharray:none"><circle
         style="font-variation-settings:normal;fill:none;fill-opacity:1;stroke:#ff0000;stroke-width:0.03527776;stroke-linecap:square;stroke-linejoin:miter;stroke-miterlimit:4;stroke-dasharray:none;stroke-dashoffset:0;stroke-opacity:1;paint-order:stroke fill markers;stop-color:#000000"
         id="circle5983"
         cx="21.812166"
         cy="22.467995"
         r="2.4926522" /><circle
         style="font-variation-settings:normal;fill:none;fill-opacity:1;stroke:#ff0000;stroke-width:0.03527776;stroke-linecap:square;stroke-linejoin:miter;stroke-miterlimit:4;stroke-dasharray:none;stroke-dashoffset:0;stroke-opacity:1;paint-order:stroke fill markers;stop-color:#000000"
         id="circle5984"
         cx="21.812166"
         cy="188.57214"
         r="2.4926522" /><circle
         style="font-variation-settings:normal;fill:none;fill-opacity:1;stroke:#ff0000;stroke-width:0.03527776;stroke-linecap:square;stroke-linejoin:miter;stroke-miterlimit:4;stroke-dasharray:none;stroke-dashoffset:0;stroke-opacity:1;paint-order:stroke fill markers;stop-color:#000000"
         id="circle5985"
         cx="303.27826"
         cy="22.467995"
         r="2.4926522" /><circle
         style="font-variation-settings:normal;fill:none;fill-opacity:1;stroke:#ff0000;stroke-width:0.03527776;stroke-linecap:square;stroke-linejoin:miter;stroke-miterlimit:4;stroke-dasharray:none;stroke-dashoffset:0;stroke-opacity:1;paint-order:stroke fill markers;stop-color:#000000"
         id="circle5986"
         cx="303.27826"
         cy="188.57214"
         r="2.4926522" /><path
         id="path6107"
         style="font-variation-settings:normal;fill:none;fill-opacity:1;stroke:#ff0000;stroke-width:0.03527776;stroke-linecap:square;stroke-linejoin:miter;stroke-miterlimit:4;stroke-dasharray:none;stroke-dashoffset:0;stroke-opacity:1;paint-order:stroke fill markers;stop-color:#000000"
         d="m 43.856525,114.86373 a 1.7,1.7 0 0 0 -1.62987,1.21646 28.299999,28.299999 0 0 0 -26.67021,28.18381 28.299999,28.299999 0 0 0 26.67021,28.18329 1.7,1.7 0 0 0 1.62987,1.21647 1.7,1.7 0 0 0 1.62936,-1.21647 28.299999,28.299999 0 0 0 26.67072,-28.18329 28.299999,28.299999 0 0 0 -26.69191,-28.24995 1.7,1.7 0 0 0 -1.60817,-1.15032 z" /><path
         id="path6108"
         style="font-variation-settings:normal;fill:none;fill-opacity:1;stroke:#ff0000;stroke-width:0.03527776;stroke-linecap:square;stroke-linejoin:miter;stroke-miterlimit:4;stroke-dasharray:none;stroke-dashoffset:0;stroke-opacity:1;paint-order:stroke fill markers;stop-color:#000000"
         d="m 122.25177,114.86373 a 1.7,1.7 0 0 0 -1.62987,1.21646 28.299999,28.299999 0 0 0 -26.670215,28.18381 28.299999,28.299999 0 0 0 26.670215,28.18329 1.7,1.7 0 0 0 1.62987,1.21647 1.7,1.7 0 0 0 1.62936,-1.21647 28.299999,28.299999 0 0 0 26.67072,-28.18329 28.299999,28.299999 0 0 0 -26.69191,-28.24995 1.7,1.7 0 0 0 -1.60817,-1.15032 z" /><path
         id="path6109"
         style="font-variation-settings:normal;fill:none;fill-opacity:1;stroke:#ff0000;stroke-width:0.03527776;stroke-linecap:square;stroke-linejoin:miter;stroke-miterlimit:4;stroke-dasharray:none;stroke-dashoffset:0;stroke-opacity:1;paint-order:stroke fill markers;stop-color:#000000"
         d="m 200.64701,114.86373 a 1.7,1.7 0 0 0 -1.62987,1.21646 28.299999,28.299999 0 0 0 -26.6702,28.18381 28.299999,28.299999 0 0 0 26.6702,28.18329 1.7,1.7 0 0 0 1.62987,1.21647 1.7,1.7 0 0 0 1.62936,-1.21647 28.299999,28.299999 0 0 0 26.67072,-28.18329 28.299999,28.299999 0 0 0 -26.69191,-28.24995 1.7,1.7 0 0 0 -1.60817,-1.15032 z" /><path
         id="path6110"
         style="font-variation-settings:normal;fill:none;fill-opacity:1;stroke:#ff0000;stroke-width:0.03527776;stroke-linecap:square;stroke-linejoin:miter;stroke-miterlimit:4;stroke-dasharray:none;stroke-dashoffset:0;stroke-opacity:1;paint-order:stroke fill markers;stop-color:#000000"
         d="m 279.04223,114.86373 a 1.7,1.7 0 0 0 -1.62987,1.21646 28.299999,28.299999 0 0 0 -26.6702,28.18381 28.299999,28.299999 0 0 0 26.6702,28.18329 1.7,1.7 0 0 0 1.62987,1.21647 1.7,1.7 0 0 0 1.62936,-1.21647 28.299999,28.299999 0 0 0 26.67072,-28.18329 28.299999,28.299999 0 0 0 -26.69191,-28.24995 1.7,1.7 0 0 0 -1.60817,-1.15032 z" /><circle
         style="font-variation-settings:normal;fill:none;fill-opacity:1;stroke:#ff0000;stroke-width:0.03527776;stroke-linecap:square;stroke-linejoin:miter;stroke-miterlimit:4;stroke-dasharray:none;stroke-dashoffset:0;stroke-opacity:1;paint-order:stroke fill markers;stop-color:#000000"
         id="circle6110"
         cx="241.38785"
         cy="38.821625"
         r="3.5" /><circle
         style="font-variation-settings:normal;fill:none;fill-opacity:1;stroke:#ff0000;stroke-width:0.03527776;stroke-linecap:square;stroke-linejoin:miter;stroke-miterlimit:4;stroke-dasharray:none;stroke-dashoffset:0;stroke-opacity:1;paint-order:stroke fill markers;stop-color:#000000"
         id="circle6111"
         cx="214.21194"
         cy="38.82164"
         r="3.5" /><circle
         style="font-variation-settings:normal;fill:none;fill-opacity:1;stroke:#ff0000;stroke-width:0.03527776;stroke-linecap:square;stroke-linejoin:miter;stroke-miterlimit:4;stroke-dasharray:none;stroke-dashoffset:0;stroke-opacity:1;paint-order:stroke fill markers;stop-color:#000000"
         id="circle6112"
         cx="227.7999"
         cy="38.82164"
         r="3.5" /><circle
         style="font-variation-settings:normal;fill:none;fill-opacity:1;stroke:#ff0000;stroke-width:0.03527776;stroke-linecap:square;stroke-linejoin:miter;stroke-miterlimit:4;stroke-dasharray:none;stroke-dashoffset:0;stroke-opacity:1;paint-order:stroke fill markers;stop-color:#000000"
         id="circle6113"
         cx="-288.79236"
         cy="38.82164"
         r="3.5"
         transform="scale(-1,1)" /><circle
         style="font-variation-settings:normal;fill:none;fill-opacity:1;stroke:#ff0000;stroke-width:0.03527776;stroke-linecap:square;stroke-linejoin:miter;stroke-miterlimit:4;stroke-dasharray:none;stroke-dashoffset:0;stroke-opacity:1;paint-order:stroke fill markers;stop-color:#000000"
         id="circle6114"
         cx="-275.20441"
         cy="38.82164"
         r="3.5"
         transform="scale(-1,1)" /><circle
         style="font-variation-settings:normal;fill:none;fill-opacity:1;stroke:#ff0000;stroke-width:0.03527776;stroke-linecap:square;stroke-linejoin:miter;stroke-miterlimit:4;stroke-dasharray:none;stroke-dashoffset:0;stroke-opacity:1;paint-order:stroke fill markers;stop-color:#000000"
         id="circle6115"
         cx="-261.61649"
         cy="38.821625"
         r="3.5"
         transform="scale(-1,1)" /><circle
         style="font-variation-settings:normal;fill:none;fill-opacity:1;stroke:#ff0000;stroke-width:0.03527776;stroke-linecap:square;stroke-linejoin:miter;stroke-miterlimit:4;stroke-dasharray:none;stroke-dashoffset:0;stroke-opacity:1;paint-order:stroke fill markers;stop-color:#000000"
         id="circle6116"
         cx="171.01189"
         cy="38.368027"
         r="3.5" /><circle
         style="font-variation-settings:normal;fill:none;fill-opacity:1;stroke:#ff0000;stroke-width:0.03527776;stroke-linecap:square;stroke-linejoin:miter;stroke-miterlimit:4;stroke-dasharray:none;stroke-dashoffset:0;stroke-opacity:1;paint-order:stroke fill markers;stop-color:#000000"
         id="circle6117"
         cx="-193.98331"
         cy="38.372162"
         r="3.5"
         transform="scale(-1,1)" /><circle
         style="font-variation-settings:normal;fill:none;fill-opacity:1;stroke:#ff0000;stroke-width:0.03527776;stroke-linecap:square;stroke-linejoin:miter;stroke-miterlimit:4;stroke-dasharray:none;stroke-dashoffset:0;stroke-opacity:1;paint-order:stroke fill markers;stop-color:#000000"
         id="circle6118"
         cx="182.4976"
         cy="38.370102"
         r="3.5" /><circle
         style="font-variation-settings:normal;fill:none;fill-opacity:1;stroke:#ff0000;stroke-width:0.03527776;stroke-linecap:square;stroke-linejoin:miter;stroke-miterlimit:4;stroke-dasharray:none;stroke-dashoffset:0;stroke-opacity:1;paint-order:stroke fill markers;stop-color:#000000"
         id="circle6119"
         cx="26.884386"
         cy="182.49863"
         r="3.5"
         transform="matrix(0,1,1,0,0,0)" /><rect
         style="font-variation-settings:normal;fill:none;fill-opacity:1;stroke:#ff0000;stroke-width:0.03527776;stroke-linecap:square;stroke-linejoin:miter;stroke-miterlimit:4;stroke-dasharray:none;stroke-dashoffset:0;stroke-opacity:1;paint-order:stroke fill markers;stop-color:#000000"
         id="rect4006"
         width="307.85663"
         height="193.35661"
         x="7.5335593"
         y="8.6560783" /></g></g><metadata
     id="metadata3192"><rdf:RDF><cc:Work
         rdf:about=""><dc:title>SVG Image created as MPR121-Breakout-F_Cu.svg date 2024/11/12 20:38:25 </dc:title></cc:Work></rdf:RDF></metadata></svg>
