<?xml version="1.0" encoding="UTF-8" standalone="no"?>
<!-- Created with Inkscape (http://www.inkscape.org/) -->

<svg
   width="24in"
   height="12in"
   viewBox="0 0 609.59999 304.80001"
   version="1.1"
   id="svg1"
   xml:space="preserve"
   sodipodi:docname="Miku_Panel_LAYER_2-3_16x12.svg"
   inkscape:version="1.4 (e7c3feb1, 2024-10-09)"
   xmlns:inkscape="http://www.inkscape.org/namespaces/inkscape"
   xmlns:sodipodi="http://sodipodi.sourceforge.net/DTD/sodipodi-0.dtd"
   xmlns="http://www.w3.org/2000/svg"
   xmlns:svg="http://www.w3.org/2000/svg"
   xmlns:rdf="http://www.w3.org/1999/02/22-rdf-syntax-ns#"
   xmlns:cc="http://creativecommons.org/ns#"
   xmlns:dc="http://purl.org/dc/elements/1.1/"><sodipodi:namedview
     id="namedview1"
     pagecolor="#ffffff"
     bordercolor="#666666"
     borderopacity="1.0"
     inkscape:showpageshadow="2"
     inkscape:pageopacity="0.0"
     inkscape:pagecheckerboard="0"
     inkscape:deskcolor="#d1d1d1"
     inkscape:document-units="mm"
     inkscape:zoom="0.39718604"
     inkscape:cx="809.44436"
     inkscape:cy="596.69771"
     inkscape:window-width="1440"
     inkscape:window-height="847"
     inkscape:window-x="0"
     inkscape:window-y="25"
     inkscape:window-maximized="1"
     inkscape:current-layer="svg1" /><title
     id="title3192">SVG Image created as MPR121-Breakout-F_Cu.svg date 2024/11/12 20:38:25 </title><defs
     id="defs1" /><metadata
     id="metadata3192"><rdf:RDF><cc:Work
         rdf:about=""><dc:title>SVG Image created as MPR121-Breakout-F_Cu.svg date 2024/11/12 20:38:25 </dc:title></cc:Work></rdf:RDF></metadata><g
     id="g1"
     style="stroke-width:0.03527778;stroke-dasharray:none"><g
       id="g3192"
       transform="rotate(90,575.9188,-379.68117)"
       style="stroke-width:0.03527778;stroke-dasharray:none"><circle
         style="font-variation-settings:normal;fill:none;fill-opacity:1;stroke:#ff0000;stroke-width:0.03527778;stroke-linecap:square;stroke-linejoin:miter;stroke-miterlimit:4;stroke-dasharray:none;stroke-dashoffset:0;stroke-opacity:1;paint-order:stroke fill markers;stop-color:#000000"
         id="circle5832"
         cx="968.27527"
         cy="14.133603"
         r="2.4926522" /><circle
         style="font-variation-settings:normal;fill:none;fill-opacity:1;stroke:#ff0000;stroke-width:0.03527778;stroke-linecap:square;stroke-linejoin:miter;stroke-miterlimit:4;stroke-dasharray:none;stroke-dashoffset:0;stroke-opacity:1;paint-order:stroke fill markers;stop-color:#000000"
         id="circle5833"
         cx="968.27527"
         cy="180.23779"
         r="2.4926522" /><circle
         style="font-variation-settings:normal;fill:none;fill-opacity:1;stroke:#ff0000;stroke-width:0.03527778;stroke-linecap:square;stroke-linejoin:miter;stroke-miterlimit:4;stroke-dasharray:none;stroke-dashoffset:0;stroke-opacity:1;paint-order:stroke fill markers;stop-color:#000000"
         id="circle5834"
         cx="1249.7415"
         cy="14.133603"
         r="2.4926522" /><circle
         style="font-variation-settings:normal;fill:none;fill-opacity:1;stroke:#ff0000;stroke-width:0.03527778;stroke-linecap:square;stroke-linejoin:miter;stroke-miterlimit:4;stroke-dasharray:none;stroke-dashoffset:0;stroke-opacity:1;paint-order:stroke fill markers;stop-color:#000000"
         id="circle5835"
         cx="1249.7415"
         cy="180.23779"
         r="2.4926522" /></g><g
       id="g5968"
       transform="rotate(90,201.58976,200.58251)"
       style="stroke-width:0.03527778;stroke-dasharray:none"><circle
         style="font-variation-settings:normal;opacity:1;fill:none;fill-opacity:1;stroke:#ff0000;stroke-width:0.03527778;stroke-linecap:square;stroke-linejoin:miter;stroke-miterlimit:4;stroke-dasharray:none;stroke-dashoffset:0;stroke-opacity:1;paint-order:stroke fill markers;stop-color:#000000;stop-opacity:1"
         id="circle5959"
         cx="233.25826"
         cy="236.42189"
         r="3.5" /><circle
         style="font-variation-settings:normal;opacity:1;fill:none;fill-opacity:1;stroke:#ff0000;stroke-width:0.03527778;stroke-linecap:square;stroke-linejoin:miter;stroke-miterlimit:4;stroke-dasharray:none;stroke-dashoffset:0;stroke-opacity:1;paint-order:stroke fill markers;stop-color:#000000;stop-opacity:1"
         id="circle5960"
         cx="206.08235"
         cy="236.42191"
         r="3.5" /><circle
         style="font-variation-settings:normal;opacity:1;fill:none;fill-opacity:1;stroke:#ff0000;stroke-width:0.03527778;stroke-linecap:square;stroke-linejoin:miter;stroke-miterlimit:4;stroke-dasharray:none;stroke-dashoffset:0;stroke-opacity:1;paint-order:stroke fill markers;stop-color:#000000;stop-opacity:1"
         id="circle5961"
         cx="219.6703"
         cy="236.42191"
         r="3.5" /><circle
         style="font-variation-settings:normal;opacity:1;fill:none;fill-opacity:1;stroke:#ff0000;stroke-width:0.03527778;stroke-linecap:square;stroke-linejoin:miter;stroke-miterlimit:4;stroke-dasharray:none;stroke-dashoffset:0;stroke-opacity:1;paint-order:stroke fill markers;stop-color:#000000;stop-opacity:1"
         id="circle5962"
         cx="-280.66278"
         cy="236.42191"
         r="3.5"
         transform="scale(-1,1)" /><circle
         style="font-variation-settings:normal;opacity:1;fill:none;fill-opacity:1;stroke:#ff0000;stroke-width:0.03527778;stroke-linecap:square;stroke-linejoin:miter;stroke-miterlimit:4;stroke-dasharray:none;stroke-dashoffset:0;stroke-opacity:1;paint-order:stroke fill markers;stop-color:#000000;stop-opacity:1"
         id="circle5963"
         cx="-267.07483"
         cy="236.42191"
         r="3.5"
         transform="scale(-1,1)" /><circle
         style="font-variation-settings:normal;opacity:1;fill:none;fill-opacity:1;stroke:#ff0000;stroke-width:0.03527778;stroke-linecap:square;stroke-linejoin:miter;stroke-miterlimit:4;stroke-dasharray:none;stroke-dashoffset:0;stroke-opacity:1;paint-order:stroke fill markers;stop-color:#000000;stop-opacity:1"
         id="circle5964"
         cx="-253.48689"
         cy="236.42189"
         r="3.5"
         transform="scale(-1,1)" /><circle
         style="font-variation-settings:normal;fill:none;fill-opacity:1;stroke:#ff0000;stroke-width:0.03527778;stroke-linecap:square;stroke-linejoin:miter;stroke-miterlimit:4;stroke-dasharray:none;stroke-dashoffset:0;stroke-opacity:1;paint-order:stroke fill markers;stop-color:#000000"
         id="circle5965"
         cx="162.88229"
         cy="235.96829"
         r="3.5" /><circle
         style="font-variation-settings:normal;opacity:1;fill:none;fill-opacity:1;stroke:#ff0000;stroke-width:0.03527778;stroke-linecap:square;stroke-linejoin:miter;stroke-miterlimit:4;stroke-dasharray:none;stroke-dashoffset:0;stroke-opacity:1;paint-order:stroke fill markers;stop-color:#000000;stop-opacity:1"
         id="circle5966"
         cx="-185.85371"
         cy="235.97243"
         r="3.5"
         transform="scale(-1,1)" /><circle
         style="font-variation-settings:normal;opacity:1;fill:none;fill-opacity:1;stroke:#ff0000;stroke-width:0.03527778;stroke-linecap:square;stroke-linejoin:miter;stroke-miterlimit:4;stroke-dasharray:none;stroke-dashoffset:0;stroke-opacity:1;paint-order:stroke fill markers;stop-color:#000000;stop-opacity:1"
         id="circle5967"
         cx="174.36801"
         cy="235.97037"
         r="3.5" /><circle
         style="font-variation-settings:normal;opacity:1;fill:none;fill-opacity:1;stroke:#ff0000;stroke-width:0.03527778;stroke-linecap:square;stroke-linejoin:miter;stroke-miterlimit:4;stroke-dasharray:none;stroke-dashoffset:0;stroke-opacity:1;paint-order:stroke fill markers;stop-color:#000000;stop-opacity:1"
         id="circle5968"
         cx="224.48465"
         cy="174.36903"
         r="3.5"
         transform="matrix(0,1,1,0,0,0)" /></g><path
       id="path6302"
       style="font-variation-settings:normal;fill:none;fill-opacity:1;stroke:#ff0000;stroke-width:0.03527778;stroke-linecap:square;stroke-linejoin:miter;stroke-miterlimit:4;stroke-dasharray:none;stroke-dashoffset:0;stroke-opacity:1;paint-order:stroke fill markers;stop-color:#000000"
       d="m 136.84412,54.07163 -5.2e-4,-5e-4 h -0.49919 l -5.2e-4,5e-4 v 2.498 h -0.99994 v 1.4997 5e-4 h 0.99994 v 4.378 h -0.99994 v 1.4997 h 0.99994 v 2.4985 6e-4 2.498 h -0.99994 v 1.5002 h 0.99994 v 4.378 h -0.99994 v 1.4996 6e-4 h 0.99994 v 2.498 5e-4 2.4981 h -0.99994 v 1.5001 h 0.99994 v 4.378 h -0.99994 v 1.5002 h 0.99994 v 2.4981 5e-4 2.498 h -0.99994 v 1.5002 h 0.99994 v 4.378 h -0.99994 v 1.5002 h 0.99994 v 2.498 5e-4 2.4981 h -0.99994 v 1.5001 h 0.99994 v 4.3781 h -0.99994 v 1.5001 h 0.99994 v 2.4981 5e-4 2.498 h -0.99994 v 1.5002 h 0.99994 v 4.378 h -0.99994 v 1.5002 h 0.99994 v 2.498 5e-4 2.4981 h -0.99994 v 1.5001 h 0.99994 v 4.3781 h -0.99994 v 1.5001 h 0.99994 v 2.4981 5e-4 2.498 h -0.99994 v 5e-4 1.4997 h 0.99994 v 4.378 h -0.99994 v 1.5002 h 0.99994 v 2.498 5e-4 2.4986 h -0.99994 v 1.4996 h 0.99994 v 4.3781 h -0.99994 v 5e-4 1.4996 h 0.99994 v 2.4981 5e-4 2.4986 h -0.99994 v 1.4996 h 0.99994 v 4.3785 h -0.99994 v 1.4997 h 0.99994 v 2.498 l 5.2e-4,6e-4 -5.2e-4,5e-4 v 2.498 h -0.99994 v 1.4997 h 0.99994 v 4.3785 h -0.99994 v 1.4997 h 0.99994 v 2.4985 5e-4 2.4981 h -0.99994 v 1.4996 5e-4 h 0.99994 v 4.3781 h -0.99994 v 1.4996 h 0.99994 v 2.4986 5e-4 2.498 h -0.99994 v 1.5002 h 0.99994 v 4.378 h -0.99994 v 1.4997 h 0.99994 v 2.4985 5e-4 2.4981 h -0.99994 v 1.5001 h 0.99994 v 4.3781 h -0.99994 v 1.4996 5e-4 h 0.99994 v 2.4981 5e-4 2.498 h -0.99994 v 1.5002 h 0.99994 v 4.378 h -0.99994 v 1.5002 h 0.99994 v 2.498 5e-4 2.4981 h -0.99994 v 1.5002 h 0.99994 v 4.378 h -0.99994 v 1.5001 h 0.99994 v 2.4981 l 5.2e-4,5e-4 h 0.49919 l 5.2e-4,-5e-4 v -8.3762 -1.5002 -2.4981 -5e-4 -12.3744 -5e-4 -12.3745 -5e-4 -12.3744 -5e-4 -12.3745 -5e-4 -12.3744 l -5.2e-4,-5e-4 5.2e-4,-6e-4 v -12.3744 -5e-4 -12.3745 -5e-4 -12.3744 -5e-4 -12.3745 -5e-4 -12.3744 -5e-4 -12.3745 -5e-4 -12.3744 -5e-4 -12.3745 -5e-4 -12.3744 -6e-4 z" /><g
       id="g1608"
       style="font-variation-settings:normal;fill:none;fill-opacity:1;stroke:#ff0000;stroke-width:0.03527778;stroke-linecap:square;stroke-linejoin:miter;stroke-miterlimit:4;stroke-dasharray:none;stroke-dashoffset:0;stroke-opacity:1;paint-order:stroke fill markers;stop-color:#000000"
       transform="rotate(90,575.9188,-379.68117)"><rect
         style="font-variation-settings:normal;opacity:1;fill:none;fill-opacity:1;stroke:#ff0000;stroke-width:0.03527778;stroke-linecap:square;stroke-linejoin:miter;stroke-miterlimit:4;stroke-dasharray:none;stroke-dashoffset:0;stroke-opacity:1;paint-order:stroke fill markers;stop-color:#000000;stop-opacity:1"
         id="rect1606"
         width="31.683001"
         height="21.523001"
         x="1021.3377"
         y="73.663902" /><rect
         style="font-variation-settings:normal;opacity:1;fill:none;fill-opacity:1;stroke:#ff0000;stroke-width:0.03527778;stroke-linecap:square;stroke-linejoin:miter;stroke-miterlimit:4;stroke-dasharray:none;stroke-dashoffset:0;stroke-opacity:1;paint-order:stroke fill markers;stop-color:#000000;stop-opacity:1"
         id="rect1607"
         width="31.683001"
         height="21.523001"
         x="1089.6177"
         y="73.663902" /><rect
         style="font-variation-settings:normal;opacity:1;fill:none;fill-opacity:1;stroke:#ff0000;stroke-width:0.03527778;stroke-linecap:square;stroke-linejoin:miter;stroke-miterlimit:4;stroke-dasharray:none;stroke-dashoffset:0;stroke-opacity:1;paint-order:stroke fill markers;stop-color:#000000;stop-opacity:1"
         id="rect1608"
         width="31.683001"
         height="21.523001"
         x="1157.8977"
         y="73.663902" /></g><g
       id="g1619"
       transform="rotate(90,258.32296,-62.08534)"
       style="stroke-width:0.03527778;stroke-dasharray:none"><path
         id="path1616"
         style="font-variation-settings:normal;fill:none;fill-opacity:1;stroke:#ff0000;stroke-width:0.03527778;stroke-linecap:square;stroke-linejoin:miter;stroke-miterlimit:4;stroke-dasharray:none;stroke-dashoffset:0;stroke-opacity:1;paint-order:stroke fill markers;stop-color:#000000"
         d="m 355.12843,106.52934 a 1.7,1.7 0 0 0 -1.62987,1.21646 28.299999,28.299999 0 0 0 -26.67021,28.18381 28.299999,28.299999 0 0 0 26.67021,28.18329 1.7,1.7 0 0 0 1.62987,1.21647 1.7,1.7 0 0 0 1.62936,-1.21647 28.299999,28.299999 0 0 0 26.67072,-28.18329 28.299999,28.299999 0 0 0 -26.69191,-28.24995 1.7,1.7 0 0 0 -1.60817,-1.15032 z" /><path
         id="path1617"
         style="font-variation-settings:normal;fill:none;fill-opacity:1;stroke:#ff0000;stroke-width:0.03527778;stroke-linecap:square;stroke-linejoin:miter;stroke-miterlimit:4;stroke-dasharray:none;stroke-dashoffset:0;stroke-opacity:1;paint-order:stroke fill markers;stop-color:#000000"
         d="m 433.52367,106.52934 a 1.7,1.7 0 0 0 -1.62987,1.21646 28.299999,28.299999 0 0 0 -26.67021,28.18381 28.299999,28.299999 0 0 0 26.67021,28.18329 1.7,1.7 0 0 0 1.62987,1.21647 1.7,1.7 0 0 0 1.62936,-1.21647 28.299999,28.299999 0 0 0 26.67072,-28.18329 28.299999,28.299999 0 0 0 -26.69191,-28.24995 1.7,1.7 0 0 0 -1.60817,-1.15032 z" /><path
         id="path1618"
         style="font-variation-settings:normal;fill:none;fill-opacity:1;stroke:#ff0000;stroke-width:0.03527778;stroke-linecap:square;stroke-linejoin:miter;stroke-miterlimit:4;stroke-dasharray:none;stroke-dashoffset:0;stroke-opacity:1;paint-order:stroke fill markers;stop-color:#000000"
         d="m 511.91891,106.52934 a 1.7,1.7 0 0 0 -1.62987,1.21646 28.299999,28.299999 0 0 0 -26.6702,28.18381 28.299999,28.299999 0 0 0 26.6702,28.18329 1.7,1.7 0 0 0 1.62987,1.21647 1.7,1.7 0 0 0 1.62936,-1.21647 28.299999,28.299999 0 0 0 26.67072,-28.18329 28.299999,28.299999 0 0 0 -26.69191,-28.24995 1.7,1.7 0 0 0 -1.60817,-1.15032 z" /><path
         id="path1619"
         style="font-variation-settings:normal;fill:none;fill-opacity:1;stroke:#ff0000;stroke-width:0.03527778;stroke-linecap:square;stroke-linejoin:miter;stroke-miterlimit:4;stroke-dasharray:none;stroke-dashoffset:0;stroke-opacity:1;paint-order:stroke fill markers;stop-color:#000000"
         d="m 590.31413,106.52934 a 1.7,1.7 0 0 0 -1.62987,1.21646 28.299999,28.299999 0 0 0 -26.6702,28.18381 28.299999,28.299999 0 0 0 26.6702,28.18329 1.7,1.7 0 0 0 1.62987,1.21647 1.7,1.7 0 0 0 1.62936,-1.21647 28.299999,28.299999 0 0 0 26.67072,-28.18329 28.299999,28.299999 0 0 0 -26.69191,-28.24995 1.7,1.7 0 0 0 -1.60817,-1.15032 z" /></g><rect
       style="font-variation-settings:normal;fill:none;fill-opacity:1;stroke:#ff0000;stroke-width:0.03527778;stroke-linecap:square;stroke-linejoin:miter;stroke-miterlimit:4;stroke-dasharray:none;stroke-dashoffset:0;stroke-opacity:1;paint-order:stroke fill markers;stop-color:#000000"
       id="rect4005"
       width="304.7005"
       height="193.35713"
       x="0.049749237"
       y="-195.91623"
       transform="rotate(90)" /><g
       id="g3191"
       transform="rotate(90,519.26041,-118.33958)"
       style="stroke-width:0.03527778;stroke-dasharray:none"><circle
         style="font-variation-settings:normal;fill:none;fill-opacity:1;stroke:#ff0000;stroke-width:0.03527778;stroke-linecap:square;stroke-linejoin:miter;stroke-miterlimit:4;stroke-dasharray:none;stroke-dashoffset:0;stroke-opacity:1;paint-order:stroke fill markers;stop-color:#000000"
         id="circle4276"
         cx="650.30029"
         cy="14.133607"
         r="2.4926522" /><circle
         style="font-variation-settings:normal;fill:none;fill-opacity:1;stroke:#ff0000;stroke-width:0.03527778;stroke-linecap:square;stroke-linejoin:miter;stroke-miterlimit:4;stroke-dasharray:none;stroke-dashoffset:0;stroke-opacity:1;paint-order:stroke fill markers;stop-color:#000000"
         id="circle4277"
         cx="650.30029"
         cy="180.23776"
         r="2.4926522" /><circle
         style="font-variation-settings:normal;fill:none;fill-opacity:1;stroke:#ff0000;stroke-width:0.03527778;stroke-linecap:square;stroke-linejoin:miter;stroke-miterlimit:4;stroke-dasharray:none;stroke-dashoffset:0;stroke-opacity:1;paint-order:stroke fill markers;stop-color:#000000"
         id="circle4278"
         cx="931.76642"
         cy="14.133607"
         r="2.4926522" /><circle
         style="font-variation-settings:normal;fill:none;fill-opacity:1;stroke:#ff0000;stroke-width:0.03527778;stroke-linecap:square;stroke-linejoin:miter;stroke-miterlimit:4;stroke-dasharray:none;stroke-dashoffset:0;stroke-opacity:1;paint-order:stroke fill markers;stop-color:#000000"
         id="circle4279"
         cx="931.76642"
         cy="180.23776"
         r="2.4926522" /></g><g
       id="g5568"
       transform="rotate(90,303.91888,302.93659)"
       style="stroke-width:0.03527778;stroke-dasharray:none"><circle
         style="font-variation-settings:normal;opacity:1;fill:none;fill-opacity:1;stroke:#ff0000;stroke-width:0.03527778;stroke-linecap:square;stroke-linejoin:miter;stroke-miterlimit:4;stroke-dasharray:none;stroke-dashoffset:0;stroke-opacity:1;paint-order:stroke fill markers;stop-color:#000000;stop-opacity:1"
         id="circle5559"
         cx="233.25826"
         cy="236.42189"
         r="3.5" /><circle
         style="font-variation-settings:normal;opacity:1;fill:none;fill-opacity:1;stroke:#ff0000;stroke-width:0.03527778;stroke-linecap:square;stroke-linejoin:miter;stroke-miterlimit:4;stroke-dasharray:none;stroke-dashoffset:0;stroke-opacity:1;paint-order:stroke fill markers;stop-color:#000000;stop-opacity:1"
         id="circle5560"
         cx="206.08235"
         cy="236.42191"
         r="3.5" /><circle
         style="font-variation-settings:normal;opacity:1;fill:none;fill-opacity:1;stroke:#ff0000;stroke-width:0.03527778;stroke-linecap:square;stroke-linejoin:miter;stroke-miterlimit:4;stroke-dasharray:none;stroke-dashoffset:0;stroke-opacity:1;paint-order:stroke fill markers;stop-color:#000000;stop-opacity:1"
         id="circle5561"
         cx="219.6703"
         cy="236.42191"
         r="3.5" /><circle
         style="font-variation-settings:normal;opacity:1;fill:none;fill-opacity:1;stroke:#ff0000;stroke-width:0.03527778;stroke-linecap:square;stroke-linejoin:miter;stroke-miterlimit:4;stroke-dasharray:none;stroke-dashoffset:0;stroke-opacity:1;paint-order:stroke fill markers;stop-color:#000000;stop-opacity:1"
         id="circle5562"
         cx="-280.66278"
         cy="236.42191"
         r="3.5"
         transform="scale(-1,1)" /><circle
         style="font-variation-settings:normal;opacity:1;fill:none;fill-opacity:1;stroke:#ff0000;stroke-width:0.03527778;stroke-linecap:square;stroke-linejoin:miter;stroke-miterlimit:4;stroke-dasharray:none;stroke-dashoffset:0;stroke-opacity:1;paint-order:stroke fill markers;stop-color:#000000;stop-opacity:1"
         id="circle5563"
         cx="-267.07483"
         cy="236.42191"
         r="3.5"
         transform="scale(-1,1)" /><circle
         style="font-variation-settings:normal;opacity:1;fill:none;fill-opacity:1;stroke:#ff0000;stroke-width:0.03527778;stroke-linecap:square;stroke-linejoin:miter;stroke-miterlimit:4;stroke-dasharray:none;stroke-dashoffset:0;stroke-opacity:1;paint-order:stroke fill markers;stop-color:#000000;stop-opacity:1"
         id="circle5564"
         cx="-253.48689"
         cy="236.42189"
         r="3.5"
         transform="scale(-1,1)" /><circle
         style="font-variation-settings:normal;fill:none;fill-opacity:1;stroke:#ff0000;stroke-width:0.03527778;stroke-linecap:square;stroke-linejoin:miter;stroke-miterlimit:4;stroke-dasharray:none;stroke-dashoffset:0;stroke-opacity:1;paint-order:stroke fill markers;stop-color:#000000"
         id="circle5565"
         cx="162.88229"
         cy="235.96829"
         r="3.5" /><circle
         style="font-variation-settings:normal;opacity:1;fill:none;fill-opacity:1;stroke:#ff0000;stroke-width:0.03527778;stroke-linecap:square;stroke-linejoin:miter;stroke-miterlimit:4;stroke-dasharray:none;stroke-dashoffset:0;stroke-opacity:1;paint-order:stroke fill markers;stop-color:#000000;stop-opacity:1"
         id="circle5566"
         cx="-185.85371"
         cy="235.97243"
         r="3.5"
         transform="scale(-1,1)" /><circle
         style="font-variation-settings:normal;opacity:1;fill:none;fill-opacity:1;stroke:#ff0000;stroke-width:0.03527778;stroke-linecap:square;stroke-linejoin:miter;stroke-miterlimit:4;stroke-dasharray:none;stroke-dashoffset:0;stroke-opacity:1;paint-order:stroke fill markers;stop-color:#000000;stop-opacity:1"
         id="circle5567"
         cx="174.36801"
         cy="235.97037"
         r="3.5" /><circle
         style="font-variation-settings:normal;opacity:1;fill:none;fill-opacity:1;stroke:#ff0000;stroke-width:0.03527778;stroke-linecap:square;stroke-linejoin:miter;stroke-miterlimit:4;stroke-dasharray:none;stroke-dashoffset:0;stroke-opacity:1;paint-order:stroke fill markers;stop-color:#000000;stop-opacity:1"
         id="circle5568"
         cx="224.48465"
         cy="174.36903"
         r="3.5"
         transform="matrix(0,1,1,0,0,0)" /></g><path
       id="path6180"
       style="font-variation-settings:normal;fill:none;fill-opacity:1;stroke:#ff0000;stroke-width:0.03527778;stroke-linecap:square;stroke-linejoin:miter;stroke-miterlimit:4;stroke-dasharray:none;stroke-dashoffset:0;stroke-opacity:1;paint-order:stroke fill markers;stop-color:#000000"
       d="m 341.52733,54.096659 -5.2e-4,-5.2e-4 h -0.49919 l -5.2e-4,5.2e-4 v 2.49804 h -0.99994 v 1.49965 5.1e-4 h 0.99994 v 4.37803 h -0.99994 v 1.49965 h 0.99994 v 2.49856 5.1e-4 2.49804 h -0.99994 v 1.50017 h 0.99994 v 4.37803 h -0.99994 v 1.49965 5.1e-4 h 0.99994 v 2.49804 5.2e-4 2.49804 h -0.99994 v 1.50016 h 0.99994 v 4.37803 h -0.99994 v 1.50017 h 0.99994 v 2.49804 5.1e-4 2.49804 h -0.99994 v 1.50017 h 0.99994 v 4.37803 h -0.99994 v 1.500161 h 0.99994 v 2.49804 5.2e-4 2.49804 h -0.99994 v 1.50016 h 0.99994 v 4.37803 h -0.99994 v 1.50017 h 0.99994 v 2.49804 5.1e-4 2.49804 h -0.99994 v 1.50017 h 0.99994 v 4.37803 h -0.99994 v 1.50016 h 0.99994 v 2.49804 5.2e-4 2.49804 h -0.99994 v 1.50016 h 0.99994 v 4.37803 h -0.99994 v 1.50017 h 0.99994 v 2.49804 5.1e-4 2.49804 h -0.99994 v 5.2e-4 1.49965 h 0.99994 v 4.37803 h -0.99994 v 1.50016 h 0.99994 v 2.49804 5.2e-4 2.49855 h -0.99994 v 1.49965 h 0.99994 v 4.37803 h -0.99994 v 5.2e-4 1.49965 h 0.99994 v 2.49804 5.1e-4 2.49856 h -0.99994 v 1.49965 h 0.99994 v 4.37854 h -0.99994 v 1.49965 h 0.99994 v 2.49804 l 5.2e-4,5.2e-4 -5.2e-4,5.2e-4 v 2.49804 h -0.99994 v 1.49965 h 0.99994 v 4.37854 h -0.99994 v 1.49965 h 0.99994 v 2.49856 5.1e-4 2.49804 h -0.99994 v 1.49965 5.2e-4 h 0.99994 v 4.37802 h -0.99994 v 1.49965 h 0.99994 v 2.49856 5.2e-4 2.49804 h -0.99994 v 1.50016 h 0.99994 v 4.37803 h -0.99994 v 1.49965 h 0.99994 v 2.49856 5.1e-4 2.49804 h -0.99994 v 1.50017 h 0.99994 v 4.37803 h -0.99994 v 1.49965 5.1e-4 h 0.99994 v 2.49804 5.2e-4 2.49804 h -0.99994 v 1.50016 h 0.99994 v 4.37803 h -0.99994 v 1.50017 h 0.99994 v 2.49804 5.1e-4 2.49804 h -0.99994 v 1.50017 h 0.99994 v 4.37803 h -0.99994 v 1.50016 h 0.99994 v 2.49804 l 5.2e-4,5.2e-4 h 0.49919 l 5.2e-4,-5.2e-4 v -8.37623 -1.50017 -2.49804 -5.1e-4 -12.37444 -5.2e-4 -12.37444 -5.1e-4 -12.37444 -5.2e-4 -12.37444 -5.1e-4 -12.37444 l -5.2e-4,-5.2e-4 5.2e-4,-5.2e-4 v -12.37444 -5.1e-4 -12.37444 -5.2e-4 -12.37444 -5.1e-4 -12.37444 -5.2e-4 -12.37444 -5.1e-4 -12.37444 -5.2e-4 -12.374441 -5.1e-4 -12.37444 -5.2e-4 -12.37444 -5.1e-4 z" /><rect
       style="font-variation-settings:normal;fill:none;fill-opacity:1;stroke:#ff0000;stroke-width:0.03527778;stroke-linecap:square;stroke-linejoin:miter;stroke-miterlimit:4;stroke-dasharray:none;stroke-dashoffset:0;stroke-opacity:1;paint-order:stroke fill markers;stop-color:#000000"
       id="rect1605"
       width="205.84"
       height="33.200001"
       x="53.546017"
       y="-338.69424"
       transform="rotate(90)" /><g
       id="g1615"
       transform="rotate(90,360.65209,40.268744)"
       style="stroke-width:0.03527778;stroke-dasharray:none"><path
         id="path1612"
         style="font-variation-settings:normal;fill:none;fill-opacity:1;stroke:#ff0000;stroke-width:0.03527778;stroke-linecap:square;stroke-linejoin:miter;stroke-miterlimit:4;stroke-dasharray:none;stroke-dashoffset:0;stroke-opacity:1;paint-order:stroke fill markers;stop-color:#000000"
         d="m 355.12843,106.52934 a 1.7,1.7 0 0 0 -1.62987,1.21646 28.299999,28.299999 0 0 0 -26.67021,28.18381 28.299999,28.299999 0 0 0 26.67021,28.18329 1.7,1.7 0 0 0 1.62987,1.21647 1.7,1.7 0 0 0 1.62936,-1.21647 28.299999,28.299999 0 0 0 26.67072,-28.18329 28.299999,28.299999 0 0 0 -26.69191,-28.24995 1.7,1.7 0 0 0 -1.60817,-1.15032 z" /><path
         id="path1613"
         style="font-variation-settings:normal;fill:none;fill-opacity:1;stroke:#ff0000;stroke-width:0.03527778;stroke-linecap:square;stroke-linejoin:miter;stroke-miterlimit:4;stroke-dasharray:none;stroke-dashoffset:0;stroke-opacity:1;paint-order:stroke fill markers;stop-color:#000000"
         d="m 433.52367,106.52934 a 1.7,1.7 0 0 0 -1.62987,1.21646 28.299999,28.299999 0 0 0 -26.67021,28.18381 28.299999,28.299999 0 0 0 26.67021,28.18329 1.7,1.7 0 0 0 1.62987,1.21647 1.7,1.7 0 0 0 1.62936,-1.21647 28.299999,28.299999 0 0 0 26.67072,-28.18329 28.299999,28.299999 0 0 0 -26.69191,-28.24995 1.7,1.7 0 0 0 -1.60817,-1.15032 z" /><path
         id="path1614"
         style="font-variation-settings:normal;fill:none;fill-opacity:1;stroke:#ff0000;stroke-width:0.03527778;stroke-linecap:square;stroke-linejoin:miter;stroke-miterlimit:4;stroke-dasharray:none;stroke-dashoffset:0;stroke-opacity:1;paint-order:stroke fill markers;stop-color:#000000"
         d="m 511.91891,106.52934 a 1.7,1.7 0 0 0 -1.62987,1.21646 28.299999,28.299999 0 0 0 -26.6702,28.18381 28.299999,28.299999 0 0 0 26.6702,28.18329 1.7,1.7 0 0 0 1.62987,1.21647 1.7,1.7 0 0 0 1.62936,-1.21647 28.299999,28.299999 0 0 0 26.67072,-28.18329 28.299999,28.299999 0 0 0 -26.69191,-28.24995 1.7,1.7 0 0 0 -1.60817,-1.15032 z" /><path
         id="path1615"
         style="font-variation-settings:normal;fill:none;fill-opacity:1;stroke:#ff0000;stroke-width:0.03527778;stroke-linecap:square;stroke-linejoin:miter;stroke-miterlimit:4;stroke-dasharray:none;stroke-dashoffset:0;stroke-opacity:1;paint-order:stroke fill markers;stop-color:#000000"
         d="m 590.31413,106.52934 a 1.7,1.7 0 0 0 -1.62987,1.21646 28.299999,28.299999 0 0 0 -26.6702,28.18381 28.299999,28.299999 0 0 0 26.6702,28.18329 1.7,1.7 0 0 0 1.62987,1.21647 1.7,1.7 0 0 0 1.62936,-1.21647 28.299999,28.299999 0 0 0 26.67072,-28.18329 28.299999,28.299999 0 0 0 -26.69191,-28.24995 1.7,1.7 0 0 0 -1.60817,-1.15032 z" /></g><path
       id="path2"
       style="font-variation-settings:normal;fill:none;fill-opacity:1;stroke:#ff0000;stroke-width:0.03527778;stroke-linecap:square;stroke-linejoin:miter;stroke-miterlimit:4;stroke-dasharray:none;stroke-dashoffset:0;stroke-opacity:1;paint-order:stroke fill markers;stop-color:#000000"
       d="M 207.23757,0.04494558 V 60.1312 244.66878 304.75503 H 400.60406 V 244.66878 60.1312 0.04494558 Z" /></g></svg>
