<?xml version="1.0" encoding="UTF-8" standalone="no"?>
<!-- Created with Inkscape (http://www.inkscape.org/) -->

<svg
   width="14in"
   height="8.5in"
   viewBox="0 0 355.6 215.9"
   version="1.1"
   id="svg1"
   xml:space="preserve"
   inkscape:version="1.3.2 (091e20e, 2023-11-25, custom)"
   sodipodi:docname="Miku_Panel_ART.svg"
   xmlns:inkscape="http://www.inkscape.org/namespaces/inkscape"
   xmlns:sodipodi="http://sodipodi.sourceforge.net/DTD/sodipodi-0.dtd"
   xmlns:xlink="http://www.w3.org/1999/xlink"
   xmlns="http://www.w3.org/2000/svg"
   xmlns:svg="http://www.w3.org/2000/svg"
   xmlns:rdf="http://www.w3.org/1999/02/22-rdf-syntax-ns#"
   xmlns:cc="http://creativecommons.org/ns#"
   xmlns:dc="http://purl.org/dc/elements/1.1/"><title
     id="title3192">SVG Image created as MPR121-Breakout-F_Cu.svg date 2024/11/12 20:38:25 </title><sodipodi:namedview
     id="namedview1"
     pagecolor="#ffffff"
     bordercolor="#666666"
     borderopacity="1.0"
     inkscape:showpageshadow="2"
     inkscape:pageopacity="0.0"
     inkscape:pagecheckerboard="0"
     inkscape:deskcolor="#d1d1d1"
     inkscape:document-units="mm"
     inkscape:zoom="1.0507525"
     inkscape:cx="1396.1423"
     inkscape:cy="388.769"
     inkscape:window-width="5104"
     inkscape:window-height="1401"
     inkscape:window-x="-7"
     inkscape:window-y="0"
     inkscape:window-maximized="0"
     inkscape:current-layer="layer1"
     showgrid="false"><inkscape:page
       x="0"
       y="0"
       width="355.60001"
       height="215.89999"
       id="page1"
       margin="0"
       bleed="0" /></sodipodi:namedview><defs
     id="defs1"><clipPath
       clipPathUnits="userSpaceOnUse"
       id="clipPath1610"><rect
         style="fill:#00ffff;stroke-width:0.940729;paint-order:stroke fill markers"
         id="rect1611"
         width="308"
         height="194"
         x="1.2874603e-06"
         y="0.44448191" /></clipPath><clipPath
       clipPathUnits="userSpaceOnUse"
       id="clipPath1610-1"><rect
         style="fill:#00ffff;stroke-width:0.940729;paint-order:stroke fill markers"
         id="rect1611-7"
         width="308"
         height="194"
         x="1.2874603e-06"
         y="0.44448191" /></clipPath></defs><g
     inkscape:label="Layer 1"
     inkscape:groupmode="layer"
     id="layer1"
     transform="translate(-317.96253)"><image
       width="397.82327"
       height="310.79941"
       preserveAspectRatio="xMidYMid"
       xlink:href="MikuArt1.png"
       id="image3192"
       x="-88.567253"
       y="-1.7049404"
       clip-path="url(#clipPath1610)"
       style="fill:#008000;fill-opacity:1"
       transform="translate(341.76253,10.505515)" /><g
       id="g5971"
       transform="translate(341.77502,11.112497)"><g
         id="g4208"
         transform="matrix(0.999996,0,0,1.0074509,0.33768285,-410.76596)"
         style="opacity:1"><path
           id="path4206"
           style="font-variation-settings:normal;vector-effect:none;fill:#f9f9f9;fill-opacity:1;stroke:#f9f9f9;stroke-width:0.212915;stroke-linecap:butt;stroke-linejoin:miter;stroke-miterlimit:4;stroke-dasharray:none;stroke-dashoffset:0;stroke-opacity:1;-inkscape-stroke:none;paint-order:stroke fill markers"
           d="m 55.514763,471.19033 v 25.00002 h 1.228552 4.914213 1.228553 4.913705 1.228553 4.914212 1.228553 4.913705 1.228553 4.914212 1.228553 4.913705 1.228553 4.914213 1.228553 4.913709 1.22855 4.91421 1.22856 4.9137 1.22855 4.91422 1.22855 4.9137 1.22856 4.91421 1.22855 4.9137 1.22856 4.91421 1.22855 4.91371 1.22855 4.91421 1.22855 4.91371 1.22855 4.91421 1.22856 4.9137 1.22855 4.91422 1.22855 4.9137 1.22856 4.91421 1.22804 4.91422 1.22855 4.91421 1.22855 4.91371 1.22855 4.91422 1.22804 4.91422 1.22855 4.91421 1.22805 4.91421 1.22856 4.91421 1.22804 4.91421 1.22856 v -25.00002 h -1.22856 -4.91421 -1.22804 -4.91421 -1.22856 -4.91421 -1.22805 -4.91421 -1.22855 -4.91422 -1.22804 -4.91422 -1.22855 -4.91371 -1.22855 -4.91421 -1.22855 -4.91422 -1.22804 -4.91421 -1.22856 -4.9137 -1.22855 -4.91422 -1.22855 -4.9137 -1.22856 -4.91421 -1.22855 -4.91371 -1.22855 -4.91421 -1.22855 -4.91371 -1.22855 -4.91421 -1.22856 -4.9137 -1.22855 -4.91421 -1.22856 -4.9137 -1.22855 -4.91422 -1.22855 -4.9137 -1.22856 -4.91421 -1.22855 -4.913709 -1.228553 -4.914213 -1.228553 -4.913705 -1.228553 -4.914212 -1.228553 -4.913705 -1.228553 -4.914212 -1.228553 -4.913705 -1.228553 -4.914213 z" /><path
           id="path4207"
           style="vector-effect:none;fill:#999999;fill-opacity:1;stroke-width:2.63079;paint-order:stroke fill markers"
           inkscape:transform-center-x="2.3001554"
           inkscape:transform-center-y="1.4126373"
           d="m 72.178862,472.49709 c -0.497535,-0.0213 -0.810287,0.29197 -0.810287,0.29197 l -13.483414,9.36428 c 0,0 -0.891152,0.58096 -0.889352,1.49294 0.0018,0.91143 0.894003,1.6185 0.894003,1.6185 l 13.51132,9.30641 c 0,0 0.664726,0.38064 1.471228,-0.0439 0.91782,-0.48316 0.775663,-1.51671 0.775663,-1.51671 l -0.02791,-18.67018 c 0,0 0.0327,-1.20617 -0.886768,-1.6862 -0.202111,-0.10551 -0.388643,-0.14999 -0.554488,-0.15709 z m -7.205245,6.01823 h 2.198832 v 8.55504 h 4.206462 v 1.81591 h -6.405294 z" /><text
           xml:space="preserve"
           style="font-weight:bold;font-size:18.5753px;line-height:1.25;font-family:'Open Sans';-inkscape-font-specification:'Open Sans Bold';letter-spacing:0px;word-spacing:0px;fill:#999999;stroke-width:0.580477"
           x="87.350395"
           y="490.25583"
           id="text4207"><tspan
             sodipodi:role="line"
             id="tspan4207"
             style="fill:#999999;stroke-width:0.580477"
             x="87.350395"
             y="490.25583">TOUCH SLIDER</tspan></text><path
           id="path4208"
           style="vector-effect:none;fill:#999999;fill-opacity:1;stroke-width:2.63079;paint-order:stroke fill markers"
           inkscape:transform-center-x="-2.3001526"
           inkscape:transform-center-y="1.4126373"
           d="m 236.63958,472.49711 c -0.16585,0.007 -0.35238,0.0516 -0.55449,0.15709 -0.91947,0.48003 -0.88677,1.6862 -0.88677,1.6862 l -0.0279,18.67018 c 0,0 -0.14216,1.03355 0.77566,1.51671 0.8065,0.42456 1.47123,0.0439 1.47123,0.0439 l 13.5108,-9.30641 c 0,0 0.89276,-0.70707 0.89452,-1.6185 0.002,-0.91198 -0.88987,-1.49294 -0.88987,-1.49294 l -13.4829,-9.36428 c 0,0 -0.31275,-0.31328 -0.81028,-0.29197 z m -0.39429,6.01823 h 3.02203 c 1.40925,0 2.45173,0.25814 3.12798,0.7736 0.67625,0.51073 1.01441,1.2886 1.01441,2.33371 0,0.61004 -0.16757,1.1538 -0.50333,1.63142 -0.33576,0.4729 -0.81099,0.84408 -1.42575,1.11363 1.56056,2.3314 2.57704,3.83761 3.04994,4.51859 h -2.44016 l -2.47582,-3.97961 h -1.17047 v 3.97961 h -2.19883 z m 2.19883,1.80196 v 2.8019 h 0.70952 c 0.69516,0 1.2084,-0.11555 1.53944,-0.34727 0.33102,-0.23172 0.49661,-0.59589 0.49661,-1.09244 0,-0.49181 -0.1706,-0.84198 -0.51108,-1.05006 -0.33576,-0.20808 -0.858,-0.31213 -1.56735,-0.31213 z" /></g><path
         id="path5969"
         style="font-variation-settings:normal;vector-effect:none;fill:#f9f9f9;fill-opacity:1;stroke:#f9f9f9;stroke-width:0.213706;stroke-linecap:butt;stroke-linejoin:miter;stroke-miterlimit:4;stroke-dasharray:none;stroke-dashoffset:0;stroke-opacity:1;-inkscape-stroke:none;paint-order:stroke fill markers"
         d="m 55.852224,63.935162 v 25.186293 h 1.228547 4.914193 1.228548 4.913686 1.228548 4.914192 1.228548 4.913686 1.228548 4.914192 1.228548 4.913685 1.228548 4.914194 1.228543 4.91369 1.22855 4.91419 1.22855 4.91369 1.22854 4.9142 1.22855 4.91368 1.22855 4.91419 1.22855 4.91368 1.22855 4.91419 1.22855 4.91369 1.22854 4.91419 1.22855 4.91369 1.22854 4.91419 1.22856 4.91368 1.22854 4.9142 1.22855 4.91368 1.22856 4.91419 1.22803 4.9142 1.22855 4.91419 1.22854 4.91369 1.22855 4.9142 1.22803 4.9142 1.22855 4.91419 1.22804 4.91419 1.22856 4.91419 1.22803 4.91419 1.22856 V 63.935162 h -1.22856 -4.91419 -1.22803 -4.91419 -1.22856 -4.91419 -1.22804 -4.91419 -1.22855 -4.9142 -1.22803 -4.9142 -1.22855 -4.91369 -1.22854 -4.91419 -1.22855 -4.9142 -1.22803 -4.91419 -1.22856 -4.91368 -1.22855 -4.9142 -1.22854 -4.91368 -1.22856 -4.91419 -1.22854 -4.91369 -1.22855 -4.91419 -1.22854 -4.91369 -1.22855 -4.91419 -1.22855 -4.91368 -1.22855 -4.91419 -1.22855 -4.91368 -1.22855 -4.9142 -1.22854 -4.91369 -1.22855 -4.91419 -1.22855 -4.91369 -1.228543 -4.914194 -1.228548 -4.913685 -1.228548 -4.914192 -1.228548 -4.913686 -1.228548 -4.914192 -1.228548 -4.913686 -1.228548 -4.914193 z" /><path
         id="path5970"
         style="vector-effect:none;fill:#999999;fill-opacity:1;stroke-width:2.64057;paint-order:stroke fill markers"
         inkscape:transform-center-x="2.3001554"
         inkscape:transform-center-y="1.4126373"
         d="m 72.516256,65.251659 c -0.497533,-0.02146 -0.810284,0.294145 -0.810284,0.294145 l -13.48336,9.434052 c 0,0 -0.891148,0.585289 -0.889348,1.504064 0.0018,0.918221 0.893999,1.630559 0.893999,1.630559 l 13.511266,9.375751 c 0,0 0.664724,0.383477 1.471222,-0.04423 0.917817,-0.48676 0.77566,-1.52801 0.77566,-1.52801 L 73.957501,67.1087 c 0,0 0.0327,-1.215157 -0.886764,-1.698764 -0.20211,-0.106296 -0.388642,-0.151107 -0.554486,-0.15826 z M 65.31104,71.31473 h 2.198823 v 8.618783 h 4.206445 v 1.82944 H 65.31104 Z" /><text
         xml:space="preserve"
         style="font-weight:bold;font-size:18.6443px;line-height:1.25;font-family:'Open Sans';-inkscape-font-specification:'Open Sans Bold';letter-spacing:0px;word-spacing:0px;fill:#999999;stroke-width:0.582634"
         x="88.013977"
         y="82.834526"
         id="text5970"
         transform="scale(0.99629325,1.0037205)"><tspan
           sodipodi:role="line"
           id="tspan5970"
           style="fill:#999999;stroke-width:0.582634"
           x="88.013977"
           y="82.834526">TOUCH SLIDER</tspan></text><path
         id="path5971"
         style="vector-effect:none;fill:#999999;fill-opacity:1;stroke-width:2.64057;paint-order:stroke fill markers"
         inkscape:transform-center-x="-2.3001526"
         inkscape:transform-center-y="1.4126373"
         d="m 236.97632,65.251679 c -0.16585,0.0071 -0.35238,0.05198 -0.55449,0.15826 -0.91947,0.483607 -0.88677,1.698764 -0.88677,1.698764 l -0.0279,18.80929 c 0,0 -0.14216,1.04125 0.77566,1.52801 0.8065,0.427724 1.47122,0.04423 1.47122,0.04423 l 13.51075,-9.375751 c 0,0 0.89276,-0.712338 0.89452,-1.630559 0.002,-0.918775 -0.88987,-1.504064 -0.88987,-1.504064 l -13.48285,-9.434052 c 0,0 -0.31275,-0.315614 -0.81027,-0.294145 z m -0.39429,6.063071 h 3.02202 c 1.40924,0 2.45172,0.260063 3.12796,0.779364 0.67625,0.514535 1.01441,1.298201 1.01441,2.351098 0,0.614586 -0.16757,1.162397 -0.50333,1.643576 -0.33576,0.476423 -0.81099,0.850369 -1.42574,1.121927 1.56055,2.348771 2.57703,3.866204 3.04992,4.552258 h -2.44015 l -2.47581,-4.009262 h -1.17046 v 4.009262 h -2.19882 z m 2.19882,1.815386 v 2.822777 h 0.70952 c 0.69515,0 1.20839,-0.116411 1.53943,-0.349858 0.33102,-0.233446 0.49661,-0.60033 0.49661,-1.100579 0,-0.495475 -0.1706,-0.848254 -0.51108,-1.057884 -0.33576,-0.209631 -0.858,-0.314456 -1.56734,-0.314456 z" /></g><g
       id="g6154"
       transform="translate(341.77502,11.112497)"><g
         id="g6127"><text
           xml:space="preserve"
           style="font-weight:bold;font-size:8.46667px;line-height:1.25;font-family:'Open Sans';-inkscape-font-specification:'Open Sans Bold';text-align:center;letter-spacing:0px;word-spacing:0px;text-anchor:middle;fill:#055f50;fill-opacity:1;stroke-width:0.264583"
           x="281.26022"
           y="45.050556"
           id="text6124"><tspan
             sodipodi:role="line"
             id="tspan6124"
             style="text-align:center;text-anchor:middle;fill:#055f50;fill-opacity:1;stroke-width:0.264583"
             x="281.26022"
             y="45.050556">R3</tspan></text><text
           xml:space="preserve"
           style="font-weight:bold;font-size:8.46667px;line-height:1.25;font-family:'Open Sans';-inkscape-font-specification:'Open Sans Bold';text-align:center;letter-spacing:0px;word-spacing:0px;text-anchor:middle;fill:#055f50;fill-opacity:1;stroke-width:0.264583"
           x="254.58867"
           y="45.048492"
           id="text6125"><tspan
             sodipodi:role="line"
             id="tspan6125"
             style="text-align:center;text-anchor:middle;fill:#055f50;fill-opacity:1;stroke-width:0.264583"
             x="254.58867"
             y="45.048492">R1</tspan></text><text
           xml:space="preserve"
           style="font-weight:bold;font-size:8.46667px;line-height:1.25;font-family:'Open Sans';-inkscape-font-specification:'Open Sans Bold';text-align:center;letter-spacing:0px;word-spacing:0px;text-anchor:middle;fill:#055f50;fill-opacity:1;stroke-width:0.264583"
           x="267.64331"
           y="45.0919"
           id="text6126"><tspan
             sodipodi:role="line"
             id="tspan6126"
             style="text-align:center;text-anchor:middle;fill:#055f50;fill-opacity:1;stroke-width:0.264583"
             x="267.64331"
             y="45.0919">R2</tspan></text></g><g
         id="g6126"><text
           xml:space="preserve"
           style="font-weight:bold;font-size:8.46667px;line-height:1.25;font-family:'Open Sans';-inkscape-font-specification:'Open Sans Bold';text-align:center;letter-spacing:0px;word-spacing:0px;text-anchor:middle;fill:#055f50;fill-opacity:1;stroke-width:0.264583"
           x="233.85567"
           y="45.050552"
           id="text6121"><tspan
             sodipodi:role="line"
             id="tspan6121"
             style="text-align:center;text-anchor:middle;fill:#055f50;fill-opacity:1;stroke-width:0.264583"
             x="233.85567"
             y="45.050552">L1</tspan></text><text
           xml:space="preserve"
           style="font-weight:bold;font-size:8.46667px;line-height:1.25;font-family:'Open Sans';-inkscape-font-specification:'Open Sans Bold';text-align:center;letter-spacing:0px;word-spacing:0px;text-anchor:middle;fill:#055f50;fill-opacity:1;stroke-width:0.264583"
           x="207.18414"
           y="45.048492"
           id="text6122"><tspan
             sodipodi:role="line"
             id="tspan6122"
             style="text-align:center;text-anchor:middle;fill:#055f50;fill-opacity:1;stroke-width:0.264583"
             x="207.18414"
             y="45.048492">L3</tspan></text><text
           xml:space="preserve"
           style="font-weight:bold;font-size:8.46667px;line-height:1.25;font-family:'Open Sans';-inkscape-font-specification:'Open Sans Bold';text-align:center;letter-spacing:0px;word-spacing:0px;text-anchor:middle;fill:#055f50;fill-opacity:1;stroke-width:0.264583"
           x="220.23877"
           y="45.091896"
           id="text6123"><tspan
             sodipodi:role="line"
             id="tspan6123"
             style="text-align:center;text-anchor:middle;fill:#055f50;fill-opacity:1;stroke-width:0.264583"
             x="220.23877"
             y="45.091896">L2</tspan></text></g><g
         id="g6128"
         style="fill:#e8fdfd;fill-opacity:1"><text
           xml:space="preserve"
           style="font-weight:bold;font-size:8.46667px;line-height:1.25;font-family:'Open Sans';-inkscape-font-specification:'Open Sans Bold';text-align:center;letter-spacing:0px;word-spacing:0px;text-anchor:middle;fill:#e8fdfd;fill-opacity:1;stroke-width:0.264583"
           x="233.71535"
           y="44.816692"
           id="text4098"><tspan
             sodipodi:role="line"
             id="tspan4098"
             style="text-align:center;text-anchor:middle;fill:#e8fdfd;fill-opacity:1;stroke-width:0.264583"
             x="233.71535"
             y="44.816692">L1</tspan></text><text
           xml:space="preserve"
           style="font-weight:bold;font-size:8.46667px;line-height:1.25;font-family:'Open Sans';-inkscape-font-specification:'Open Sans Bold';text-align:center;letter-spacing:0px;word-spacing:0px;text-anchor:middle;fill:#e8fdfd;fill-opacity:1;stroke-width:0.264583"
           x="207.04382"
           y="44.814632"
           id="text4100"><tspan
             sodipodi:role="line"
             id="tspan4100"
             style="text-align:center;text-anchor:middle;fill:#e8fdfd;fill-opacity:1;stroke-width:0.264583"
             x="207.04382"
             y="44.814632">L3</tspan></text><text
           xml:space="preserve"
           style="font-weight:bold;font-size:8.46667px;line-height:1.25;font-family:'Open Sans';-inkscape-font-specification:'Open Sans Bold';text-align:center;letter-spacing:0px;word-spacing:0px;text-anchor:middle;fill:#e8fdfd;fill-opacity:1;stroke-width:0.264583"
           x="220.09845"
           y="44.858036"
           id="text4102"><tspan
             sodipodi:role="line"
             id="tspan4102"
             style="text-align:center;text-anchor:middle;fill:#e8fdfd;fill-opacity:1;stroke-width:0.264583"
             x="220.09845"
             y="44.858036">L2</tspan></text></g><g
         id="g6129"
         style="fill:#e8fdfd;fill-opacity:1"><text
           xml:space="preserve"
           style="font-weight:bold;font-size:8.46667px;line-height:1.25;font-family:'Open Sans';-inkscape-font-specification:'Open Sans Bold';text-align:center;letter-spacing:0px;word-spacing:0px;text-anchor:middle;fill:#e8fdfd;fill-opacity:1;stroke-width:0.264583"
           x="281.1199"
           y="44.816696"
           id="text4107"><tspan
             sodipodi:role="line"
             id="tspan4107"
             style="text-align:center;text-anchor:middle;fill:#e8fdfd;fill-opacity:1;stroke-width:0.264583"
             x="281.1199"
             y="44.816696">R3</tspan></text><text
           xml:space="preserve"
           style="font-weight:bold;font-size:8.46667px;line-height:1.25;font-family:'Open Sans';-inkscape-font-specification:'Open Sans Bold';text-align:center;letter-spacing:0px;word-spacing:0px;text-anchor:middle;fill:#e8fdfd;fill-opacity:1;stroke-width:0.264583"
           x="254.44835"
           y="44.814632"
           id="text4111"><tspan
             sodipodi:role="line"
             id="tspan4111"
             style="text-align:center;text-anchor:middle;fill:#e8fdfd;fill-opacity:1;stroke-width:0.264583"
             x="254.44835"
             y="44.814632">R1</tspan></text><text
           xml:space="preserve"
           style="font-weight:bold;font-size:8.46667px;line-height:1.25;font-family:'Open Sans';-inkscape-font-specification:'Open Sans Bold';text-align:center;letter-spacing:0px;word-spacing:0px;text-anchor:middle;fill:#e8fdfd;fill-opacity:1;stroke-width:0.264583"
           x="267.50299"
           y="44.85804"
           id="text4109"><tspan
             sodipodi:role="line"
             id="tspan4109"
             style="text-align:center;text-anchor:middle;fill:#e8fdfd;fill-opacity:1;stroke-width:0.264583"
             x="267.50299"
             y="44.85804">R2</tspan></text></g></g><g
       id="g6136"
       style="fill:#000000"
       transform="translate(341.86856,11.299586)"><text
         xml:space="preserve"
         style="font-weight:bold;font-size:8.46667px;line-height:1.25;font-family:'Open Sans';-inkscape-font-specification:'Open Sans Bold';text-align:center;letter-spacing:0px;word-spacing:0px;text-anchor:middle;fill:#000000;stroke-width:0.264583"
         x="195.48958"
         y="9.0239868"
         id="text6133"><tspan
           sodipodi:role="line"
           id="tspan6133"
           style="text-align:center;text-anchor:middle;fill:#000000;stroke-width:0.264583"
           x="195.48958"
           y="9.0239868">HOME</tspan></text><text
         xml:space="preserve"
         style="font-weight:bold;font-size:8.46667px;line-height:1.25;font-family:'Open Sans';-inkscape-font-specification:'Open Sans Bold';text-align:center;letter-spacing:0px;word-spacing:0px;text-anchor:middle;fill:#000000;stroke-width:0.264583"
         x="231.8829"
         y="9.0239868"
         id="text6134"><tspan
           sodipodi:role="line"
           id="tspan6134"
           style="text-align:center;text-anchor:middle;fill:#000000;stroke-width:0.264583"
           x="231.8829"
           y="9.0239868">SEL</tspan></text><text
         xml:space="preserve"
         style="font-weight:bold;font-size:8.46667px;line-height:1.25;font-family:'Open Sans';-inkscape-font-specification:'Open Sans Bold';text-align:center;letter-spacing:0px;word-spacing:0px;text-anchor:middle;fill:#000000;stroke-width:0.264583"
         x="268.68839"
         y="9.0239868"
         id="text6135"><tspan
           sodipodi:role="line"
           id="tspan6135"
           style="text-align:center;text-anchor:middle;fill:#000000;stroke-width:0.264583"
           x="268.68839"
           y="9.0239868">START</tspan></text><text
         xml:space="preserve"
         style="font-weight:bold;font-size:8.46667px;line-height:1.25;font-family:'Open Sans';-inkscape-font-specification:'Open Sans Bold';text-align:center;letter-spacing:0px;word-spacing:0px;text-anchor:middle;fill:#000000;stroke-width:0.264583"
         x="159.35051"
         y="9.0239868"
         id="text6136"><tspan
           sodipodi:role="line"
           id="tspan6136"
           style="text-align:center;text-anchor:middle;fill:#000000;stroke-width:0.264583"
           x="159.35051"
           y="9.0239868">TPAD</tspan></text></g><g
       id="g6132"
       transform="translate(341.77502,11.112497)"><text
         xml:space="preserve"
         style="font-weight:bold;font-size:8.46667px;line-height:1.25;font-family:'Open Sans';-inkscape-font-specification:'Open Sans Bold';text-align:center;letter-spacing:0px;word-spacing:0px;text-anchor:middle;fill:#ffffff;stroke-width:0.264583"
         x="195.48958"
         y="9.0239868"
         id="text6129"><tspan
           sodipodi:role="line"
           id="tspan6129"
           style="text-align:center;text-anchor:middle;fill:#ffffff;stroke-width:0.264583"
           x="195.48958"
           y="9.0239868">HOME</tspan></text><text
         xml:space="preserve"
         style="font-weight:bold;font-size:8.46667px;line-height:1.25;font-family:'Open Sans';-inkscape-font-specification:'Open Sans Bold';text-align:center;letter-spacing:0px;word-spacing:0px;text-anchor:middle;fill:#ffffff;stroke-width:0.264583"
         x="231.8829"
         y="9.0239868"
         id="text6130"><tspan
           sodipodi:role="line"
           id="tspan6130"
           style="text-align:center;text-anchor:middle;fill:#ffffff;stroke-width:0.264583"
           x="231.8829"
           y="9.0239868">SEL</tspan></text><text
         xml:space="preserve"
         style="font-weight:bold;font-size:8.46667px;line-height:1.25;font-family:'Open Sans';-inkscape-font-specification:'Open Sans Bold';text-align:center;letter-spacing:0px;word-spacing:0px;text-anchor:middle;fill:#ffffff;stroke-width:0.264583"
         x="268.68839"
         y="9.0239868"
         id="text6131"><tspan
           sodipodi:role="line"
           id="tspan6131"
           style="text-align:center;text-anchor:middle;fill:#ffffff;stroke-width:0.264583"
           x="268.68839"
           y="9.0239868">START</tspan></text><text
         xml:space="preserve"
         style="font-weight:bold;font-size:8.46667px;line-height:1.25;font-family:'Open Sans';-inkscape-font-specification:'Open Sans Bold';text-align:center;letter-spacing:0px;word-spacing:0px;text-anchor:middle;fill:#ffffff;stroke-width:0.264583"
         x="159.35051"
         y="9.0239868"
         id="text6132"><tspan
           sodipodi:role="line"
           id="tspan6132"
           style="text-align:center;text-anchor:middle;fill:#ffffff;stroke-width:0.264583"
           x="159.35051"
           y="9.0239868">TPAD</tspan></text></g><g
       id="g6156"
       transform="translate(342.71824,11.112497)"><text
         xml:space="preserve"
         style="font-weight:bold;font-size:8.46667px;line-height:1.25;font-family:'Open Sans';-inkscape-font-specification:'Open Sans Bold';text-align:center;letter-spacing:0px;word-spacing:0px;text-anchor:middle;fill:#055f50;fill-opacity:1;stroke-width:0.264583"
         x="174.11339"
         y="45.050556"
         id="text6153"><tspan
           sodipodi:role="line"
           id="tspan6153"
           style="text-align:center;text-anchor:middle;fill:#055f50;fill-opacity:1;stroke-width:0.264583"
           x="174.11339"
           y="45.050556">D-Pad</tspan></text><text
         xml:space="preserve"
         style="font-weight:bold;font-size:8.46667px;line-height:1.25;font-family:'Open Sans';-inkscape-font-specification:'Open Sans Bold';text-align:center;letter-spacing:0px;word-spacing:0px;text-anchor:middle;fill:#e8fdfd;fill-opacity:1;stroke-width:0.264583"
         x="173.98109"
         y="44.918266"
         id="text6152"><tspan
           sodipodi:role="line"
           id="tspan6152"
           style="text-align:center;text-anchor:middle;fill:#e8fdfd;fill-opacity:1;stroke-width:0.264583"
           x="173.98109"
           y="44.918266">D-Pad</tspan></text></g><g
       id="g3207"
       transform="translate(342.46772,-194.98465)"><circle
         style="font-variation-settings:normal;opacity:1;vector-effect:none;fill:none;fill-opacity:1;stroke:#ff0000;stroke-width:0.1;stroke-linecap:square;stroke-linejoin:miter;stroke-miterlimit:4;stroke-dasharray:none;stroke-dashoffset:0;stroke-opacity:1;-inkscape-stroke:none;paint-order:stroke fill markers;stop-color:#000000;stop-opacity:1"
         id="circle3198"
         cx="233.25826"
         cy="236.42189"
         r="3.5" /><circle
         style="font-variation-settings:normal;opacity:1;vector-effect:none;fill:none;fill-opacity:1;stroke:#ff0000;stroke-width:0.1;stroke-linecap:square;stroke-linejoin:miter;stroke-miterlimit:4;stroke-dasharray:none;stroke-dashoffset:0;stroke-opacity:1;-inkscape-stroke:none;paint-order:stroke fill markers;stop-color:#000000;stop-opacity:1"
         id="circle3199"
         cx="206.08235"
         cy="236.42191"
         r="3.5" /><circle
         style="font-variation-settings:normal;opacity:1;vector-effect:none;fill:none;fill-opacity:1;stroke:#ff0000;stroke-width:0.1;stroke-linecap:square;stroke-linejoin:miter;stroke-miterlimit:4;stroke-dasharray:none;stroke-dashoffset:0;stroke-opacity:1;-inkscape-stroke:none;paint-order:stroke fill markers;stop-color:#000000;stop-opacity:1"
         id="circle3200"
         cx="219.6703"
         cy="236.42191"
         r="3.5" /><circle
         style="font-variation-settings:normal;opacity:1;vector-effect:none;fill:none;fill-opacity:1;stroke:#ff0000;stroke-width:0.1;stroke-linecap:square;stroke-linejoin:miter;stroke-miterlimit:4;stroke-dasharray:none;stroke-dashoffset:0;stroke-opacity:1;-inkscape-stroke:none;paint-order:stroke fill markers;stop-color:#000000;stop-opacity:1"
         id="circle3201"
         cx="-280.66278"
         cy="236.42191"
         r="3.5"
         transform="scale(-1,1)" /><circle
         style="font-variation-settings:normal;opacity:1;vector-effect:none;fill:none;fill-opacity:1;stroke:#ff0000;stroke-width:0.1;stroke-linecap:square;stroke-linejoin:miter;stroke-miterlimit:4;stroke-dasharray:none;stroke-dashoffset:0;stroke-opacity:1;-inkscape-stroke:none;paint-order:stroke fill markers;stop-color:#000000;stop-opacity:1"
         id="circle3202"
         cx="-267.07483"
         cy="236.42191"
         r="3.5"
         transform="scale(-1,1)" /><circle
         style="font-variation-settings:normal;opacity:1;vector-effect:none;fill:none;fill-opacity:1;stroke:#ff0000;stroke-width:0.1;stroke-linecap:square;stroke-linejoin:miter;stroke-miterlimit:4;stroke-dasharray:none;stroke-dashoffset:0;stroke-opacity:1;-inkscape-stroke:none;paint-order:stroke fill markers;stop-color:#000000;stop-opacity:1"
         id="circle3203"
         cx="-253.48689"
         cy="236.42189"
         r="3.5"
         transform="scale(-1,1)" /><circle
         style="font-variation-settings:normal;vector-effect:none;fill:none;fill-opacity:1;stroke:#ff0000;stroke-width:0.1;stroke-linecap:square;stroke-linejoin:miter;stroke-miterlimit:4;stroke-dasharray:none;stroke-dashoffset:0;stroke-opacity:1;-inkscape-stroke:none;paint-order:stroke fill markers;stop-color:#000000"
         id="circle3204"
         cx="162.88229"
         cy="235.96829"
         r="3.5" /><circle
         style="font-variation-settings:normal;opacity:1;vector-effect:none;fill:none;fill-opacity:1;stroke:#ff0000;stroke-width:0.1;stroke-linecap:square;stroke-linejoin:miter;stroke-miterlimit:4;stroke-dasharray:none;stroke-dashoffset:0;stroke-opacity:1;-inkscape-stroke:none;paint-order:stroke fill markers;stop-color:#000000;stop-opacity:1"
         id="circle3205"
         cx="-185.85371"
         cy="235.97243"
         r="3.5"
         transform="scale(-1,1)" /><circle
         style="font-variation-settings:normal;opacity:1;vector-effect:none;fill:none;fill-opacity:1;stroke:#ff0000;stroke-width:0.1;stroke-linecap:square;stroke-linejoin:miter;stroke-miterlimit:4;stroke-dasharray:none;stroke-dashoffset:0;stroke-opacity:1;-inkscape-stroke:none;paint-order:stroke fill markers;stop-color:#000000;stop-opacity:1"
         id="circle3206"
         cx="174.36801"
         cy="235.97037"
         r="3.5" /><circle
         style="font-variation-settings:normal;opacity:1;vector-effect:none;fill:none;fill-opacity:1;stroke:#ff0000;stroke-width:0.1;stroke-linecap:square;stroke-linejoin:miter;stroke-miterlimit:4;stroke-dasharray:none;stroke-dashoffset:0;stroke-opacity:1;-inkscape-stroke:none;paint-order:stroke fill markers;stop-color:#000000;stop-opacity:1"
         id="circle3207"
         cx="224.48465"
         cy="174.36903"
         r="3.5"
         transform="matrix(0,1,1,0,0,0)" /></g><g
       id="g3211"
       transform="translate(341.80038,10.949999)"><circle
         style="font-variation-settings:normal;vector-effect:none;fill:none;fill-opacity:1;stroke:#ff0000;stroke-width:0.1;stroke-linecap:square;stroke-linejoin:miter;stroke-miterlimit:4;stroke-dasharray:none;stroke-dashoffset:0;stroke-opacity:1;-inkscape-stroke:none;paint-order:stroke fill markers;stop-color:#000000"
         id="circle3208"
         cx="14.350291"
         cy="14.133607"
         r="2.4926522" /><circle
         style="font-variation-settings:normal;vector-effect:none;fill:none;fill-opacity:1;stroke:#ff0000;stroke-width:0.1;stroke-linecap:square;stroke-linejoin:miter;stroke-miterlimit:4;stroke-dasharray:none;stroke-dashoffset:0;stroke-opacity:1;-inkscape-stroke:none;paint-order:stroke fill markers;stop-color:#000000"
         id="circle3209"
         cx="14.350291"
         cy="180.23776"
         r="2.4926522" /><circle
         style="font-variation-settings:normal;vector-effect:none;fill:none;fill-opacity:1;stroke:#ff0000;stroke-width:0.1;stroke-linecap:square;stroke-linejoin:miter;stroke-miterlimit:4;stroke-dasharray:none;stroke-dashoffset:0;stroke-opacity:1;-inkscape-stroke:none;paint-order:stroke fill markers;stop-color:#000000"
         id="circle3210"
         cx="295.81638"
         cy="14.133607"
         r="2.4926522" /><circle
         style="font-variation-settings:normal;vector-effect:none;fill:none;fill-opacity:1;stroke:#ff0000;stroke-width:0.1;stroke-linecap:square;stroke-linejoin:miter;stroke-miterlimit:4;stroke-dasharray:none;stroke-dashoffset:0;stroke-opacity:1;-inkscape-stroke:none;paint-order:stroke fill markers;stop-color:#000000"
         id="circle3211"
         cx="295.81638"
         cy="180.23776"
         r="2.4926522" /></g><g
       id="g3214"
       transform="translate(23.066671,10.949999)"><path
         id="path3211"
         style="font-variation-settings:normal;vector-effect:none;fill:none;fill-opacity:1;stroke:#ff0000;stroke-width:0.1;stroke-linecap:square;stroke-linejoin:miter;stroke-miterlimit:4;stroke-dasharray:none;stroke-dashoffset:0;stroke-opacity:1;-inkscape-stroke:none;paint-order:stroke fill markers;stop-color:#000000"
         d="m 355.12843,106.52934 a 1.7,1.7 0 0 0 -1.62987,1.21646 28.299999,28.299999 0 0 0 -26.67021,28.18381 28.299999,28.299999 0 0 0 26.67021,28.18329 1.7,1.7 0 0 0 1.62987,1.21647 1.7,1.7 0 0 0 1.62936,-1.21647 28.299999,28.299999 0 0 0 26.67072,-28.18329 28.299999,28.299999 0 0 0 -26.69191,-28.24995 1.7,1.7 0 0 0 -1.60817,-1.15032 z" /><path
         id="path3212"
         style="font-variation-settings:normal;vector-effect:none;fill:none;fill-opacity:1;stroke:#ff0000;stroke-width:0.1;stroke-linecap:square;stroke-linejoin:miter;stroke-miterlimit:4;stroke-dasharray:none;stroke-dashoffset:0;stroke-opacity:1;-inkscape-stroke:none;paint-order:stroke fill markers;stop-color:#000000"
         d="m 433.52367,106.52934 a 1.7,1.7 0 0 0 -1.62987,1.21646 28.299999,28.299999 0 0 0 -26.67021,28.18381 28.299999,28.299999 0 0 0 26.67021,28.18329 1.7,1.7 0 0 0 1.62987,1.21647 1.7,1.7 0 0 0 1.62936,-1.21647 28.299999,28.299999 0 0 0 26.67072,-28.18329 28.299999,28.299999 0 0 0 -26.69191,-28.24995 1.7,1.7 0 0 0 -1.60817,-1.15032 z" /><path
         id="path3213"
         style="font-variation-settings:normal;vector-effect:none;fill:none;fill-opacity:1;stroke:#ff0000;stroke-width:0.1;stroke-linecap:square;stroke-linejoin:miter;stroke-miterlimit:4;stroke-dasharray:none;stroke-dashoffset:0;stroke-opacity:1;-inkscape-stroke:none;paint-order:stroke fill markers;stop-color:#000000"
         d="m 511.91891,106.52934 a 1.7,1.7 0 0 0 -1.62987,1.21646 28.299999,28.299999 0 0 0 -26.6702,28.18381 28.299999,28.299999 0 0 0 26.6702,28.18329 1.7,1.7 0 0 0 1.62987,1.21647 1.7,1.7 0 0 0 1.62936,-1.21647 28.299999,28.299999 0 0 0 26.67072,-28.18329 28.299999,28.299999 0 0 0 -26.69191,-28.24995 1.7,1.7 0 0 0 -1.60817,-1.15032 z" /><path
         id="path3214"
         style="font-variation-settings:normal;vector-effect:none;fill:none;fill-opacity:1;stroke:#ff0000;stroke-width:0.1;stroke-linecap:square;stroke-linejoin:miter;stroke-miterlimit:4;stroke-dasharray:none;stroke-dashoffset:0;stroke-opacity:1;-inkscape-stroke:none;paint-order:stroke fill markers;stop-color:#000000"
         d="m 590.31413,106.52934 a 1.7,1.7 0 0 0 -1.62987,1.21646 28.299999,28.299999 0 0 0 -26.6702,28.18381 28.299999,28.299999 0 0 0 26.6702,28.18329 1.7,1.7 0 0 0 1.62987,1.21647 1.7,1.7 0 0 0 1.62936,-1.21647 28.299999,28.299999 0 0 0 26.67072,-28.18329 28.299999,28.299999 0 0 0 -26.69191,-28.24995 1.7,1.7 0 0 0 -1.60817,-1.15032 z" /></g><rect
       style="font-variation-settings:normal;opacity:1;vector-effect:none;fill:none;fill-opacity:1;stroke:#ff0000;stroke-width:0.1;stroke-linecap:square;stroke-linejoin:miter;stroke-miterlimit:4;stroke-dasharray:none;stroke-dashoffset:0;stroke-opacity:1;-inkscape-stroke:none;paint-order:stroke fill markers;stop-color:#000000;stop-opacity:1"
       id="rect5"
       width="307.89999"
       height="193.89999"
       x="341.81253"
       y="11" /></g><metadata
     id="metadata3192"><rdf:RDF><cc:Work
         rdf:about=""><dc:title>SVG Image created as MPR121-Breakout-F_Cu.svg date 2024/11/12 20:38:25 </dc:title></cc:Work></rdf:RDF></metadata></svg>
