<?xml version="1.0" encoding="UTF-8" standalone="no"?>
<!-- Created with Inkscape (http://www.inkscape.org/) -->

<svg
   width="16in"
   height="12in"
   viewBox="0 0 406.39999 304.80001"
   version="1.1"
   id="svg1"
   xml:space="preserve"
   sodipodi:docname="Miku_Panel_16x12_A.svg"
   inkscape:version="1.3.2 (091e20e, 2023-11-25, custom)"
   xmlns:inkscape="http://www.inkscape.org/namespaces/inkscape"
   xmlns:sodipodi="http://sodipodi.sourceforge.net/DTD/sodipodi-0.dtd"
   xmlns="http://www.w3.org/2000/svg"
   xmlns:svg="http://www.w3.org/2000/svg"
   xmlns:rdf="http://www.w3.org/1999/02/22-rdf-syntax-ns#"
   xmlns:cc="http://creativecommons.org/ns#"
   xmlns:dc="http://purl.org/dc/elements/1.1/"><sodipodi:namedview
     id="namedview1"
     pagecolor="#000000"
     bordercolor="#666666"
     borderopacity="1.0"
     inkscape:showpageshadow="2"
     inkscape:pageopacity="0.0"
     inkscape:pagecheckerboard="0"
     inkscape:deskcolor="#d1d1d1"
     inkscape:document-units="mm"
     inkscape:zoom="0.70710678"
     inkscape:cx="708.521"
     inkscape:cy="451.84123"
     inkscape:window-width="2560"
     inkscape:window-height="1417"
     inkscape:window-x="-8"
     inkscape:window-y="-8"
     inkscape:window-maximized="1"
     inkscape:current-layer="svg1" /><title
     id="title3192">SVG Image created as MPR121-Breakout-F_Cu.svg date 2024/11/12 20:38:25 </title><defs
     id="defs1" /><metadata
     id="metadata3192"><rdf:RDF><cc:Work
         rdf:about=""><dc:title>SVG Image created as MPR121-Breakout-F_Cu.svg date 2024/11/12 20:38:25 </dc:title></cc:Work></rdf:RDF></metadata><g
     id="g2"
     style="stroke-width:0.35277778;stroke-dasharray:none"><rect
       style="font-variation-settings:normal;display:inline;fill:none;fill-opacity:1;stroke:#ff8000;stroke-width:0.35277778;stroke-linecap:square;stroke-linejoin:miter;stroke-miterlimit:4;stroke-dasharray:none;stroke-dashoffset:0;stroke-opacity:1;paint-order:stroke fill markers;stop-color:#000000"
       id="rect1"
       width="304.79999"
       height="194"
       x="-304.79999"
       y="207.8"
       transform="rotate(-90)" /><rect
       style="font-variation-settings:normal;fill:none;fill-opacity:1;stroke:#ff8000;stroke-width:0.35277778;stroke-linecap:square;stroke-linejoin:miter;stroke-miterlimit:4;stroke-dasharray:none;stroke-dashoffset:0;stroke-opacity:1;paint-order:stroke fill markers;stop-color:#000000"
       id="rect2"
       width="28"
       height="28"
       x="-76.4347"
       y="216.53519"
       transform="rotate(-90)" /><path
       id="path2"
       style="font-variation-settings:normal;fill:none;fill-opacity:1;stroke:#ff8000;stroke-width:0.35277778;stroke-linecap:square;stroke-linejoin:miter;stroke-miterlimit:4;stroke-dasharray:none;stroke-dashoffset:0;stroke-opacity:1;paint-order:stroke fill markers;stop-color:#000000"
       d="m 220.51888,79.875221 a 0.25,0.25 0 0 0 0.25011,0.2496 0.25,0.25 0 0 0 0.25011,-0.2496 0.25,0.25 0 0 0 0,-5.1e-4 h 0.99994 a 0.25,0.25 0 0 0 0,5.1e-4 0.25,0.25 0 0 0 0.25012,0.2496 0.25,0.25 0 0 0 0.25011,-0.2496 0.25,0.25 0 0 0 -0.25011,-0.25011 v -0.99994 a 0.25,0.25 0 0 0 0.25011,-0.25011 0.25,0.25 0 0 0 -0.25011,-0.25012 0.25,0.25 0 0 0 -0.25012,0.2496 h -0.99994 a 0.25,0.25 0 0 0 -0.25011,-0.2496 0.25,0.25 0 0 0 -0.25011,0.25012 0.25,0.25 0 0 0 0.25011,0.25011 0.25,0.25 0 0 0 5.2e-4,0 v 0.99994 a 0.25,0.25 0 0 0 -5.2e-4,0 0.25,0.25 0 0 0 -0.25011,0.25011 z" /><path
       id="path3"
       style="font-variation-settings:normal;fill:none;fill-opacity:1;stroke:#ff8000;stroke-width:0.35277778;stroke-linecap:square;stroke-linejoin:miter;stroke-miterlimit:4;stroke-dasharray:none;stroke-dashoffset:0;stroke-opacity:1;paint-order:stroke fill markers;stop-color:#000000"
       d="m 238.55109,79.875221 a 0.25,0.25 0 0 0 0.25011,0.2496 0.25,0.25 0 0 0 0.25011,-0.2496 0.25,0.25 0 0 0 0,-5.1e-4 h 0.99994 a 0.25,0.25 0 0 0 0,5.1e-4 0.25,0.25 0 0 0 0.25012,0.2496 0.25,0.25 0 0 0 0.25011,-0.2496 0.25,0.25 0 0 0 -0.25011,-0.25011 v -0.99994 a 0.25,0.25 0 0 0 0.25011,-0.25011 0.25,0.25 0 0 0 -0.25011,-0.25012 0.25,0.25 0 0 0 -0.25012,0.2496 h -0.99994 a 0.25,0.25 0 0 0 -0.25011,-0.2496 0.25,0.25 0 0 0 -0.25011,0.25012 0.25,0.25 0 0 0 0.25011,0.25011 0.25,0.25 0 0 0 5.2e-4,0 v 0.99994 a 0.25,0.25 0 0 0 -5.2e-4,0 0.25,0.25 0 0 0 -0.25011,0.25011 z" /><path
       id="path4"
       style="font-variation-settings:normal;fill:none;fill-opacity:1;stroke:#ff8000;stroke-width:0.35277778;stroke-linecap:square;stroke-linejoin:miter;stroke-miterlimit:4;stroke-dasharray:none;stroke-dashoffset:0;stroke-opacity:1;paint-order:stroke fill markers;stop-color:#000000"
       d="m 238.55109,46.494841 a 0.25,0.25 0 0 0 0.25011,0.2496 0.25,0.25 0 0 0 0.25011,-0.2496 0.25,0.25 0 0 0 0,-5.1e-4 h 0.99994 a 0.25,0.25 0 0 0 0,5.1e-4 0.25,0.25 0 0 0 0.25012,0.2496 0.25,0.25 0 0 0 0.25011,-0.2496 0.25,0.25 0 0 0 -0.25011,-0.25011 v -0.99994 a 0.25,0.25 0 0 0 0.25011,-0.25011 0.25,0.25 0 0 0 -0.25011,-0.25012 0.25,0.25 0 0 0 -0.25012,0.2496 h -0.99994 a 0.25,0.25 0 0 0 -0.25011,-0.2496 0.25,0.25 0 0 0 -0.25011,0.25012 0.25,0.25 0 0 0 0.25011,0.25011 0.25,0.25 0 0 0 5.2e-4,0 v 0.99994 a 0.25,0.25 0 0 0 -5.2e-4,0 0.25,0.25 0 0 0 -0.25011,0.25011 z" /><path
       id="path5"
       style="font-variation-settings:normal;fill:none;fill-opacity:1;stroke:#ff8000;stroke-width:0.35277778;stroke-linecap:square;stroke-linejoin:miter;stroke-miterlimit:4;stroke-dasharray:none;stroke-dashoffset:0;stroke-opacity:1;paint-order:stroke fill markers;stop-color:#000000"
       d="m 220.51888,46.494841 a 0.25,0.25 0 0 0 0.25011,0.2496 0.25,0.25 0 0 0 0.25011,-0.2496 0.25,0.25 0 0 0 0,-5.1e-4 h 0.99994 a 0.25,0.25 0 0 0 0,5.1e-4 0.25,0.25 0 0 0 0.25012,0.2496 0.25,0.25 0 0 0 0.25011,-0.2496 0.25,0.25 0 0 0 -0.25011,-0.25011 v -0.99994 a 0.25,0.25 0 0 0 0.25011,-0.25011 0.25,0.25 0 0 0 -0.25011,-0.25012 0.25,0.25 0 0 0 -0.25012,0.2496 h -0.99994 a 0.25,0.25 0 0 0 -0.25011,-0.2496 0.25,0.25 0 0 0 -0.25011,0.25012 0.25,0.25 0 0 0 0.25011,0.25011 0.25,0.25 0 0 0 5.2e-4,0 v 0.99994 a 0.25,0.25 0 0 0 -5.2e-4,0 0.25,0.25 0 0 0 -0.25011,0.25011 z" /><path
       id="path8"
       style="font-variation-settings:normal;display:inline;fill:none;fill-opacity:1;stroke:#00ffff;stroke-width:0.35277778;stroke-linecap:square;stroke-linejoin:miter;stroke-miterlimit:4;stroke-dasharray:none;stroke-dashoffset:0;stroke-opacity:1;paint-order:stroke fill markers;stop-color:#000000"
       d="m 268.70946,287.62388 h 5.89266 v -1.94768 h -4.00027 v -4.00027 h -1.89239 v 4.26899 z m 0,-264.325979 h 1.89239 v -4.00027 h 4.00027 v -1.94717 h -5.89266 v 1.67897 z m 24.33857,264.325979 h 5.89318 v -1.67896 -4.26899 h -1.89291 v 4.00027 h -4.00027 z m 0,-268.326249 h 4.00027 v 4.00027 h 1.89291 v -4.26847 -1.67897 h -5.89318 z" /><path
       id="path9"
       style="font-variation-settings:normal;display:inline;fill:none;fill-opacity:1;stroke:#00ffff;stroke-width:0.35277778;stroke-linecap:square;stroke-linejoin:miter;stroke-miterlimit:4;stroke-dasharray:none;stroke-dashoffset:0;stroke-opacity:1;paint-order:stroke fill markers;stop-color:#000000"
       d="m 278.45484,287.0086 h 6.16607 V 17.965231 h -6.16607 z"
       sodipodi:nodetypes="ccccc" /><circle
       style="font-variation-settings:normal;fill:none;fill-opacity:1;stroke:#00ff00;stroke-width:0.35277778;stroke-linecap:square;stroke-linejoin:miter;stroke-miterlimit:4;stroke-dasharray:none;stroke-dashoffset:0;stroke-opacity:1;paint-order:stroke fill markers;stop-color:#000000"
       id="circle9"
       cx="-292.12469"
       cy="221.93364"
       r="2.4926522"
       transform="rotate(-90)" /><circle
       style="font-variation-settings:normal;fill:none;fill-opacity:1;stroke:#00ff00;stroke-width:0.35277778;stroke-linecap:square;stroke-linejoin:miter;stroke-miterlimit:4;stroke-dasharray:none;stroke-dashoffset:0;stroke-opacity:1;paint-order:stroke fill markers;stop-color:#000000"
       id="circle10"
       cx="-292.12469"
       cy="388.03784"
       r="2.4926522"
       transform="rotate(-90)" /><circle
       style="font-variation-settings:normal;fill:none;fill-opacity:1;stroke:#00ff00;stroke-width:0.35277778;stroke-linecap:square;stroke-linejoin:miter;stroke-miterlimit:4;stroke-dasharray:none;stroke-dashoffset:0;stroke-opacity:1;paint-order:stroke fill markers;stop-color:#000000"
       id="circle11"
       cx="-10.658525"
       cy="221.93364"
       r="2.4926522"
       transform="rotate(-90)" /><circle
       style="font-variation-settings:normal;fill:none;fill-opacity:1;stroke:#00ff00;stroke-width:0.35277778;stroke-linecap:square;stroke-linejoin:miter;stroke-miterlimit:4;stroke-dasharray:none;stroke-dashoffset:0;stroke-opacity:1;paint-order:stroke fill markers;stop-color:#000000"
       id="circle12"
       cx="-10.658525"
       cy="388.03784"
       r="2.4926522"
       transform="rotate(-90)" /><circle
       style="font-variation-settings:normal;fill:none;fill-opacity:1;stroke:#00ff00;stroke-width:0.35277778;stroke-linecap:square;stroke-linejoin:miter;stroke-miterlimit:4;stroke-dasharray:none;stroke-dashoffset:0;stroke-opacity:1;paint-order:stroke fill markers;stop-color:#000000"
       id="circle13"
       cx="-72.549004"
       cy="257.25781"
       r="3.5"
       transform="rotate(-90)" /><circle
       style="font-variation-settings:normal;fill:none;fill-opacity:1;stroke:#00ff00;stroke-width:0.35277778;stroke-linecap:square;stroke-linejoin:miter;stroke-miterlimit:4;stroke-dasharray:none;stroke-dashoffset:0;stroke-opacity:1;paint-order:stroke fill markers;stop-color:#000000"
       id="circle14"
       cx="-99.724899"
       cy="257.25781"
       r="3.5"
       transform="rotate(-90)" /><circle
       style="font-variation-settings:normal;fill:none;fill-opacity:1;stroke:#00ff00;stroke-width:0.35277778;stroke-linecap:square;stroke-linejoin:miter;stroke-miterlimit:4;stroke-dasharray:none;stroke-dashoffset:0;stroke-opacity:1;paint-order:stroke fill markers;stop-color:#000000"
       id="circle15"
       cx="-86.136955"
       cy="257.25781"
       r="3.5"
       transform="rotate(-90)" /><circle
       style="font-variation-settings:normal;fill:none;fill-opacity:1;stroke:#00ff00;stroke-width:0.35277778;stroke-linecap:square;stroke-linejoin:miter;stroke-miterlimit:4;stroke-dasharray:none;stroke-dashoffset:0;stroke-opacity:1;paint-order:stroke fill markers;stop-color:#000000"
       id="circle16"
       cx="25.144476"
       cy="257.25781"
       r="3.5"
       transform="matrix(0,1,1,0,0,0)" /><circle
       style="font-variation-settings:normal;fill:none;fill-opacity:1;stroke:#00ff00;stroke-width:0.35277778;stroke-linecap:square;stroke-linejoin:miter;stroke-miterlimit:4;stroke-dasharray:none;stroke-dashoffset:0;stroke-opacity:1;paint-order:stroke fill markers;stop-color:#000000"
       id="circle17"
       cx="38.73243"
       cy="257.25781"
       r="3.5"
       transform="matrix(0,1,1,0,0,0)" /><circle
       style="font-variation-settings:normal;fill:none;fill-opacity:1;stroke:#00ff00;stroke-width:0.35277778;stroke-linecap:square;stroke-linejoin:miter;stroke-miterlimit:4;stroke-dasharray:none;stroke-dashoffset:0;stroke-opacity:1;paint-order:stroke fill markers;stop-color:#000000"
       id="circle18"
       cx="52.320366"
       cy="257.25781"
       r="3.5"
       transform="matrix(0,1,1,0,0,0)" /><circle
       style="font-variation-settings:normal;fill:none;fill-opacity:1;stroke:#00ff00;stroke-width:0.35277778;stroke-linecap:square;stroke-linejoin:miter;stroke-miterlimit:4;stroke-dasharray:none;stroke-dashoffset:0;stroke-opacity:1;paint-order:stroke fill markers;stop-color:#000000"
       id="circle19"
       cx="-142.92496"
       cy="256.8042"
       r="3.5"
       transform="rotate(-90)" /><circle
       style="font-variation-settings:normal;fill:none;fill-opacity:1;stroke:#00ff00;stroke-width:0.35277778;stroke-linecap:square;stroke-linejoin:miter;stroke-miterlimit:4;stroke-dasharray:none;stroke-dashoffset:0;stroke-opacity:1;paint-order:stroke fill markers;stop-color:#000000"
       id="circle20"
       cx="119.95354"
       cy="256.80835"
       r="3.5"
       transform="matrix(0,1,1,0,0,0)" /><circle
       style="font-variation-settings:normal;fill:none;fill-opacity:1;stroke:#00ff00;stroke-width:0.35277778;stroke-linecap:square;stroke-linejoin:miter;stroke-miterlimit:4;stroke-dasharray:none;stroke-dashoffset:0;stroke-opacity:1;paint-order:stroke fill markers;stop-color:#000000"
       id="circle21"
       cx="-131.43924"
       cy="256.80627"
       r="3.5"
       transform="rotate(-90)" /><circle
       style="font-variation-settings:normal;fill:none;fill-opacity:1;stroke:#00ff00;stroke-width:0.35277778;stroke-linecap:square;stroke-linejoin:miter;stroke-miterlimit:4;stroke-dasharray:none;stroke-dashoffset:0;stroke-opacity:1;paint-order:stroke fill markers;stop-color:#000000"
       id="circle22"
       cx="245.32056"
       cy="-131.43822"
       r="3.5"
       transform="scale(1,-1)" /><path
       id="path22"
       style="font-variation-settings:normal;fill:none;fill-opacity:1;stroke:#00ff00;stroke-width:0.35277778;stroke-linecap:square;stroke-linejoin:miter;stroke-miterlimit:4;stroke-dasharray:none;stroke-dashoffset:0;stroke-opacity:1;paint-order:stroke fill markers;stop-color:#000000"
       d="m 314.32941,191.68452 a 1.7,1.7 0 0 0 1.09451,1.5627 0.15243822,0.15243843 0 0 0 -0.0155,0.0672 0.15243822,0.15243843 0 0 0 0.15244,0.15244 0.15243822,0.15243843 0 0 0 0.005,-0.001 28.299999,28.299999 0 0 0 28.16365,26.51879 28.299999,28.299999 0 0 0 28.16263,-26.51724 0.15243822,0.15243843 0 0 0 0.031,0.004 0.15243822,0.15243843 0 0 0 0.15245,-0.15245 0.15243822,0.15243843 0 0 0 -0.0233,-0.0806 1.7,1.7 0 0 0 1.07694,-1.5534 1.7,1.7 0 0 0 -1.08831,-1.55908 0.15243822,0.15243843 0 0 0 0.0186,-0.0723 0.15243822,0.15243843 0 0 0 -0.15245,-0.15245 0.15243822,0.15243843 0 0 0 -0.015,0.001 28.299999,28.299999 0 0 0 -28.16263,-26.51724 28.299999,28.299999 0 0 0 -28.22876,26.5343 0.15243822,0.15243843 0 0 0 -0.0222,-0.002 0.15243822,0.15243843 0 0 0 -0.15245,0.15244 0.15243822,0.15243843 0 0 0 0.0357,0.0941 1.7,1.7 0 0 0 -1.0325,1.52084 z" /><path
       id="path23"
       style="font-variation-settings:normal;display:inline;fill:none;fill-opacity:1;stroke:#00ff00;stroke-width:0.35277778;stroke-linecap:square;stroke-linejoin:miter;stroke-miterlimit:4;stroke-dasharray:none;stroke-dashoffset:0;stroke-opacity:1;paint-order:stroke fill markers;stop-color:#000000"
       d="m 314.33294,270.07961 a 1.7,1.7 0 0 0 1.09451,1.5627 0.15243822,0.15243843 0 0 0 -0.0155,0.0672 0.15243822,0.15243843 0 0 0 0.15244,0.15244 0.15243822,0.15243843 0 0 0 0.005,-10e-4 28.299999,28.299999 0 0 0 28.16365,26.51879 28.299999,28.299999 0 0 0 28.16263,-26.51724 0.15243822,0.15243843 0 0 0 0.031,0.004 0.15243822,0.15243843 0 0 0 0.15245,-0.15245 0.15243822,0.15243843 0 0 0 -0.0233,-0.0806 1.7,1.7 0 0 0 1.07694,-1.5534 1.7,1.7 0 0 0 -1.08831,-1.55908 0.15243822,0.15243843 0 0 0 0.0186,-0.0723 0.15243822,0.15243843 0 0 0 -0.15245,-0.15245 0.15243822,0.15243843 0 0 0 -0.015,10e-4 28.299999,28.299999 0 0 0 -28.16263,-26.51724 28.299999,28.299999 0 0 0 -28.22876,26.5343 0.15243822,0.15243843 0 0 0 -0.0222,-0.002 0.15243822,0.15243843 0 0 0 -0.15245,0.15244 0.15243822,0.15243843 0 0 0 0.0357,0.0941 1.7,1.7 0 0 0 -1.0325,1.52084 z" /><path
       id="path24"
       style="font-variation-settings:normal;display:inline;fill:none;fill-opacity:1;stroke:#00ff00;stroke-width:0.35277778;stroke-linecap:square;stroke-linejoin:miter;stroke-miterlimit:4;stroke-dasharray:none;stroke-dashoffset:0;stroke-opacity:1;paint-order:stroke fill markers;stop-color:#000000"
       d="m 314.33294,113.28912 a 1.7,1.7 0 0 0 1.09451,1.5627 0.15243822,0.15243843 0 0 0 -0.0155,0.0672 0.15243822,0.15243843 0 0 0 0.15244,0.15244 0.15243822,0.15243843 0 0 0 0.005,-0.001 28.299999,28.299999 0 0 0 28.16365,26.51879 28.299999,28.299999 0 0 0 28.16263,-26.51724 0.15243822,0.15243843 0 0 0 0.031,0.004 0.15243822,0.15243843 0 0 0 0.15245,-0.15245 0.15243822,0.15243843 0 0 0 -0.0233,-0.0806 1.7,1.7 0 0 0 1.07694,-1.5534 1.7,1.7 0 0 0 -1.08831,-1.55908 0.15243822,0.15243843 0 0 0 0.0186,-0.0723 0.15243822,0.15243843 0 0 0 -0.15245,-0.15245 0.15243822,0.15243843 0 0 0 -0.015,0.001 28.299999,28.299999 0 0 0 -28.16263,-26.517239 28.299999,28.299999 0 0 0 -28.22876,26.534299 0.15243822,0.15243843 0 0 0 -0.0222,-0.002 0.15243822,0.15243843 0 0 0 -0.15245,0.15244 0.15243822,0.15243843 0 0 0 0.0357,0.0941 1.7,1.7 0 0 0 -1.0325,1.52084 z" /><path
       id="path25"
       style="font-variation-settings:normal;display:inline;fill:none;fill-opacity:1;stroke:#00ff00;stroke-width:0.35277778;stroke-linecap:square;stroke-linejoin:miter;stroke-miterlimit:4;stroke-dasharray:none;stroke-dashoffset:0;stroke-opacity:1;paint-order:stroke fill markers;stop-color:#000000"
       d="m 314.33294,34.893901 a 1.7,1.7 0 0 0 1.09451,1.5627 0.15243822,0.15243843 0 0 0 -0.0155,0.0672 0.15243822,0.15243843 0 0 0 0.15244,0.15244 0.15243822,0.15243843 0 0 0 0.005,-10e-4 28.299999,28.299999 0 0 0 28.16365,26.51879 28.299999,28.299999 0 0 0 28.16263,-26.51724 0.15243822,0.15243843 0 0 0 0.031,0.004 0.15243822,0.15243843 0 0 0 0.15245,-0.15245 0.15243822,0.15243843 0 0 0 -0.0233,-0.0806 1.7,1.7 0 0 0 1.07694,-1.5534 1.7,1.7 0 0 0 -1.08831,-1.55908 0.15243822,0.15243843 0 0 0 0.0186,-0.0723 0.15243822,0.15243843 0 0 0 -0.15245,-0.15245 0.15243822,0.15243843 0 0 0 -0.015,10e-4 28.299999,28.299999 0 0 0 -28.16263,-26.5172404 28.299999,28.299999 0 0 0 -28.22876,26.5343004 0.15243822,0.15243843 0 0 0 -0.0222,-0.002 0.15243822,0.15243843 0 0 0 -0.15245,0.15244 0.15243822,0.15243843 0 0 0 0.0357,0.0941 1.7,1.7 0 0 0 -1.0325,1.52084 z" /></g><g
     id="g53"
     style="stroke-width:0.35277778;stroke-dasharray:none"><rect
       style="font-variation-settings:normal;display:inline;fill:none;fill-opacity:1;stroke:#ff8000;stroke-width:0.35277778;stroke-linecap:square;stroke-linejoin:miter;stroke-miterlimit:4;stroke-dasharray:none;stroke-dashoffset:0;stroke-opacity:1;paint-order:stroke fill markers;stop-color:#000000"
       id="rect25"
       width="304.79999"
       height="194"
       x="-304.79999"
       y="5.4916682"
       transform="rotate(-90)" /><rect
       style="font-variation-settings:normal;fill:none;fill-opacity:1;stroke:#ff8000;stroke-width:0.35277778;stroke-linecap:square;stroke-linejoin:miter;stroke-miterlimit:4;stroke-dasharray:none;stroke-dashoffset:0;stroke-opacity:1;paint-order:stroke fill markers;stop-color:#000000"
       id="rect26"
       width="28"
       height="28"
       x="-76.4347"
       y="14.226852"
       transform="rotate(-90)" /><path
       id="path26"
       style="font-variation-settings:normal;fill:none;fill-opacity:1;stroke:#ff8000;stroke-width:0.35277778;stroke-linecap:square;stroke-linejoin:miter;stroke-miterlimit:4;stroke-dasharray:none;stroke-dashoffset:0;stroke-opacity:1;paint-order:stroke fill markers;stop-color:#000000"
       d="m 18.21055,79.875221 a 0.25,0.25 0 0 0 0.25011,0.2496 0.25,0.25 0 0 0 0.25011,-0.2496 0.25,0.25 0 0 0 0,-5.1e-4 h 0.99994 a 0.25,0.25 0 0 0 0,5.1e-4 0.25,0.25 0 0 0 0.25012,0.2496 0.25,0.25 0 0 0 0.25011,-0.2496 0.25,0.25 0 0 0 -0.25011,-0.25011 v -0.99994 a 0.25,0.25 0 0 0 0.25011,-0.25011 0.25,0.25 0 0 0 -0.25011,-0.25012 0.25,0.25 0 0 0 -0.25012,0.2496 h -0.99994 a 0.25,0.25 0 0 0 -0.25011,-0.2496 0.25,0.25 0 0 0 -0.25011,0.25012 0.25,0.25 0 0 0 0.25011,0.25011 0.25,0.25 0 0 0 5.2e-4,0 v 0.99994 a 0.25,0.25 0 0 0 -5.2e-4,0 0.25,0.25 0 0 0 -0.25011,0.25011 z" /><path
       id="path27"
       style="font-variation-settings:normal;fill:none;fill-opacity:1;stroke:#ff8000;stroke-width:0.35277778;stroke-linecap:square;stroke-linejoin:miter;stroke-miterlimit:4;stroke-dasharray:none;stroke-dashoffset:0;stroke-opacity:1;paint-order:stroke fill markers;stop-color:#000000"
       d="m 36.24276,79.875221 a 0.25,0.25 0 0 0 0.25011,0.2496 0.25,0.25 0 0 0 0.25011,-0.2496 0.25,0.25 0 0 0 0,-5.1e-4 h 0.99994 a 0.25,0.25 0 0 0 0,5.1e-4 0.25,0.25 0 0 0 0.25012,0.2496 0.25,0.25 0 0 0 0.25011,-0.2496 0.25,0.25 0 0 0 -0.25011,-0.25011 v -0.99994 a 0.25,0.25 0 0 0 0.25011,-0.25011 0.25,0.25 0 0 0 -0.25011,-0.25012 0.25,0.25 0 0 0 -0.25012,0.2496 h -0.99994 a 0.25,0.25 0 0 0 -0.25011,-0.2496 0.25,0.25 0 0 0 -0.25011,0.25012 0.25,0.25 0 0 0 0.25011,0.25011 0.25,0.25 0 0 0 5.2e-4,0 v 0.99994 a 0.25,0.25 0 0 0 -5.2e-4,0 0.25,0.25 0 0 0 -0.25011,0.25011 z" /><path
       id="path28"
       style="font-variation-settings:normal;fill:none;fill-opacity:1;stroke:#ff8000;stroke-width:0.35277778;stroke-linecap:square;stroke-linejoin:miter;stroke-miterlimit:4;stroke-dasharray:none;stroke-dashoffset:0;stroke-opacity:1;paint-order:stroke fill markers;stop-color:#000000"
       d="m 36.24276,46.494841 a 0.25,0.25 0 0 0 0.25011,0.2496 0.25,0.25 0 0 0 0.25011,-0.2496 0.25,0.25 0 0 0 0,-5.1e-4 h 0.99994 a 0.25,0.25 0 0 0 0,5.1e-4 0.25,0.25 0 0 0 0.25012,0.2496 0.25,0.25 0 0 0 0.25011,-0.2496 0.25,0.25 0 0 0 -0.25011,-0.25011 v -0.99994 a 0.25,0.25 0 0 0 0.25011,-0.25011 0.25,0.25 0 0 0 -0.25011,-0.25012 0.25,0.25 0 0 0 -0.25012,0.2496 h -0.99994 a 0.25,0.25 0 0 0 -0.25011,-0.2496 0.25,0.25 0 0 0 -0.25011,0.25012 0.25,0.25 0 0 0 0.25011,0.25011 0.25,0.25 0 0 0 5.2e-4,0 v 0.99994 a 0.25,0.25 0 0 0 -5.2e-4,0 0.25,0.25 0 0 0 -0.25011,0.25011 z" /><path
       id="path31"
       style="font-variation-settings:normal;fill:none;fill-opacity:1;stroke:#ff8000;stroke-width:0.35277778;stroke-linecap:square;stroke-linejoin:miter;stroke-miterlimit:4;stroke-dasharray:none;stroke-dashoffset:0;stroke-opacity:1;paint-order:stroke fill markers;stop-color:#000000"
       d="m 18.21055,46.494841 a 0.25,0.25 0 0 0 0.25011,0.2496 0.25,0.25 0 0 0 0.25011,-0.2496 0.25,0.25 0 0 0 0,-5.1e-4 h 0.99994 a 0.25,0.25 0 0 0 0,5.1e-4 0.25,0.25 0 0 0 0.25012,0.2496 0.25,0.25 0 0 0 0.25011,-0.2496 0.25,0.25 0 0 0 -0.25011,-0.25011 v -0.99994 a 0.25,0.25 0 0 0 0.25011,-0.25011 0.25,0.25 0 0 0 -0.25011,-0.25012 0.25,0.25 0 0 0 -0.25012,0.2496 h -0.99994 a 0.25,0.25 0 0 0 -0.25011,-0.2496 0.25,0.25 0 0 0 -0.25011,0.25012 0.25,0.25 0 0 0 0.25011,0.25011 0.25,0.25 0 0 0 5.2e-4,0 v 0.99994 a 0.25,0.25 0 0 0 -5.2e-4,0 0.25,0.25 0 0 0 -0.25011,0.25011 z" /><circle
       style="font-variation-settings:normal;fill:none;fill-opacity:1;stroke:#00ff00;stroke-width:0.35277778;stroke-linecap:square;stroke-linejoin:miter;stroke-miterlimit:4;stroke-dasharray:none;stroke-dashoffset:0;stroke-opacity:1;paint-order:stroke fill markers;stop-color:#000000"
       id="circle34"
       cx="-292.12469"
       cy="19.625313"
       r="2.4926522"
       transform="rotate(-90)" /><circle
       style="font-variation-settings:normal;fill:none;fill-opacity:1;stroke:#00ff00;stroke-width:0.35277778;stroke-linecap:square;stroke-linejoin:miter;stroke-miterlimit:4;stroke-dasharray:none;stroke-dashoffset:0;stroke-opacity:1;paint-order:stroke fill markers;stop-color:#000000"
       id="circle35"
       cx="-292.12469"
       cy="185.72951"
       r="2.4926522"
       transform="rotate(-90)" /><circle
       style="font-variation-settings:normal;fill:none;fill-opacity:1;stroke:#00ff00;stroke-width:0.35277778;stroke-linecap:square;stroke-linejoin:miter;stroke-miterlimit:4;stroke-dasharray:none;stroke-dashoffset:0;stroke-opacity:1;paint-order:stroke fill markers;stop-color:#000000"
       id="circle36"
       cx="-10.658525"
       cy="19.625313"
       r="2.4926522"
       transform="rotate(-90)" /><circle
       style="font-variation-settings:normal;fill:none;fill-opacity:1;stroke:#00ff00;stroke-width:0.35277778;stroke-linecap:square;stroke-linejoin:miter;stroke-miterlimit:4;stroke-dasharray:none;stroke-dashoffset:0;stroke-opacity:1;paint-order:stroke fill markers;stop-color:#000000"
       id="circle37"
       cx="-10.658525"
       cy="185.72951"
       r="2.4926522"
       transform="rotate(-90)" /><circle
       style="font-variation-settings:normal;fill:none;fill-opacity:1;stroke:#00ff00;stroke-width:0.35277778;stroke-linecap:square;stroke-linejoin:miter;stroke-miterlimit:4;stroke-dasharray:none;stroke-dashoffset:0;stroke-opacity:1;paint-order:stroke fill markers;stop-color:#000000"
       id="circle38"
       cx="-72.549004"
       cy="54.949474"
       r="3.5"
       transform="rotate(-90)" /><circle
       style="font-variation-settings:normal;fill:none;fill-opacity:1;stroke:#00ff00;stroke-width:0.35277778;stroke-linecap:square;stroke-linejoin:miter;stroke-miterlimit:4;stroke-dasharray:none;stroke-dashoffset:0;stroke-opacity:1;paint-order:stroke fill markers;stop-color:#000000"
       id="circle39"
       cx="-99.724899"
       cy="54.94949"
       r="3.5"
       transform="rotate(-90)" /><circle
       style="font-variation-settings:normal;fill:none;fill-opacity:1;stroke:#00ff00;stroke-width:0.35277778;stroke-linecap:square;stroke-linejoin:miter;stroke-miterlimit:4;stroke-dasharray:none;stroke-dashoffset:0;stroke-opacity:1;paint-order:stroke fill markers;stop-color:#000000"
       id="circle40"
       cx="-86.136955"
       cy="54.94949"
       r="3.5"
       transform="rotate(-90)" /><circle
       style="font-variation-settings:normal;fill:none;fill-opacity:1;stroke:#00ff00;stroke-width:0.35277778;stroke-linecap:square;stroke-linejoin:miter;stroke-miterlimit:4;stroke-dasharray:none;stroke-dashoffset:0;stroke-opacity:1;paint-order:stroke fill markers;stop-color:#000000"
       id="circle41"
       cx="25.144476"
       cy="54.94949"
       r="3.5"
       transform="matrix(0,1,1,0,0,0)" /><circle
       style="font-variation-settings:normal;fill:none;fill-opacity:1;stroke:#00ff00;stroke-width:0.35277778;stroke-linecap:square;stroke-linejoin:miter;stroke-miterlimit:4;stroke-dasharray:none;stroke-dashoffset:0;stroke-opacity:1;paint-order:stroke fill markers;stop-color:#000000"
       id="circle42"
       cx="38.73243"
       cy="54.94949"
       r="3.5"
       transform="matrix(0,1,1,0,0,0)" /><circle
       style="font-variation-settings:normal;fill:none;fill-opacity:1;stroke:#00ff00;stroke-width:0.35277778;stroke-linecap:square;stroke-linejoin:miter;stroke-miterlimit:4;stroke-dasharray:none;stroke-dashoffset:0;stroke-opacity:1;paint-order:stroke fill markers;stop-color:#000000"
       id="circle43"
       cx="52.320366"
       cy="54.949474"
       r="3.5"
       transform="matrix(0,1,1,0,0,0)" /><circle
       style="font-variation-settings:normal;fill:none;fill-opacity:1;stroke:#00ff00;stroke-width:0.35277778;stroke-linecap:square;stroke-linejoin:miter;stroke-miterlimit:4;stroke-dasharray:none;stroke-dashoffset:0;stroke-opacity:1;paint-order:stroke fill markers;stop-color:#000000"
       id="circle44"
       cx="-142.92496"
       cy="54.495876"
       r="3.5"
       transform="rotate(-90)" /><circle
       style="font-variation-settings:normal;fill:none;fill-opacity:1;stroke:#00ff00;stroke-width:0.35277778;stroke-linecap:square;stroke-linejoin:miter;stroke-miterlimit:4;stroke-dasharray:none;stroke-dashoffset:0;stroke-opacity:1;paint-order:stroke fill markers;stop-color:#000000"
       id="circle45"
       cx="119.95354"
       cy="54.500011"
       r="3.5"
       transform="matrix(0,1,1,0,0,0)" /><circle
       style="font-variation-settings:normal;fill:none;fill-opacity:1;stroke:#00ff00;stroke-width:0.35277778;stroke-linecap:square;stroke-linejoin:miter;stroke-miterlimit:4;stroke-dasharray:none;stroke-dashoffset:0;stroke-opacity:1;paint-order:stroke fill markers;stop-color:#000000"
       id="circle46"
       cx="-131.43924"
       cy="54.497952"
       r="3.5"
       transform="rotate(-90)" /><circle
       style="font-variation-settings:normal;fill:none;fill-opacity:1;stroke:#00ff00;stroke-width:0.35277778;stroke-linecap:square;stroke-linejoin:miter;stroke-miterlimit:4;stroke-dasharray:none;stroke-dashoffset:0;stroke-opacity:1;paint-order:stroke fill markers;stop-color:#000000"
       id="circle47"
       cx="43.012234"
       cy="-131.43822"
       r="3.5"
       transform="scale(1,-1)" /><g
       id="g16"
       style="stroke-width:0.35277778;stroke-dasharray:none"><path
         id="path47"
         style="font-variation-settings:normal;fill:none;fill-opacity:1;stroke:#00ff00;stroke-width:0.35277778;stroke-linecap:square;stroke-linejoin:miter;stroke-miterlimit:4;stroke-dasharray:none;stroke-dashoffset:0;stroke-opacity:1;paint-order:stroke fill markers;stop-color:#000000"
         d="m 112.02108,191.68452 a 1.7,1.7 0 0 0 1.09451,1.5627 0.15243822,0.15243843 0 0 0 -0.0155,0.0672 0.15243822,0.15243843 0 0 0 0.15244,0.15244 0.15243822,0.15243843 0 0 0 0.005,-0.001 28.299999,28.299999 0 0 0 28.16365,26.51879 28.299999,28.299999 0 0 0 28.16263,-26.51724 0.15243822,0.15243843 0 0 0 0.031,0.004 0.15243822,0.15243843 0 0 0 0.15245,-0.15245 0.15243822,0.15243843 0 0 0 -0.0233,-0.0806 1.7,1.7 0 0 0 1.07694,-1.5534 1.7,1.7 0 0 0 -1.08831,-1.55908 0.15243822,0.15243843 0 0 0 0.0186,-0.0723 0.15243822,0.15243843 0 0 0 -0.15245,-0.15245 0.15243822,0.15243843 0 0 0 -0.015,0.001 28.299999,28.299999 0 0 0 -28.16263,-26.51724 28.299999,28.299999 0 0 0 -28.22876,26.5343 0.15243822,0.15243843 0 0 0 -0.0222,-0.002 0.15243822,0.15243843 0 0 0 -0.15245,0.15244 0.15243822,0.15243843 0 0 0 0.0357,0.0941 1.7,1.7 0 0 0 -1.0325,1.52084 z" /><path
         id="path52"
         style="font-variation-settings:normal;display:inline;fill:none;fill-opacity:1;stroke:#00ff00;stroke-width:0.35277778;stroke-linecap:square;stroke-linejoin:miter;stroke-miterlimit:4;stroke-dasharray:none;stroke-dashoffset:0;stroke-opacity:1;paint-order:stroke fill markers;stop-color:#000000"
         d="m 112.02461,270.07961 a 1.7,1.7 0 0 0 1.09451,1.5627 0.15243822,0.15243843 0 0 0 -0.0155,0.0672 0.15243822,0.15243843 0 0 0 0.15244,0.15244 0.15243822,0.15243843 0 0 0 0.005,-10e-4 28.299999,28.299999 0 0 0 28.16365,26.51879 28.299999,28.299999 0 0 0 28.16263,-26.51724 0.15243822,0.15243843 0 0 0 0.031,0.004 0.15243822,0.15243843 0 0 0 0.15245,-0.15245 0.15243822,0.15243843 0 0 0 -0.0233,-0.0806 1.7,1.7 0 0 0 1.07694,-1.5534 1.7,1.7 0 0 0 -1.08831,-1.55908 0.15243822,0.15243843 0 0 0 0.0186,-0.0723 0.15243822,0.15243843 0 0 0 -0.15245,-0.15245 0.15243822,0.15243843 0 0 0 -0.015,10e-4 28.299999,28.299999 0 0 0 -28.16263,-26.51724 28.299999,28.299999 0 0 0 -28.22876,26.5343 0.15243822,0.15243843 0 0 0 -0.0222,-0.002 0.15243822,0.15243843 0 0 0 -0.15245,0.15244 0.15243822,0.15243843 0 0 0 0.0357,0.0941 1.7,1.7 0 0 0 -1.0325,1.52084 z" /><path
         id="path53"
         style="font-variation-settings:normal;display:inline;fill:none;fill-opacity:1;stroke:#00ff00;stroke-width:0.35277778;stroke-linecap:square;stroke-linejoin:miter;stroke-miterlimit:4;stroke-dasharray:none;stroke-dashoffset:0;stroke-opacity:1;paint-order:stroke fill markers;stop-color:#000000"
         d="m 112.02461,113.28912 a 1.7,1.7 0 0 0 1.09451,1.5627 0.15243822,0.15243843 0 0 0 -0.0155,0.0672 0.15243822,0.15243843 0 0 0 0.15244,0.15244 0.15243822,0.15243843 0 0 0 0.005,-0.001 28.299999,28.299999 0 0 0 28.16365,26.51879 28.299999,28.299999 0 0 0 28.16263,-26.51724 0.15243822,0.15243843 0 0 0 0.031,0.004 0.15243822,0.15243843 0 0 0 0.15245,-0.15245 0.15243822,0.15243843 0 0 0 -0.0233,-0.0806 1.7,1.7 0 0 0 1.07694,-1.5534 1.7,1.7 0 0 0 -1.08831,-1.55908 0.15243822,0.15243843 0 0 0 0.0186,-0.0723 0.15243822,0.15243843 0 0 0 -0.15245,-0.15245 0.15243822,0.15243843 0 0 0 -0.015,0.001 28.299999,28.299999 0 0 0 -28.16263,-26.517239 28.299999,28.299999 0 0 0 -28.22876,26.534299 0.15243822,0.15243843 0 0 0 -0.0222,-0.002 0.15243822,0.15243843 0 0 0 -0.15245,0.15244 0.15243822,0.15243843 0 0 0 0.0357,0.0941 1.7,1.7 0 0 0 -1.0325,1.52084 z" /><path
         id="path54"
         style="font-variation-settings:normal;display:inline;fill:none;fill-opacity:1;stroke:#00ff00;stroke-width:0.35277778;stroke-linecap:square;stroke-linejoin:miter;stroke-miterlimit:4;stroke-dasharray:none;stroke-dashoffset:0;stroke-opacity:1;paint-order:stroke fill markers;stop-color:#000000"
         d="m 112.02461,34.893901 a 1.7,1.7 0 0 0 1.09451,1.5627 0.15243822,0.15243843 0 0 0 -0.0155,0.0672 0.15243822,0.15243843 0 0 0 0.15244,0.15244 0.15243822,0.15243843 0 0 0 0.005,-10e-4 28.299999,28.299999 0 0 0 28.16365,26.51879 28.299999,28.299999 0 0 0 28.16263,-26.51724 0.15243822,0.15243843 0 0 0 0.031,0.004 0.15243822,0.15243843 0 0 0 0.15245,-0.15245 0.15243822,0.15243843 0 0 0 -0.0233,-0.0806 1.7,1.7 0 0 0 1.07694,-1.5534 1.7,1.7 0 0 0 -1.08831,-1.55908 0.15243822,0.15243843 0 0 0 0.0186,-0.0723 0.15243822,0.15243843 0 0 0 -0.15245,-0.15245 0.15243822,0.15243843 0 0 0 -0.015,10e-4 28.299999,28.299999 0 0 0 -28.16263,-26.5172404 28.299999,28.299999 0 0 0 -28.22876,26.5343004 0.15243822,0.15243843 0 0 0 -0.0222,-0.002 0.15243822,0.15243843 0 0 0 -0.15245,0.15244 0.15243822,0.15243843 0 0 0 0.0357,0.0941 1.7,1.7 0 0 0 -1.0325,1.52084 z" /></g></g></svg>
