<?xml version="1.0" encoding="UTF-8" standalone="no"?>
<!-- Created with Inkscape (http://www.inkscape.org/) -->

<svg
   width="14in"
   height="8.5in"
   viewBox="0 0 355.6 215.9"
   version="1.1"
   id="svg1"
   xml:space="preserve"
   inkscape:version="1.3.2 (091e20e, 2023-11-25, custom)"
   sodipodi:docname="Miku_Panel_ART.svg"
   xmlns:inkscape="http://www.inkscape.org/namespaces/inkscape"
   xmlns:sodipodi="http://sodipodi.sourceforge.net/DTD/sodipodi-0.dtd"
   xmlns="http://www.w3.org/2000/svg"
   xmlns:svg="http://www.w3.org/2000/svg"
   xmlns:rdf="http://www.w3.org/1999/02/22-rdf-syntax-ns#"
   xmlns:cc="http://creativecommons.org/ns#"
   xmlns:dc="http://purl.org/dc/elements/1.1/"><title
     id="title3192">SVG Image created as MPR121-Breakout-F_Cu.svg date 2024/11/12 20:38:25 </title><sodipodi:namedview
     id="namedview1"
     pagecolor="#ffffff"
     bordercolor="#666666"
     borderopacity="1.0"
     inkscape:showpageshadow="2"
     inkscape:pageopacity="0.0"
     inkscape:pagecheckerboard="0"
     inkscape:deskcolor="#d1d1d1"
     inkscape:document-units="mm"
     inkscape:zoom="1.0507525"
     inkscape:cx="1396.1423"
     inkscape:cy="388.769"
     inkscape:window-width="5104"
     inkscape:window-height="1401"
     inkscape:window-x="0"
     inkscape:window-y="0"
     inkscape:window-maximized="0"
     inkscape:current-layer="layer1"
     showgrid="false"><inkscape:page
       x="0"
       y="0"
       width="355.60001"
       height="215.89999"
       id="page1"
       margin="0"
       bleed="0" /></sodipodi:namedview><defs
     id="defs1"><clipPath
       clipPathUnits="userSpaceOnUse"
       id="clipPath1610"><rect
         style="fill:#00ffff;stroke-width:0.940729;paint-order:stroke fill markers"
         id="rect1611"
         width="308"
         height="194"
         x="1.2874603e-06"
         y="0.44448191" /></clipPath><clipPath
       clipPathUnits="userSpaceOnUse"
       id="clipPath1610-1"><rect
         style="fill:#00ffff;stroke-width:0.940729;paint-order:stroke fill markers"
         id="rect1611-7"
         width="308"
         height="194"
         x="1.2874603e-06"
         y="0.44448191" /></clipPath></defs><g
     inkscape:label="Layer 1"
     inkscape:groupmode="layer"
     id="layer1"
     transform="translate(-317.96253)"><g
       id="g3207"
       transform="translate(342.46772,-194.98465)"><circle
         style="font-variation-settings:normal;opacity:1;vector-effect:none;fill:none;fill-opacity:1;stroke:#ff0000;stroke-width:0.1;stroke-linecap:square;stroke-linejoin:miter;stroke-miterlimit:4;stroke-dasharray:none;stroke-dashoffset:0;stroke-opacity:1;-inkscape-stroke:none;paint-order:stroke fill markers;stop-color:#000000;stop-opacity:1"
         id="circle3198"
         cx="233.25826"
         cy="236.42189"
         r="3.5" /><circle
         style="font-variation-settings:normal;opacity:1;vector-effect:none;fill:none;fill-opacity:1;stroke:#ff0000;stroke-width:0.1;stroke-linecap:square;stroke-linejoin:miter;stroke-miterlimit:4;stroke-dasharray:none;stroke-dashoffset:0;stroke-opacity:1;-inkscape-stroke:none;paint-order:stroke fill markers;stop-color:#000000;stop-opacity:1"
         id="circle3199"
         cx="206.08235"
         cy="236.42191"
         r="3.5" /><circle
         style="font-variation-settings:normal;opacity:1;vector-effect:none;fill:none;fill-opacity:1;stroke:#ff0000;stroke-width:0.1;stroke-linecap:square;stroke-linejoin:miter;stroke-miterlimit:4;stroke-dasharray:none;stroke-dashoffset:0;stroke-opacity:1;-inkscape-stroke:none;paint-order:stroke fill markers;stop-color:#000000;stop-opacity:1"
         id="circle3200"
         cx="219.6703"
         cy="236.42191"
         r="3.5" /><circle
         style="font-variation-settings:normal;opacity:1;vector-effect:none;fill:none;fill-opacity:1;stroke:#ff0000;stroke-width:0.1;stroke-linecap:square;stroke-linejoin:miter;stroke-miterlimit:4;stroke-dasharray:none;stroke-dashoffset:0;stroke-opacity:1;-inkscape-stroke:none;paint-order:stroke fill markers;stop-color:#000000;stop-opacity:1"
         id="circle3201"
         cx="-280.66278"
         cy="236.42191"
         r="3.5"
         transform="scale(-1,1)" /><circle
         style="font-variation-settings:normal;opacity:1;vector-effect:none;fill:none;fill-opacity:1;stroke:#ff0000;stroke-width:0.1;stroke-linecap:square;stroke-linejoin:miter;stroke-miterlimit:4;stroke-dasharray:none;stroke-dashoffset:0;stroke-opacity:1;-inkscape-stroke:none;paint-order:stroke fill markers;stop-color:#000000;stop-opacity:1"
         id="circle3202"
         cx="-267.07483"
         cy="236.42191"
         r="3.5"
         transform="scale(-1,1)" /><circle
         style="font-variation-settings:normal;opacity:1;vector-effect:none;fill:none;fill-opacity:1;stroke:#ff0000;stroke-width:0.1;stroke-linecap:square;stroke-linejoin:miter;stroke-miterlimit:4;stroke-dasharray:none;stroke-dashoffset:0;stroke-opacity:1;-inkscape-stroke:none;paint-order:stroke fill markers;stop-color:#000000;stop-opacity:1"
         id="circle3203"
         cx="-253.48689"
         cy="236.42189"
         r="3.5"
         transform="scale(-1,1)" /><circle
         style="font-variation-settings:normal;vector-effect:none;fill:none;fill-opacity:1;stroke:#ff0000;stroke-width:0.1;stroke-linecap:square;stroke-linejoin:miter;stroke-miterlimit:4;stroke-dasharray:none;stroke-dashoffset:0;stroke-opacity:1;-inkscape-stroke:none;paint-order:stroke fill markers;stop-color:#000000"
         id="circle3204"
         cx="162.88229"
         cy="235.96829"
         r="3.5" /><circle
         style="font-variation-settings:normal;opacity:1;vector-effect:none;fill:none;fill-opacity:1;stroke:#ff0000;stroke-width:0.1;stroke-linecap:square;stroke-linejoin:miter;stroke-miterlimit:4;stroke-dasharray:none;stroke-dashoffset:0;stroke-opacity:1;-inkscape-stroke:none;paint-order:stroke fill markers;stop-color:#000000;stop-opacity:1"
         id="circle3205"
         cx="-185.85371"
         cy="235.97243"
         r="3.5"
         transform="scale(-1,1)" /><circle
         style="font-variation-settings:normal;opacity:1;vector-effect:none;fill:none;fill-opacity:1;stroke:#ff0000;stroke-width:0.1;stroke-linecap:square;stroke-linejoin:miter;stroke-miterlimit:4;stroke-dasharray:none;stroke-dashoffset:0;stroke-opacity:1;-inkscape-stroke:none;paint-order:stroke fill markers;stop-color:#000000;stop-opacity:1"
         id="circle3206"
         cx="174.36801"
         cy="235.97037"
         r="3.5" /><circle
         style="font-variation-settings:normal;opacity:1;vector-effect:none;fill:none;fill-opacity:1;stroke:#ff0000;stroke-width:0.1;stroke-linecap:square;stroke-linejoin:miter;stroke-miterlimit:4;stroke-dasharray:none;stroke-dashoffset:0;stroke-opacity:1;-inkscape-stroke:none;paint-order:stroke fill markers;stop-color:#000000;stop-opacity:1"
         id="circle3207"
         cx="224.48465"
         cy="174.36903"
         r="3.5"
         transform="matrix(0,1,1,0,0,0)" /></g><g
       id="g3211"
       transform="translate(341.80038,10.949999)"><circle
         style="font-variation-settings:normal;vector-effect:none;fill:none;fill-opacity:1;stroke:#ff0000;stroke-width:0.1;stroke-linecap:square;stroke-linejoin:miter;stroke-miterlimit:4;stroke-dasharray:none;stroke-dashoffset:0;stroke-opacity:1;-inkscape-stroke:none;paint-order:stroke fill markers;stop-color:#000000"
         id="circle3208"
         cx="14.350291"
         cy="14.133607"
         r="2.4926522" /><circle
         style="font-variation-settings:normal;vector-effect:none;fill:none;fill-opacity:1;stroke:#ff0000;stroke-width:0.1;stroke-linecap:square;stroke-linejoin:miter;stroke-miterlimit:4;stroke-dasharray:none;stroke-dashoffset:0;stroke-opacity:1;-inkscape-stroke:none;paint-order:stroke fill markers;stop-color:#000000"
         id="circle3209"
         cx="14.350291"
         cy="180.23776"
         r="2.4926522" /><circle
         style="font-variation-settings:normal;vector-effect:none;fill:none;fill-opacity:1;stroke:#ff0000;stroke-width:0.1;stroke-linecap:square;stroke-linejoin:miter;stroke-miterlimit:4;stroke-dasharray:none;stroke-dashoffset:0;stroke-opacity:1;-inkscape-stroke:none;paint-order:stroke fill markers;stop-color:#000000"
         id="circle3210"
         cx="295.81638"
         cy="14.133607"
         r="2.4926522" /><circle
         style="font-variation-settings:normal;vector-effect:none;fill:none;fill-opacity:1;stroke:#ff0000;stroke-width:0.1;stroke-linecap:square;stroke-linejoin:miter;stroke-miterlimit:4;stroke-dasharray:none;stroke-dashoffset:0;stroke-opacity:1;-inkscape-stroke:none;paint-order:stroke fill markers;stop-color:#000000"
         id="circle3211"
         cx="295.81638"
         cy="180.23776"
         r="2.4926522" /></g><g
       id="g3214"
       transform="translate(23.066671,10.949999)"><path
         id="path3211"
         style="font-variation-settings:normal;vector-effect:none;fill:none;fill-opacity:1;stroke:#ff0000;stroke-width:0.1;stroke-linecap:square;stroke-linejoin:miter;stroke-miterlimit:4;stroke-dasharray:none;stroke-dashoffset:0;stroke-opacity:1;-inkscape-stroke:none;paint-order:stroke fill markers;stop-color:#000000"
         d="m 355.12843,106.52934 a 1.7,1.7 0 0 0 -1.62987,1.21646 28.299999,28.299999 0 0 0 -26.67021,28.18381 28.299999,28.299999 0 0 0 26.67021,28.18329 1.7,1.7 0 0 0 1.62987,1.21647 1.7,1.7 0 0 0 1.62936,-1.21647 28.299999,28.299999 0 0 0 26.67072,-28.18329 28.299999,28.299999 0 0 0 -26.69191,-28.24995 1.7,1.7 0 0 0 -1.60817,-1.15032 z" /><path
         id="path3212"
         style="font-variation-settings:normal;vector-effect:none;fill:none;fill-opacity:1;stroke:#ff0000;stroke-width:0.1;stroke-linecap:square;stroke-linejoin:miter;stroke-miterlimit:4;stroke-dasharray:none;stroke-dashoffset:0;stroke-opacity:1;-inkscape-stroke:none;paint-order:stroke fill markers;stop-color:#000000"
         d="m 433.52367,106.52934 a 1.7,1.7 0 0 0 -1.62987,1.21646 28.299999,28.299999 0 0 0 -26.67021,28.18381 28.299999,28.299999 0 0 0 26.67021,28.18329 1.7,1.7 0 0 0 1.62987,1.21647 1.7,1.7 0 0 0 1.62936,-1.21647 28.299999,28.299999 0 0 0 26.67072,-28.18329 28.299999,28.299999 0 0 0 -26.69191,-28.24995 1.7,1.7 0 0 0 -1.60817,-1.15032 z" /><path
         id="path3213"
         style="font-variation-settings:normal;vector-effect:none;fill:none;fill-opacity:1;stroke:#ff0000;stroke-width:0.1;stroke-linecap:square;stroke-linejoin:miter;stroke-miterlimit:4;stroke-dasharray:none;stroke-dashoffset:0;stroke-opacity:1;-inkscape-stroke:none;paint-order:stroke fill markers;stop-color:#000000"
         d="m 511.91891,106.52934 a 1.7,1.7 0 0 0 -1.62987,1.21646 28.299999,28.299999 0 0 0 -26.6702,28.18381 28.299999,28.299999 0 0 0 26.6702,28.18329 1.7,1.7 0 0 0 1.62987,1.21647 1.7,1.7 0 0 0 1.62936,-1.21647 28.299999,28.299999 0 0 0 26.67072,-28.18329 28.299999,28.299999 0 0 0 -26.69191,-28.24995 1.7,1.7 0 0 0 -1.60817,-1.15032 z" /><path
         id="path3214"
         style="font-variation-settings:normal;vector-effect:none;fill:none;fill-opacity:1;stroke:#ff0000;stroke-width:0.1;stroke-linecap:square;stroke-linejoin:miter;stroke-miterlimit:4;stroke-dasharray:none;stroke-dashoffset:0;stroke-opacity:1;-inkscape-stroke:none;paint-order:stroke fill markers;stop-color:#000000"
         d="m 590.31413,106.52934 a 1.7,1.7 0 0 0 -1.62987,1.21646 28.299999,28.299999 0 0 0 -26.6702,28.18381 28.299999,28.299999 0 0 0 26.6702,28.18329 1.7,1.7 0 0 0 1.62987,1.21647 1.7,1.7 0 0 0 1.62936,-1.21647 28.299999,28.299999 0 0 0 26.67072,-28.18329 28.299999,28.299999 0 0 0 -26.69191,-28.24995 1.7,1.7 0 0 0 -1.60817,-1.15032 z" /></g><rect
       style="font-variation-settings:normal;opacity:1;vector-effect:none;fill:none;fill-opacity:1;stroke:#ff0000;stroke-width:0.1;stroke-linecap:square;stroke-linejoin:miter;stroke-miterlimit:4;stroke-dasharray:none;stroke-dashoffset:0;stroke-opacity:1;-inkscape-stroke:none;paint-order:stroke fill markers;stop-color:#000000;stop-opacity:1"
       id="rect5"
       width="307.89999"
       height="193.89999"
       x="341.81253"
       y="11" /></g><metadata
     id="metadata3192"><rdf:RDF><cc:Work
         rdf:about=""><dc:title>SVG Image created as MPR121-Breakout-F_Cu.svg date 2024/11/12 20:38:25 </dc:title></cc:Work></rdf:RDF></metadata></svg>
