<?xml version="1.0" encoding="UTF-8" standalone="no"?>
<!-- Created with Inkscape (http://www.inkscape.org/) -->

<svg
   width="16in"
   height="12in"
   viewBox="0 0 406.39999 304.80001"
   version="1.1"
   id="svg1"
   xml:space="preserve"
   sodipodi:docname="Miku_Panel_16x12_B.svg"
   inkscape:version="1.3.2 (091e20e, 2023-11-25, custom)"
   xmlns:inkscape="http://www.inkscape.org/namespaces/inkscape"
   xmlns:sodipodi="http://sodipodi.sourceforge.net/DTD/sodipodi-0.dtd"
   xmlns="http://www.w3.org/2000/svg"
   xmlns:svg="http://www.w3.org/2000/svg"
   xmlns:rdf="http://www.w3.org/1999/02/22-rdf-syntax-ns#"
   xmlns:cc="http://creativecommons.org/ns#"
   xmlns:dc="http://purl.org/dc/elements/1.1/"><sodipodi:namedview
     id="namedview1"
     pagecolor="#ffffff"
     bordercolor="#666666"
     borderopacity="1.0"
     inkscape:showpageshadow="2"
     inkscape:pageopacity="0.0"
     inkscape:pagecheckerboard="0"
     inkscape:deskcolor="#d1d1d1"
     inkscape:document-units="mm"
     inkscape:zoom="0.70710678"
     inkscape:cx="890.95454"
     inkscape:cy="526.79455"
     inkscape:window-width="2560"
     inkscape:window-height="1417"
     inkscape:window-x="-8"
     inkscape:window-y="-8"
     inkscape:window-maximized="1"
     inkscape:current-layer="svg1" /><title
     id="title3192">SVG Image created as MPR121-Breakout-F_Cu.svg date 2024/11/12 20:38:25 </title><defs
     id="defs1" /><metadata
     id="metadata3192"><rdf:RDF><cc:Work
         rdf:about=""><dc:title>SVG Image created as MPR121-Breakout-F_Cu.svg date 2024/11/12 20:38:25 </dc:title></cc:Work></rdf:RDF></metadata><g
     id="g54"
     transform="translate(-2.5599602,-3.7417635)"
     style="stroke-width:0.03527778;stroke-dasharray:none;stroke:#000000"><g
       id="g1"
       transform="translate(-49.017231,12.72203)"><circle
         style="font-variation-settings:normal;display:inline;fill:none;fill-opacity:1;stroke:#000000;stroke-width:0.0352778;stroke-linecap:square;stroke-linejoin:miter;stroke-miterlimit:4;stroke-dasharray:none;stroke-dashoffset:0;stroke-opacity:1;paint-order:stroke fill markers;stop-color:#000000"
         id="circle83"
         cx="259.55627"
         cy="-244.9576"
         r="30.977749"
         transform="rotate(90)" /><path
         id="path16"
         style="font-variation-settings:normal;fill:none;fill-opacity:1;stroke:#000000;stroke-width:0.0352778;stroke-linecap:square;stroke-linejoin:miter;stroke-miterlimit:4;stroke-dasharray:none;stroke-dashoffset:0;stroke-opacity:1;paint-order:stroke fill markers;stop-color:#000000"
         d="m 166.47544,230.15806 a 1.7,1.7 0 0 0 -1.5627,1.09451 0.15243843,0.15243822 0 0 0 -0.0672,-0.0155 0.15243843,0.15243822 0 0 0 -0.15244,0.15244 0.15243843,0.15243822 0 0 0 0.001,0.005 28.299999,28.299999 0 0 0 -26.51879,28.16365 28.299999,28.299999 0 0 0 26.51724,28.16263 0.15243843,0.15243822 0 0 0 -0.004,0.031 0.15243843,0.15243822 0 0 0 0.15245,0.15245 0.15243843,0.15243822 0 0 0 0.0806,-0.0233 1.7,1.7 0 0 0 1.5534,1.07694 1.7,1.7 0 0 0 1.55908,-1.08831 0.15243843,0.15243822 0 0 0 0.0723,0.0186 0.15243843,0.15243822 0 0 0 0.15245,-0.15245 0.15243843,0.15243822 0 0 0 -10e-4,-0.015 28.299999,28.299999 0 0 0 26.51724,-28.16263 28.299999,28.299999 0 0 0 -26.5343,-28.22876 0.15243843,0.15243822 0 0 0 0.002,-0.0222 0.15243843,0.15243822 0 0 0 -0.15244,-0.15245 0.15243843,0.15243822 0 0 0 -0.0941,0.0357 1.7,1.7 0 0 0 -1.52084,-1.0325 z" /><path
         id="path17"
         style="font-variation-settings:normal;display:inline;fill:none;fill-opacity:1;stroke:#000000;stroke-width:0.0352778;stroke-linecap:square;stroke-linejoin:miter;stroke-miterlimit:4;stroke-dasharray:none;stroke-dashoffset:0;stroke-opacity:1;paint-order:stroke fill markers;stop-color:#000000"
         d="m 88.08035,230.16159 a 1.7,1.7 0 0 0 -1.5627,1.09451 0.15243843,0.15243822 0 0 0 -0.0672,-0.0155 0.15243843,0.15243822 0 0 0 -0.15244,0.15244 0.15243843,0.15243822 0 0 0 10e-4,0.005 28.299999,28.299999 0 0 0 -26.51879,28.16365 28.299999,28.299999 0 0 0 26.51724,28.16263 0.15243843,0.15243822 0 0 0 -0.004,0.031 0.15243843,0.15243822 0 0 0 0.15245,0.15245 0.15243843,0.15243822 0 0 0 0.0806,-0.0233 1.7,1.7 0 0 0 1.5534,1.07694 1.7,1.7 0 0 0 1.55908,-1.08831 0.15243843,0.15243822 0 0 0 0.0723,0.0186 0.15243843,0.15243822 0 0 0 0.15245,-0.15245 0.15243843,0.15243822 0 0 0 -0.001,-0.015 28.299999,28.299999 0 0 0 26.51724,-28.16263 28.299999,28.299999 0 0 0 -26.5343,-28.22876 0.15243843,0.15243822 0 0 0 0.002,-0.0222 0.15243843,0.15243822 0 0 0 -0.15244,-0.15245 0.15243843,0.15243822 0 0 0 -0.0941,0.0357 1.7,1.7 0 0 0 -1.52084,-1.0325 z" /><g
         id="g20"
         transform="rotate(90,168.7164,189.44356)"
         style="stroke:#000000;stroke-width:0.0352778;stroke-dasharray:none"><path
           id="path250"
           style="font-variation-settings:normal;fill:none;fill-opacity:1;stroke:#000000;stroke-width:0.0352778;stroke-linecap:square;stroke-linejoin:miter;stroke-miterlimit:4;stroke-dasharray:none;stroke-dashoffset:0;stroke-opacity:1;paint-order:stroke fill markers;stop-color:#000000"
           d="m 229.34063,130.64288 a 0.25,0.25 0 0 0 0.25011,0.2496 0.25,0.25 0 0 0 0.25011,-0.2496 0.25,0.25 0 0 0 0,-5.1e-4 h 0.99994 a 0.25,0.25 0 0 0 0,5.1e-4 0.25,0.25 0 0 0 0.25012,0.2496 0.25,0.25 0 0 0 0.25011,-0.2496 0.25,0.25 0 0 0 -0.25011,-0.25011 v -0.99994 a 0.25,0.25 0 0 0 0.25011,-0.25011 0.25,0.25 0 0 0 -0.25011,-0.25012 0.25,0.25 0 0 0 -0.25012,0.2496 h -0.99994 a 0.25,0.25 0 0 0 -0.25011,-0.2496 0.25,0.25 0 0 0 -0.25011,0.25012 0.25,0.25 0 0 0 0.25011,0.25011 0.25,0.25 0 0 0 5.2e-4,0 v 0.99994 a 0.25,0.25 0 0 0 -5.2e-4,0 0.25,0.25 0 0 0 -0.25011,0.25011 z" /><path
           id="path251"
           style="font-variation-settings:normal;fill:none;fill-opacity:1;stroke:#000000;stroke-width:0.0352778;stroke-linecap:square;stroke-linejoin:miter;stroke-miterlimit:4;stroke-dasharray:none;stroke-dashoffset:0;stroke-opacity:1;paint-order:stroke fill markers;stop-color:#000000"
           d="m 247.37284,130.64288 a 0.25,0.25 0 0 0 0.25011,0.2496 0.25,0.25 0 0 0 0.25011,-0.2496 0.25,0.25 0 0 0 0,-5.1e-4 h 0.99994 a 0.25,0.25 0 0 0 0,5.1e-4 0.25,0.25 0 0 0 0.25012,0.2496 0.25,0.25 0 0 0 0.25011,-0.2496 0.25,0.25 0 0 0 -0.25011,-0.25011 v -0.99994 a 0.25,0.25 0 0 0 0.25011,-0.25011 0.25,0.25 0 0 0 -0.25011,-0.25012 0.25,0.25 0 0 0 -0.25012,0.2496 h -0.99994 a 0.25,0.25 0 0 0 -0.25011,-0.2496 0.25,0.25 0 0 0 -0.25011,0.25012 0.25,0.25 0 0 0 0.25011,0.25011 0.25,0.25 0 0 0 5.2e-4,0 v 0.99994 a 0.25,0.25 0 0 0 -5.2e-4,0 0.25,0.25 0 0 0 -0.25011,0.25011 z" /><path
           id="path252"
           style="font-variation-settings:normal;fill:none;fill-opacity:1;stroke:#000000;stroke-width:0.0352778;stroke-linecap:square;stroke-linejoin:miter;stroke-miterlimit:4;stroke-dasharray:none;stroke-dashoffset:0;stroke-opacity:1;paint-order:stroke fill markers;stop-color:#000000"
           d="m 247.37284,97.262498 a 0.25,0.25 0 0 0 0.25011,0.2496 0.25,0.25 0 0 0 0.25011,-0.2496 0.25,0.25 0 0 0 0,-5.1e-4 h 0.99994 a 0.25,0.25 0 0 0 0,5.1e-4 0.25,0.25 0 0 0 0.25012,0.2496 0.25,0.25 0 0 0 0.25011,-0.2496 0.25,0.25 0 0 0 -0.25011,-0.25011 v -0.99994 a 0.25,0.25 0 0 0 0.25011,-0.25011 0.25,0.25 0 0 0 -0.25011,-0.25012 0.25,0.25 0 0 0 -0.25012,0.2496 h -0.99994 a 0.25,0.25 0 0 0 -0.25011,-0.2496 0.25,0.25 0 0 0 -0.25011,0.25012 0.25,0.25 0 0 0 0.25011,0.25011 0.25,0.25 0 0 0 5.2e-4,0 v 0.99994 a 0.25,0.25 0 0 0 -5.2e-4,0 0.25,0.25 0 0 0 -0.25011,0.25011 z" /><path
           id="path253"
           style="font-variation-settings:normal;fill:none;fill-opacity:1;stroke:#000000;stroke-width:0.0352778;stroke-linecap:square;stroke-linejoin:miter;stroke-miterlimit:4;stroke-dasharray:none;stroke-dashoffset:0;stroke-opacity:1;paint-order:stroke fill markers;stop-color:#000000"
           d="m 229.34063,97.262498 a 0.25,0.25 0 0 0 0.25011,0.2496 0.25,0.25 0 0 0 0.25011,-0.2496 0.25,0.25 0 0 0 0,-5.1e-4 h 0.99994 a 0.25,0.25 0 0 0 0,5.1e-4 0.25,0.25 0 0 0 0.25012,0.2496 0.25,0.25 0 0 0 0.25011,-0.2496 0.25,0.25 0 0 0 -0.25011,-0.25011 v -0.99994 a 0.25,0.25 0 0 0 0.25011,-0.25011 0.25,0.25 0 0 0 -0.25011,-0.25012 0.25,0.25 0 0 0 -0.25012,0.2496 h -0.99994 a 0.25,0.25 0 0 0 -0.25011,-0.2496 0.25,0.25 0 0 0 -0.25011,0.25012 0.25,0.25 0 0 0 0.25011,0.25011 0.25,0.25 0 0 0 5.2e-4,0 v 0.99994 a 0.25,0.25 0 0 0 -5.2e-4,0 0.25,0.25 0 0 0 -0.25011,0.25011 z" /><rect
           style="font-variation-settings:normal;fill:none;fill-opacity:1;stroke:#000000;stroke-width:0.0352778;stroke-linecap:square;stroke-linejoin:miter;stroke-miterlimit:4;stroke-dasharray:none;stroke-dashoffset:0;stroke-opacity:1;paint-order:stroke fill markers;stop-color:#000000"
           id="rect253"
           width="39.474102"
           height="34.731472"
           x="-132.93941"
           y="221.99121"
           transform="rotate(-90)" /><path
           id="path254"
           style="font-variation-settings:normal;fill:none;fill-opacity:1;stroke:#000000;stroke-width:0.0352778;stroke-linecap:square;stroke-linejoin:miter;stroke-miterlimit:4;stroke-dasharray:none;stroke-dashoffset:0;stroke-opacity:1;paint-order:stroke fill markers;stop-color:#000000"
           d="m 217.93166,102.62977 v 2.24999 h -3.00033 v 1.50017 h 3.00033 v 2.24999 h 1.49965 v -6.00015 z" /><path
           id="path255"
           style="font-variation-settings:normal;fill:none;fill-opacity:1;stroke:#000000;stroke-width:0.0352778;stroke-linecap:square;stroke-linejoin:miter;stroke-miterlimit:4;stroke-dasharray:none;stroke-dashoffset:0;stroke-opacity:1;paint-order:stroke fill markers;stop-color:#000000"
           d="m 217.93166,117.77481 v 2.24999 h -3.00033 v 1.50017 h 3.00033 v 2.24999 h 1.49965 v -6.00015 z" /><path
           id="path256"
           style="font-variation-settings:normal;fill:none;fill-opacity:1;stroke:#000000;stroke-width:0.0352778;stroke-linecap:square;stroke-linejoin:miter;stroke-miterlimit:4;stroke-dasharray:none;stroke-dashoffset:0;stroke-opacity:1;paint-order:stroke fill markers;stop-color:#000000"
           d="m 259.7266,102.62977 v 2.24999 h 3.00033 v 1.50017 h -3.00033 v 2.24999 h -1.49965 v -6.00015 z" /><path
           id="path257"
           style="font-variation-settings:normal;fill:none;fill-opacity:1;stroke:#000000;stroke-width:0.0352778;stroke-linecap:square;stroke-linejoin:miter;stroke-miterlimit:4;stroke-dasharray:none;stroke-dashoffset:0;stroke-opacity:1;paint-order:stroke fill markers;stop-color:#000000"
           d="m 259.7266,117.77481 v 2.24999 h 3.00033 v 1.50017 h -3.00033 v 2.24999 h -1.49965 v -6.00015 z" /><path
           id="path18"
           style="font-variation-settings:normal;display:inline;fill:none;fill-opacity:1;stroke:#000000;stroke-width:0.0352778;stroke-linecap:square;stroke-linejoin:miter;stroke-miterlimit:4;stroke-dasharray:none;stroke-dashoffset:0;stroke-opacity:1;paint-order:stroke fill markers;stop-color:#000000"
           d="m 209.43444,113.28912 a 1.7,1.7 0 0 0 1.09451,1.5627 0.15243822,0.15243843 0 0 0 -0.0155,0.0672 0.15243822,0.15243843 0 0 0 0.15244,0.15244 0.15243822,0.15243843 0 0 0 0.005,-0.001 28.299999,28.299999 0 0 0 28.16365,26.51879 28.299999,28.299999 0 0 0 28.16263,-26.51724 0.15243822,0.15243843 0 0 0 0.031,0.004 0.15243822,0.15243843 0 0 0 0.15245,-0.15245 0.15243822,0.15243843 0 0 0 -0.0233,-0.0806 1.7,1.7 0 0 0 1.07694,-1.5534 1.7,1.7 0 0 0 -1.08831,-1.55908 0.15243822,0.15243843 0 0 0 0.0186,-0.0723 0.15243822,0.15243843 0 0 0 -0.15245,-0.15245 0.15243822,0.15243843 0 0 0 -0.015,0.001 28.299999,28.299999 0 0 0 -28.16263,-26.517239 28.299999,28.299999 0 0 0 -28.22876,26.534299 0.15243822,0.15243843 0 0 0 -0.0222,-0.002 0.15243822,0.15243843 0 0 0 -0.15245,0.15244 0.15243822,0.15243843 0 0 0 0.0357,0.0941 1.7,1.7 0 0 0 -1.0325,1.52084 z" /></g><path
         id="path19"
         style="font-variation-settings:normal;display:inline;fill:none;fill-opacity:1;stroke:#000000;stroke-width:0.0352778;stroke-linecap:square;stroke-linejoin:miter;stroke-miterlimit:4;stroke-dasharray:none;stroke-dashoffset:0;stroke-opacity:1;paint-order:stroke fill markers;stop-color:#000000"
         d="m 323.26606,230.16159 a 1.7,1.7 0 0 0 -1.5627,1.09451 0.15243843,0.15243822 0 0 0 -0.0672,-0.0155 0.15243843,0.15243822 0 0 0 -0.15244,0.15244 0.15243843,0.15243822 0 0 0 10e-4,0.005 28.299999,28.299999 0 0 0 -26.51879,28.16365 28.299999,28.299999 0 0 0 26.51724,28.16263 0.15243843,0.15243822 0 0 0 -0.004,0.031 0.15243843,0.15243822 0 0 0 0.15245,0.15245 0.15243843,0.15243822 0 0 0 0.0806,-0.0233 1.7,1.7 0 0 0 1.5534,1.07694 1.7,1.7 0 0 0 1.55908,-1.08831 0.15243843,0.15243822 0 0 0 0.0723,0.0186 0.15243843,0.15243822 0 0 0 0.15245,-0.15245 0.15243843,0.15243822 0 0 0 -10e-4,-0.015 28.299999,28.299999 0 0 0 26.51724,-28.16263 28.299999,28.299999 0 0 0 -26.5343,-28.22876 0.15243843,0.15243822 0 0 0 0.002,-0.0222 0.15243843,0.15243822 0 0 0 -0.15244,-0.15245 0.15243843,0.15243822 0 0 0 -0.0941,0.0357 1.7,1.7 0 0 0 -1.52084,-1.0325 z" /><g
         id="g32"
         transform="rotate(90,207.91401,228.64117)"
         style="stroke:#000000;stroke-width:0.0352778;stroke-dasharray:none"><path
           id="path20"
           style="font-variation-settings:normal;fill:none;fill-opacity:1;stroke:#000000;stroke-width:0.0352778;stroke-linecap:square;stroke-linejoin:miter;stroke-miterlimit:4;stroke-dasharray:none;stroke-dashoffset:0;stroke-opacity:1;paint-order:stroke fill markers;stop-color:#000000"
           d="m 229.34063,130.64288 a 0.25,0.25 0 0 0 0.25011,0.2496 0.25,0.25 0 0 0 0.25011,-0.2496 0.25,0.25 0 0 0 0,-5.1e-4 h 0.99994 a 0.25,0.25 0 0 0 0,5.1e-4 0.25,0.25 0 0 0 0.25012,0.2496 0.25,0.25 0 0 0 0.25011,-0.2496 0.25,0.25 0 0 0 -0.25011,-0.25011 v -0.99994 a 0.25,0.25 0 0 0 0.25011,-0.25011 0.25,0.25 0 0 0 -0.25011,-0.25012 0.25,0.25 0 0 0 -0.25012,0.2496 h -0.99994 a 0.25,0.25 0 0 0 -0.25011,-0.2496 0.25,0.25 0 0 0 -0.25011,0.25012 0.25,0.25 0 0 0 0.25011,0.25011 0.25,0.25 0 0 0 5.2e-4,0 v 0.99994 a 0.25,0.25 0 0 0 -5.2e-4,0 0.25,0.25 0 0 0 -0.25011,0.25011 z" /><path
           id="path21"
           style="font-variation-settings:normal;fill:none;fill-opacity:1;stroke:#000000;stroke-width:0.0352778;stroke-linecap:square;stroke-linejoin:miter;stroke-miterlimit:4;stroke-dasharray:none;stroke-dashoffset:0;stroke-opacity:1;paint-order:stroke fill markers;stop-color:#000000"
           d="m 247.37284,130.64288 a 0.25,0.25 0 0 0 0.25011,0.2496 0.25,0.25 0 0 0 0.25011,-0.2496 0.25,0.25 0 0 0 0,-5.1e-4 h 0.99994 a 0.25,0.25 0 0 0 0,5.1e-4 0.25,0.25 0 0 0 0.25012,0.2496 0.25,0.25 0 0 0 0.25011,-0.2496 0.25,0.25 0 0 0 -0.25011,-0.25011 v -0.99994 a 0.25,0.25 0 0 0 0.25011,-0.25011 0.25,0.25 0 0 0 -0.25011,-0.25012 0.25,0.25 0 0 0 -0.25012,0.2496 h -0.99994 a 0.25,0.25 0 0 0 -0.25011,-0.2496 0.25,0.25 0 0 0 -0.25011,0.25012 0.25,0.25 0 0 0 0.25011,0.25011 0.25,0.25 0 0 0 5.2e-4,0 v 0.99994 a 0.25,0.25 0 0 0 -5.2e-4,0 0.25,0.25 0 0 0 -0.25011,0.25011 z" /><path
           id="path22"
           style="font-variation-settings:normal;fill:none;fill-opacity:1;stroke:#000000;stroke-width:0.0352778;stroke-linecap:square;stroke-linejoin:miter;stroke-miterlimit:4;stroke-dasharray:none;stroke-dashoffset:0;stroke-opacity:1;paint-order:stroke fill markers;stop-color:#000000"
           d="m 247.37284,97.262498 a 0.25,0.25 0 0 0 0.25011,0.2496 0.25,0.25 0 0 0 0.25011,-0.2496 0.25,0.25 0 0 0 0,-5.1e-4 h 0.99994 a 0.25,0.25 0 0 0 0,5.1e-4 0.25,0.25 0 0 0 0.25012,0.2496 0.25,0.25 0 0 0 0.25011,-0.2496 0.25,0.25 0 0 0 -0.25011,-0.25011 v -0.99994 a 0.25,0.25 0 0 0 0.25011,-0.25011 0.25,0.25 0 0 0 -0.25011,-0.25012 0.25,0.25 0 0 0 -0.25012,0.2496 h -0.99994 a 0.25,0.25 0 0 0 -0.25011,-0.2496 0.25,0.25 0 0 0 -0.25011,0.25012 0.25,0.25 0 0 0 0.25011,0.25011 0.25,0.25 0 0 0 5.2e-4,0 v 0.99994 a 0.25,0.25 0 0 0 -5.2e-4,0 0.25,0.25 0 0 0 -0.25011,0.25011 z" /><path
           id="path23"
           style="font-variation-settings:normal;fill:none;fill-opacity:1;stroke:#000000;stroke-width:0.0352778;stroke-linecap:square;stroke-linejoin:miter;stroke-miterlimit:4;stroke-dasharray:none;stroke-dashoffset:0;stroke-opacity:1;paint-order:stroke fill markers;stop-color:#000000"
           d="m 229.34063,97.262498 a 0.25,0.25 0 0 0 0.25011,0.2496 0.25,0.25 0 0 0 0.25011,-0.2496 0.25,0.25 0 0 0 0,-5.1e-4 h 0.99994 a 0.25,0.25 0 0 0 0,5.1e-4 0.25,0.25 0 0 0 0.25012,0.2496 0.25,0.25 0 0 0 0.25011,-0.2496 0.25,0.25 0 0 0 -0.25011,-0.25011 v -0.99994 a 0.25,0.25 0 0 0 0.25011,-0.25011 0.25,0.25 0 0 0 -0.25011,-0.25012 0.25,0.25 0 0 0 -0.25012,0.2496 h -0.99994 a 0.25,0.25 0 0 0 -0.25011,-0.2496 0.25,0.25 0 0 0 -0.25011,0.25012 0.25,0.25 0 0 0 0.25011,0.25011 0.25,0.25 0 0 0 5.2e-4,0 v 0.99994 a 0.25,0.25 0 0 0 -5.2e-4,0 0.25,0.25 0 0 0 -0.25011,0.25011 z" /><rect
           style="font-variation-settings:normal;fill:none;fill-opacity:1;stroke:#000000;stroke-width:0.0352778;stroke-linecap:square;stroke-linejoin:miter;stroke-miterlimit:4;stroke-dasharray:none;stroke-dashoffset:0;stroke-opacity:1;paint-order:stroke fill markers;stop-color:#000000"
           id="rect23"
           width="39.474102"
           height="34.731472"
           x="-132.93941"
           y="221.99121"
           transform="rotate(-90)" /><path
           id="path24"
           style="font-variation-settings:normal;fill:none;fill-opacity:1;stroke:#000000;stroke-width:0.0352778;stroke-linecap:square;stroke-linejoin:miter;stroke-miterlimit:4;stroke-dasharray:none;stroke-dashoffset:0;stroke-opacity:1;paint-order:stroke fill markers;stop-color:#000000"
           d="m 217.93166,102.62977 v 2.24999 h -3.00033 v 1.50017 h 3.00033 v 2.24999 h 1.49965 v -6.00015 z" /><path
           id="path25"
           style="font-variation-settings:normal;fill:none;fill-opacity:1;stroke:#000000;stroke-width:0.0352778;stroke-linecap:square;stroke-linejoin:miter;stroke-miterlimit:4;stroke-dasharray:none;stroke-dashoffset:0;stroke-opacity:1;paint-order:stroke fill markers;stop-color:#000000"
           d="m 217.93166,117.77481 v 2.24999 h -3.00033 v 1.50017 h 3.00033 v 2.24999 h 1.49965 v -6.00015 z" /><path
           id="path29"
           style="font-variation-settings:normal;fill:none;fill-opacity:1;stroke:#000000;stroke-width:0.0352778;stroke-linecap:square;stroke-linejoin:miter;stroke-miterlimit:4;stroke-dasharray:none;stroke-dashoffset:0;stroke-opacity:1;paint-order:stroke fill markers;stop-color:#000000"
           d="m 259.7266,102.62977 v 2.24999 h 3.00033 v 1.50017 h -3.00033 v 2.24999 h -1.49965 v -6.00015 z" /><path
           id="path30"
           style="font-variation-settings:normal;fill:none;fill-opacity:1;stroke:#000000;stroke-width:0.0352778;stroke-linecap:square;stroke-linejoin:miter;stroke-miterlimit:4;stroke-dasharray:none;stroke-dashoffset:0;stroke-opacity:1;paint-order:stroke fill markers;stop-color:#000000"
           d="m 259.7266,117.77481 v 2.24999 h 3.00033 v 1.50017 h -3.00033 v 2.24999 h -1.49965 v -6.00015 z" /></g><g
         id="g41"
         transform="rotate(90,129.51871,150.24586)"
         style="stroke:#000000;stroke-width:0.0352778;stroke-dasharray:none"><path
           id="path33"
           style="font-variation-settings:normal;fill:none;fill-opacity:1;stroke:#000000;stroke-width:0.0352778;stroke-linecap:square;stroke-linejoin:miter;stroke-miterlimit:4;stroke-dasharray:none;stroke-dashoffset:0;stroke-opacity:1;paint-order:stroke fill markers;stop-color:#000000"
           d="m 229.34063,130.64288 a 0.25,0.25 0 0 0 0.25011,0.2496 0.25,0.25 0 0 0 0.25011,-0.2496 0.25,0.25 0 0 0 0,-5.1e-4 h 0.99994 a 0.25,0.25 0 0 0 0,5.1e-4 0.25,0.25 0 0 0 0.25012,0.2496 0.25,0.25 0 0 0 0.25011,-0.2496 0.25,0.25 0 0 0 -0.25011,-0.25011 v -0.99994 a 0.25,0.25 0 0 0 0.25011,-0.25011 0.25,0.25 0 0 0 -0.25011,-0.25012 0.25,0.25 0 0 0 -0.25012,0.2496 h -0.99994 a 0.25,0.25 0 0 0 -0.25011,-0.2496 0.25,0.25 0 0 0 -0.25011,0.25012 0.25,0.25 0 0 0 0.25011,0.25011 0.25,0.25 0 0 0 5.2e-4,0 v 0.99994 a 0.25,0.25 0 0 0 -5.2e-4,0 0.25,0.25 0 0 0 -0.25011,0.25011 z" /><path
           id="path34"
           style="font-variation-settings:normal;fill:none;fill-opacity:1;stroke:#000000;stroke-width:0.0352778;stroke-linecap:square;stroke-linejoin:miter;stroke-miterlimit:4;stroke-dasharray:none;stroke-dashoffset:0;stroke-opacity:1;paint-order:stroke fill markers;stop-color:#000000"
           d="m 247.37284,130.64288 a 0.25,0.25 0 0 0 0.25011,0.2496 0.25,0.25 0 0 0 0.25011,-0.2496 0.25,0.25 0 0 0 0,-5.1e-4 h 0.99994 a 0.25,0.25 0 0 0 0,5.1e-4 0.25,0.25 0 0 0 0.25012,0.2496 0.25,0.25 0 0 0 0.25011,-0.2496 0.25,0.25 0 0 0 -0.25011,-0.25011 v -0.99994 a 0.25,0.25 0 0 0 0.25011,-0.25011 0.25,0.25 0 0 0 -0.25011,-0.25012 0.25,0.25 0 0 0 -0.25012,0.2496 h -0.99994 a 0.25,0.25 0 0 0 -0.25011,-0.2496 0.25,0.25 0 0 0 -0.25011,0.25012 0.25,0.25 0 0 0 0.25011,0.25011 0.25,0.25 0 0 0 5.2e-4,0 v 0.99994 a 0.25,0.25 0 0 0 -5.2e-4,0 0.25,0.25 0 0 0 -0.25011,0.25011 z" /><path
           id="path35"
           style="font-variation-settings:normal;fill:none;fill-opacity:1;stroke:#000000;stroke-width:0.0352778;stroke-linecap:square;stroke-linejoin:miter;stroke-miterlimit:4;stroke-dasharray:none;stroke-dashoffset:0;stroke-opacity:1;paint-order:stroke fill markers;stop-color:#000000"
           d="m 247.37284,97.262498 a 0.25,0.25 0 0 0 0.25011,0.2496 0.25,0.25 0 0 0 0.25011,-0.2496 0.25,0.25 0 0 0 0,-5.1e-4 h 0.99994 a 0.25,0.25 0 0 0 0,5.1e-4 0.25,0.25 0 0 0 0.25012,0.2496 0.25,0.25 0 0 0 0.25011,-0.2496 0.25,0.25 0 0 0 -0.25011,-0.25011 v -0.99994 a 0.25,0.25 0 0 0 0.25011,-0.25011 0.25,0.25 0 0 0 -0.25011,-0.25012 0.25,0.25 0 0 0 -0.25012,0.2496 h -0.99994 a 0.25,0.25 0 0 0 -0.25011,-0.2496 0.25,0.25 0 0 0 -0.25011,0.25012 0.25,0.25 0 0 0 0.25011,0.25011 0.25,0.25 0 0 0 5.2e-4,0 v 0.99994 a 0.25,0.25 0 0 0 -5.2e-4,0 0.25,0.25 0 0 0 -0.25011,0.25011 z" /><path
           id="path36"
           style="font-variation-settings:normal;fill:none;fill-opacity:1;stroke:#000000;stroke-width:0.0352778;stroke-linecap:square;stroke-linejoin:miter;stroke-miterlimit:4;stroke-dasharray:none;stroke-dashoffset:0;stroke-opacity:1;paint-order:stroke fill markers;stop-color:#000000"
           d="m 229.34063,97.262498 a 0.25,0.25 0 0 0 0.25011,0.2496 0.25,0.25 0 0 0 0.25011,-0.2496 0.25,0.25 0 0 0 0,-5.1e-4 h 0.99994 a 0.25,0.25 0 0 0 0,5.1e-4 0.25,0.25 0 0 0 0.25012,0.2496 0.25,0.25 0 0 0 0.25011,-0.2496 0.25,0.25 0 0 0 -0.25011,-0.25011 v -0.99994 a 0.25,0.25 0 0 0 0.25011,-0.25011 0.25,0.25 0 0 0 -0.25011,-0.25012 0.25,0.25 0 0 0 -0.25012,0.2496 h -0.99994 a 0.25,0.25 0 0 0 -0.25011,-0.2496 0.25,0.25 0 0 0 -0.25011,0.25012 0.25,0.25 0 0 0 0.25011,0.25011 0.25,0.25 0 0 0 5.2e-4,0 v 0.99994 a 0.25,0.25 0 0 0 -5.2e-4,0 0.25,0.25 0 0 0 -0.25011,0.25011 z" /><rect
           style="font-variation-settings:normal;fill:none;fill-opacity:1;stroke:#000000;stroke-width:0.0352778;stroke-linecap:square;stroke-linejoin:miter;stroke-miterlimit:4;stroke-dasharray:none;stroke-dashoffset:0;stroke-opacity:1;paint-order:stroke fill markers;stop-color:#000000"
           id="rect36"
           width="39.474102"
           height="34.731472"
           x="-132.93941"
           y="221.99121"
           transform="rotate(-90)" /><path
           id="path37"
           style="font-variation-settings:normal;fill:none;fill-opacity:1;stroke:#000000;stroke-width:0.0352778;stroke-linecap:square;stroke-linejoin:miter;stroke-miterlimit:4;stroke-dasharray:none;stroke-dashoffset:0;stroke-opacity:1;paint-order:stroke fill markers;stop-color:#000000"
           d="m 217.93166,102.62977 v 2.24999 h -3.00033 v 1.50017 h 3.00033 v 2.24999 h 1.49965 v -6.00015 z" /><path
           id="path38"
           style="font-variation-settings:normal;fill:none;fill-opacity:1;stroke:#000000;stroke-width:0.0352778;stroke-linecap:square;stroke-linejoin:miter;stroke-miterlimit:4;stroke-dasharray:none;stroke-dashoffset:0;stroke-opacity:1;paint-order:stroke fill markers;stop-color:#000000"
           d="m 217.93166,117.77481 v 2.24999 h -3.00033 v 1.50017 h 3.00033 v 2.24999 h 1.49965 v -6.00015 z" /><path
           id="path39"
           style="font-variation-settings:normal;fill:none;fill-opacity:1;stroke:#000000;stroke-width:0.0352778;stroke-linecap:square;stroke-linejoin:miter;stroke-miterlimit:4;stroke-dasharray:none;stroke-dashoffset:0;stroke-opacity:1;paint-order:stroke fill markers;stop-color:#000000"
           d="m 259.7266,102.62977 v 2.24999 h 3.00033 v 1.50017 h -3.00033 v 2.24999 h -1.49965 v -6.00015 z" /><path
           id="path40"
           style="font-variation-settings:normal;fill:none;fill-opacity:1;stroke:#000000;stroke-width:0.0352778;stroke-linecap:square;stroke-linejoin:miter;stroke-miterlimit:4;stroke-dasharray:none;stroke-dashoffset:0;stroke-opacity:1;paint-order:stroke fill markers;stop-color:#000000"
           d="m 259.7266,117.77481 v 2.24999 h 3.00033 v 1.50017 h -3.00033 v 2.24999 h -1.49965 v -6.00015 z" /></g><g
         id="g51"
         transform="rotate(90,90.32116,111.04831)"
         style="stroke:#000000;stroke-width:0.0352778;stroke-dasharray:none"><path
           id="path42"
           style="font-variation-settings:normal;fill:none;fill-opacity:1;stroke:#000000;stroke-width:0.0352778;stroke-linecap:square;stroke-linejoin:miter;stroke-miterlimit:4;stroke-dasharray:none;stroke-dashoffset:0;stroke-opacity:1;paint-order:stroke fill markers;stop-color:#000000"
           d="m 229.34063,130.64288 a 0.25,0.25 0 0 0 0.25011,0.2496 0.25,0.25 0 0 0 0.25011,-0.2496 0.25,0.25 0 0 0 0,-5.1e-4 h 0.99994 a 0.25,0.25 0 0 0 0,5.1e-4 0.25,0.25 0 0 0 0.25012,0.2496 0.25,0.25 0 0 0 0.25011,-0.2496 0.25,0.25 0 0 0 -0.25011,-0.25011 v -0.99994 a 0.25,0.25 0 0 0 0.25011,-0.25011 0.25,0.25 0 0 0 -0.25011,-0.25012 0.25,0.25 0 0 0 -0.25012,0.2496 h -0.99994 a 0.25,0.25 0 0 0 -0.25011,-0.2496 0.25,0.25 0 0 0 -0.25011,0.25012 0.25,0.25 0 0 0 0.25011,0.25011 0.25,0.25 0 0 0 5.2e-4,0 v 0.99994 a 0.25,0.25 0 0 0 -5.2e-4,0 0.25,0.25 0 0 0 -0.25011,0.25011 z" /><path
           id="path43"
           style="font-variation-settings:normal;fill:none;fill-opacity:1;stroke:#000000;stroke-width:0.0352778;stroke-linecap:square;stroke-linejoin:miter;stroke-miterlimit:4;stroke-dasharray:none;stroke-dashoffset:0;stroke-opacity:1;paint-order:stroke fill markers;stop-color:#000000"
           d="m 247.37284,130.64288 a 0.25,0.25 0 0 0 0.25011,0.2496 0.25,0.25 0 0 0 0.25011,-0.2496 0.25,0.25 0 0 0 0,-5.1e-4 h 0.99994 a 0.25,0.25 0 0 0 0,5.1e-4 0.25,0.25 0 0 0 0.25012,0.2496 0.25,0.25 0 0 0 0.25011,-0.2496 0.25,0.25 0 0 0 -0.25011,-0.25011 v -0.99994 a 0.25,0.25 0 0 0 0.25011,-0.25011 0.25,0.25 0 0 0 -0.25011,-0.25012 0.25,0.25 0 0 0 -0.25012,0.2496 h -0.99994 a 0.25,0.25 0 0 0 -0.25011,-0.2496 0.25,0.25 0 0 0 -0.25011,0.25012 0.25,0.25 0 0 0 0.25011,0.25011 0.25,0.25 0 0 0 5.2e-4,0 v 0.99994 a 0.25,0.25 0 0 0 -5.2e-4,0 0.25,0.25 0 0 0 -0.25011,0.25011 z" /><path
           id="path44"
           style="font-variation-settings:normal;fill:none;fill-opacity:1;stroke:#000000;stroke-width:0.0352778;stroke-linecap:square;stroke-linejoin:miter;stroke-miterlimit:4;stroke-dasharray:none;stroke-dashoffset:0;stroke-opacity:1;paint-order:stroke fill markers;stop-color:#000000"
           d="m 247.37284,97.262498 a 0.25,0.25 0 0 0 0.25011,0.2496 0.25,0.25 0 0 0 0.25011,-0.2496 0.25,0.25 0 0 0 0,-5.1e-4 h 0.99994 a 0.25,0.25 0 0 0 0,5.1e-4 0.25,0.25 0 0 0 0.25012,0.2496 0.25,0.25 0 0 0 0.25011,-0.2496 0.25,0.25 0 0 0 -0.25011,-0.25011 v -0.99994 a 0.25,0.25 0 0 0 0.25011,-0.25011 0.25,0.25 0 0 0 -0.25011,-0.25012 0.25,0.25 0 0 0 -0.25012,0.2496 h -0.99994 a 0.25,0.25 0 0 0 -0.25011,-0.2496 0.25,0.25 0 0 0 -0.25011,0.25012 0.25,0.25 0 0 0 0.25011,0.25011 0.25,0.25 0 0 0 5.2e-4,0 v 0.99994 a 0.25,0.25 0 0 0 -5.2e-4,0 0.25,0.25 0 0 0 -0.25011,0.25011 z" /><path
           id="path45"
           style="font-variation-settings:normal;fill:none;fill-opacity:1;stroke:#000000;stroke-width:0.0352778;stroke-linecap:square;stroke-linejoin:miter;stroke-miterlimit:4;stroke-dasharray:none;stroke-dashoffset:0;stroke-opacity:1;paint-order:stroke fill markers;stop-color:#000000"
           d="m 229.34063,97.262498 a 0.25,0.25 0 0 0 0.25011,0.2496 0.25,0.25 0 0 0 0.25011,-0.2496 0.25,0.25 0 0 0 0,-5.1e-4 h 0.99994 a 0.25,0.25 0 0 0 0,5.1e-4 0.25,0.25 0 0 0 0.25012,0.2496 0.25,0.25 0 0 0 0.25011,-0.2496 0.25,0.25 0 0 0 -0.25011,-0.25011 v -0.99994 a 0.25,0.25 0 0 0 0.25011,-0.25011 0.25,0.25 0 0 0 -0.25011,-0.25012 0.25,0.25 0 0 0 -0.25012,0.2496 h -0.99994 a 0.25,0.25 0 0 0 -0.25011,-0.2496 0.25,0.25 0 0 0 -0.25011,0.25012 0.25,0.25 0 0 0 0.25011,0.25011 0.25,0.25 0 0 0 5.2e-4,0 v 0.99994 a 0.25,0.25 0 0 0 -5.2e-4,0 0.25,0.25 0 0 0 -0.25011,0.25011 z" /><rect
           style="font-variation-settings:normal;fill:none;fill-opacity:1;stroke:#000000;stroke-width:0.0352778;stroke-linecap:square;stroke-linejoin:miter;stroke-miterlimit:4;stroke-dasharray:none;stroke-dashoffset:0;stroke-opacity:1;paint-order:stroke fill markers;stop-color:#000000"
           id="rect45"
           width="39.474102"
           height="34.731472"
           x="-132.93941"
           y="221.99121"
           transform="rotate(-90)" /><path
           id="path46"
           style="font-variation-settings:normal;fill:none;fill-opacity:1;stroke:#000000;stroke-width:0.0352778;stroke-linecap:square;stroke-linejoin:miter;stroke-miterlimit:4;stroke-dasharray:none;stroke-dashoffset:0;stroke-opacity:1;paint-order:stroke fill markers;stop-color:#000000"
           d="m 217.93166,102.62977 v 2.24999 h -3.00033 v 1.50017 h 3.00033 v 2.24999 h 1.49965 v -6.00015 z" /><path
           id="path48"
           style="font-variation-settings:normal;fill:none;fill-opacity:1;stroke:#000000;stroke-width:0.0352778;stroke-linecap:square;stroke-linejoin:miter;stroke-miterlimit:4;stroke-dasharray:none;stroke-dashoffset:0;stroke-opacity:1;paint-order:stroke fill markers;stop-color:#000000"
           d="m 217.93166,117.77481 v 2.24999 h -3.00033 v 1.50017 h 3.00033 v 2.24999 h 1.49965 v -6.00015 z" /><path
           id="path49"
           style="font-variation-settings:normal;fill:none;fill-opacity:1;stroke:#000000;stroke-width:0.0352778;stroke-linecap:square;stroke-linejoin:miter;stroke-miterlimit:4;stroke-dasharray:none;stroke-dashoffset:0;stroke-opacity:1;paint-order:stroke fill markers;stop-color:#000000"
           d="m 259.7266,102.62977 v 2.24999 h 3.00033 v 1.50017 h -3.00033 v 2.24999 h -1.49965 v -6.00015 z" /><path
           id="path50"
           style="font-variation-settings:normal;fill:none;fill-opacity:1;stroke:#000000;stroke-width:0.0352778;stroke-linecap:square;stroke-linejoin:miter;stroke-miterlimit:4;stroke-dasharray:none;stroke-dashoffset:0;stroke-opacity:1;paint-order:stroke fill markers;stop-color:#000000"
           d="m 259.7266,117.77481 v 2.24999 h 3.00033 v 1.50017 h -3.00033 v 2.24999 h -1.49965 v -6.00015 z" /></g><circle
         style="font-variation-settings:normal;display:inline;fill:none;fill-opacity:1;stroke:#000000;stroke-width:0.0352778;stroke-linecap:square;stroke-linejoin:miter;stroke-miterlimit:4;stroke-dasharray:none;stroke-dashoffset:0;stroke-opacity:1;paint-order:stroke fill markers;stop-color:#000000"
         id="circle51"
         cx="259.55627"
         cy="-166.47519"
         r="30.977749"
         transform="rotate(90)" /><circle
         style="font-variation-settings:normal;display:inline;fill:none;fill-opacity:1;stroke:#000000;stroke-width:0.0352778;stroke-linecap:square;stroke-linejoin:miter;stroke-miterlimit:4;stroke-dasharray:none;stroke-dashoffset:0;stroke-opacity:1;paint-order:stroke fill markers;stop-color:#000000"
         id="circle52"
         cx="259.55627"
         cy="-88.080093"
         r="30.977749"
         transform="rotate(90)" /><circle
         style="font-variation-settings:normal;display:inline;fill:none;fill-opacity:1;stroke:#000000;stroke-width:0.0352778;stroke-linecap:square;stroke-linejoin:miter;stroke-miterlimit:4;stroke-dasharray:none;stroke-dashoffset:0;stroke-opacity:1;paint-order:stroke fill markers;stop-color:#000000"
         id="circle53"
         cx="259.55627"
         cy="-323.26581"
         r="30.977749"
         transform="rotate(90)" /></g><g
       id="g53"
       style="stroke:#000000;stroke-width:0.0352778;stroke-dasharray:none"
       transform="translate(-42.28204,-10.476966)"><circle
         style="font-variation-settings:normal;fill:none;fill-opacity:1;stroke:#000000;stroke-width:0.0352778;stroke-linecap:square;stroke-linejoin:miter;stroke-miterlimit:4;stroke-dasharray:none;stroke-dashoffset:0;stroke-opacity:1;paint-order:stroke fill markers;stop-color:#000000"
         id="circle5832"
         cx="66.035263"
         cy="35.881363"
         r="2.4926522" /><circle
         style="font-variation-settings:normal;fill:none;fill-opacity:1;stroke:#000000;stroke-width:0.0352778;stroke-linecap:square;stroke-linejoin:miter;stroke-miterlimit:4;stroke-dasharray:none;stroke-dashoffset:0;stroke-opacity:1;paint-order:stroke fill markers;stop-color:#000000"
         id="circle5833"
         cx="66.035263"
         cy="201.98555"
         r="2.4926522" /><circle
         style="font-variation-settings:normal;fill:none;fill-opacity:1;stroke:#000000;stroke-width:0.0352778;stroke-linecap:square;stroke-linejoin:miter;stroke-miterlimit:4;stroke-dasharray:none;stroke-dashoffset:0;stroke-opacity:1;paint-order:stroke fill markers;stop-color:#000000"
         id="circle5834"
         cx="347.50143"
         cy="35.881363"
         r="2.4926522" /><circle
         style="font-variation-settings:normal;fill:none;fill-opacity:1;stroke:#000000;stroke-width:0.0352778;stroke-linecap:square;stroke-linejoin:miter;stroke-miterlimit:4;stroke-dasharray:none;stroke-dashoffset:0;stroke-opacity:1;paint-order:stroke fill markers;stop-color:#000000"
         id="circle5835"
         cx="347.50143"
         cy="201.98555"
         r="2.4926522" /><circle
         style="font-variation-settings:normal;fill:none;fill-opacity:1;stroke:#000000;stroke-width:0.0352778;stroke-linecap:square;stroke-linejoin:miter;stroke-miterlimit:4;stroke-dasharray:none;stroke-dashoffset:0;stroke-opacity:1;paint-order:stroke fill markers;stop-color:#000000"
         id="circle5959"
         cx="285.61096"
         cy="71.205521"
         r="3.5" /><circle
         style="font-variation-settings:normal;fill:none;fill-opacity:1;stroke:#000000;stroke-width:0.0352778;stroke-linecap:square;stroke-linejoin:miter;stroke-miterlimit:4;stroke-dasharray:none;stroke-dashoffset:0;stroke-opacity:1;paint-order:stroke fill markers;stop-color:#000000"
         id="circle5960"
         cx="258.43506"
         cy="71.205536"
         r="3.5" /><circle
         style="font-variation-settings:normal;fill:none;fill-opacity:1;stroke:#000000;stroke-width:0.0352778;stroke-linecap:square;stroke-linejoin:miter;stroke-miterlimit:4;stroke-dasharray:none;stroke-dashoffset:0;stroke-opacity:1;paint-order:stroke fill markers;stop-color:#000000"
         id="circle5961"
         cx="272.02301"
         cy="71.205536"
         r="3.5" /><circle
         style="font-variation-settings:normal;fill:none;fill-opacity:1;stroke:#000000;stroke-width:0.0352778;stroke-linecap:square;stroke-linejoin:miter;stroke-miterlimit:4;stroke-dasharray:none;stroke-dashoffset:0;stroke-opacity:1;paint-order:stroke fill markers;stop-color:#000000"
         id="circle5962"
         cx="-333.01547"
         cy="71.205536"
         r="3.5"
         transform="scale(-1,1)" /><circle
         style="font-variation-settings:normal;fill:none;fill-opacity:1;stroke:#000000;stroke-width:0.0352778;stroke-linecap:square;stroke-linejoin:miter;stroke-miterlimit:4;stroke-dasharray:none;stroke-dashoffset:0;stroke-opacity:1;paint-order:stroke fill markers;stop-color:#000000"
         id="circle5963"
         cx="-319.42752"
         cy="71.205536"
         r="3.5"
         transform="scale(-1,1)" /><circle
         style="font-variation-settings:normal;fill:none;fill-opacity:1;stroke:#000000;stroke-width:0.0352778;stroke-linecap:square;stroke-linejoin:miter;stroke-miterlimit:4;stroke-dasharray:none;stroke-dashoffset:0;stroke-opacity:1;paint-order:stroke fill markers;stop-color:#000000"
         id="circle5964"
         cx="-305.8396"
         cy="71.205521"
         r="3.5"
         transform="scale(-1,1)" /><circle
         style="font-variation-settings:normal;fill:none;fill-opacity:1;stroke:#000000;stroke-width:0.0352778;stroke-linecap:square;stroke-linejoin:miter;stroke-miterlimit:4;stroke-dasharray:none;stroke-dashoffset:0;stroke-opacity:1;paint-order:stroke fill markers;stop-color:#000000"
         id="circle5965"
         cx="215.235"
         cy="70.751923"
         r="3.5" /><circle
         style="font-variation-settings:normal;fill:none;fill-opacity:1;stroke:#000000;stroke-width:0.0352778;stroke-linecap:square;stroke-linejoin:miter;stroke-miterlimit:4;stroke-dasharray:none;stroke-dashoffset:0;stroke-opacity:1;paint-order:stroke fill markers;stop-color:#000000"
         id="circle5966"
         cx="-238.20642"
         cy="70.756058"
         r="3.5"
         transform="scale(-1,1)" /><circle
         style="font-variation-settings:normal;fill:none;fill-opacity:1;stroke:#000000;stroke-width:0.0352778;stroke-linecap:square;stroke-linejoin:miter;stroke-miterlimit:4;stroke-dasharray:none;stroke-dashoffset:0;stroke-opacity:1;paint-order:stroke fill markers;stop-color:#000000"
         id="circle5967"
         cx="226.72072"
         cy="70.753998"
         r="3.5" /><circle
         style="font-variation-settings:normal;fill:none;fill-opacity:1;stroke:#000000;stroke-width:0.0352778;stroke-linecap:square;stroke-linejoin:miter;stroke-miterlimit:4;stroke-dasharray:none;stroke-dashoffset:0;stroke-opacity:1;paint-order:stroke fill markers;stop-color:#000000"
         id="circle5968"
         cx="59.268284"
         cy="226.72174"
         r="3.5"
         transform="matrix(0,1,1,0,0,0)" /><path
         id="path1617"
         style="font-variation-settings:normal;fill:none;fill-opacity:1;stroke:#000000;stroke-width:0.0352778;stroke-linecap:square;stroke-linejoin:miter;stroke-miterlimit:4;stroke-dasharray:none;stroke-dashoffset:0;stroke-opacity:1;paint-order:stroke fill markers;stop-color:#000000"
         d="m 166.47544,128.27713 a 1.7,1.7 0 0 0 -1.5627,1.09451 0.15243843,0.15243822 0 0 0 -0.0672,-0.0155 0.15243843,0.15243822 0 0 0 -0.15244,0.15244 0.15243843,0.15243822 0 0 0 0.001,0.005 28.299999,28.299999 0 0 0 -26.51879,28.16365 28.299999,28.299999 0 0 0 26.51724,28.16263 0.15243843,0.15243822 0 0 0 -0.004,0.031 0.15243843,0.15243822 0 0 0 0.15245,0.15245 0.15243843,0.15243822 0 0 0 0.0806,-0.0233 1.7,1.7 0 0 0 1.5534,1.07694 1.7,1.7 0 0 0 1.55908,-1.08831 0.15243843,0.15243822 0 0 0 0.0723,0.0186 0.15243843,0.15243822 0 0 0 0.15245,-0.15245 0.15243843,0.15243822 0 0 0 -10e-4,-0.015 28.299999,28.299999 0 0 0 26.51724,-28.16263 28.299999,28.299999 0 0 0 -26.5343,-28.22876 0.15243843,0.15243822 0 0 0 0.002,-0.0222 0.15243843,0.15243822 0 0 0 -0.15244,-0.15245 0.15243843,0.15243822 0 0 0 -0.0941,0.0357 1.7,1.7 0 0 0 -1.52084,-1.0325 z" /><path
         id="path1617-1"
         style="font-variation-settings:normal;display:inline;fill:none;fill-opacity:1;stroke:#000000;stroke-width:0.0352778;stroke-linecap:square;stroke-linejoin:miter;stroke-miterlimit:4;stroke-dasharray:none;stroke-dashoffset:0;stroke-opacity:1;paint-order:stroke fill markers;stop-color:#000000"
         d="m 88.08035,128.28066 a 1.7,1.7 0 0 0 -1.5627,1.09451 0.15243843,0.15243822 0 0 0 -0.0672,-0.0155 0.15243843,0.15243822 0 0 0 -0.15244,0.15244 0.15243843,0.15243822 0 0 0 10e-4,0.005 28.299999,28.299999 0 0 0 -26.51879,28.16365 28.299999,28.299999 0 0 0 26.51724,28.16263 0.15243843,0.15243822 0 0 0 -0.004,0.031 0.15243843,0.15243822 0 0 0 0.15245,0.15245 0.15243843,0.15243822 0 0 0 0.0806,-0.0233 1.7,1.7 0 0 0 1.5534,1.07694 1.7,1.7 0 0 0 1.55908,-1.08831 0.15243843,0.15243822 0 0 0 0.0723,0.0186 0.15243843,0.15243822 0 0 0 0.15245,-0.15245 0.15243843,0.15243822 0 0 0 -0.001,-0.015 28.299999,28.299999 0 0 0 26.51724,-28.16263 28.299999,28.299999 0 0 0 -26.5343,-28.22876 0.15243843,0.15243822 0 0 0 0.002,-0.0222 0.15243843,0.15243822 0 0 0 -0.15244,-0.15245 0.15243843,0.15243822 0 0 0 -0.0941,0.0357 1.7,1.7 0 0 0 -1.52084,-1.0325 z" /><path
         id="path29-2"
         style="font-variation-settings:normal;display:inline;fill:none;fill-opacity:1;stroke:#000000;stroke-width:0.0352778;stroke-linecap:square;stroke-linejoin:miter;stroke-miterlimit:4;stroke-dasharray:none;stroke-dashoffset:0;stroke-opacity:1;paint-order:stroke fill markers;stop-color:#000000"
         d="m 244.87084,128.28066 a 1.7,1.7 0 0 0 -1.5627,1.09451 0.15243843,0.15243822 0 0 0 -0.0672,-0.0155 0.15243843,0.15243822 0 0 0 -0.15244,0.15244 0.15243843,0.15243822 0 0 0 10e-4,0.005 28.299999,28.299999 0 0 0 -26.51879,28.16365 28.299999,28.299999 0 0 0 26.51724,28.16263 0.15243843,0.15243822 0 0 0 -0.004,0.031 0.15243843,0.15243822 0 0 0 0.15245,0.15245 0.15243843,0.15243822 0 0 0 0.0806,-0.0233 1.7,1.7 0 0 0 1.5534,1.07694 1.7,1.7 0 0 0 1.55908,-1.08831 0.15243843,0.15243822 0 0 0 0.0723,0.0186 0.15243843,0.15243822 0 0 0 0.15245,-0.15245 0.15243843,0.15243822 0 0 0 -0.001,-0.015 28.299999,28.299999 0 0 0 26.51724,-28.16263 28.299999,28.299999 0 0 0 -26.5343,-28.22876 0.15243843,0.15243822 0 0 0 0.002,-0.0222 0.15243843,0.15243822 0 0 0 -0.15244,-0.15245 0.15243843,0.15243822 0 0 0 -0.0941,0.0357 1.7,1.7 0 0 0 -1.52084,-1.0325 z" /><path
         id="path30-9"
         style="font-variation-settings:normal;display:inline;fill:none;fill-opacity:1;stroke:#000000;stroke-width:0.0352778;stroke-linecap:square;stroke-linejoin:miter;stroke-miterlimit:4;stroke-dasharray:none;stroke-dashoffset:0;stroke-opacity:1;paint-order:stroke fill markers;stop-color:#000000"
         d="m 323.26606,128.28066 a 1.7,1.7 0 0 0 -1.5627,1.09451 0.15243843,0.15243822 0 0 0 -0.0672,-0.0155 0.15243843,0.15243822 0 0 0 -0.15244,0.15244 0.15243843,0.15243822 0 0 0 10e-4,0.005 28.299999,28.299999 0 0 0 -26.51879,28.16365 28.299999,28.299999 0 0 0 26.51724,28.16263 0.15243843,0.15243822 0 0 0 -0.004,0.031 0.15243843,0.15243822 0 0 0 0.15245,0.15245 0.15243843,0.15243822 0 0 0 0.0806,-0.0233 1.7,1.7 0 0 0 1.5534,1.07694 1.7,1.7 0 0 0 1.55908,-1.08831 0.15243843,0.15243822 0 0 0 0.0723,0.0186 0.15243843,0.15243822 0 0 0 0.15245,-0.15245 0.15243843,0.15243822 0 0 0 -10e-4,-0.015 28.299999,28.299999 0 0 0 26.51724,-28.16263 28.299999,28.299999 0 0 0 -26.5343,-28.22876 0.15243843,0.15243822 0 0 0 0.002,-0.0222 0.15243843,0.15243822 0 0 0 -0.15244,-0.15245 0.15243843,0.15243822 0 0 0 -0.0941,0.0357 1.7,1.7 0 0 0 -1.52084,-1.0325 z" /><rect
         style="font-variation-settings:normal;display:inline;fill:none;fill-opacity:1;stroke:#000000;stroke-width:0.0352778;stroke-linecap:square;stroke-linejoin:miter;stroke-miterlimit:4;stroke-dasharray:none;stroke-dashoffset:0;stroke-opacity:1;paint-order:stroke fill markers;stop-color:#000000"
         id="rect4006"
         width="308"
         height="194"
         x="51.75996"
         y="21.747719" /></g><g
       id="g66"
       transform="rotate(90,339.81553,290.80008)"><circle
         style="font-variation-settings:normal;display:inline;fill:none;fill-opacity:1;stroke:#000000;stroke-width:0.0352778;stroke-linecap:square;stroke-linejoin:miter;stroke-miterlimit:4;stroke-dasharray:none;stroke-dashoffset:0;stroke-opacity:1;paint-order:stroke fill markers;stop-color:#000000"
         id="circle1"
         cx="259.55627"
         cy="-244.9576"
         r="30.977749"
         transform="rotate(90)" /><path
         id="path1"
         style="font-variation-settings:normal;fill:none;fill-opacity:1;stroke:#000000;stroke-width:0.0352778;stroke-linecap:square;stroke-linejoin:miter;stroke-miterlimit:4;stroke-dasharray:none;stroke-dashoffset:0;stroke-opacity:1;paint-order:stroke fill markers;stop-color:#000000"
         d="m 166.47544,230.15806 a 1.7,1.7 0 0 0 -1.5627,1.09451 0.15243843,0.15243822 0 0 0 -0.0672,-0.0155 0.15243843,0.15243822 0 0 0 -0.15244,0.15244 0.15243843,0.15243822 0 0 0 0.001,0.005 28.299999,28.299999 0 0 0 -26.51879,28.16365 28.299999,28.299999 0 0 0 26.51724,28.16263 0.15243843,0.15243822 0 0 0 -0.004,0.031 0.15243843,0.15243822 0 0 0 0.15245,0.15245 0.15243843,0.15243822 0 0 0 0.0806,-0.0233 1.7,1.7 0 0 0 1.5534,1.07694 1.7,1.7 0 0 0 1.55908,-1.08831 0.15243843,0.15243822 0 0 0 0.0723,0.0186 0.15243843,0.15243822 0 0 0 0.15245,-0.15245 0.15243843,0.15243822 0 0 0 -10e-4,-0.015 28.299999,28.299999 0 0 0 26.51724,-28.16263 28.299999,28.299999 0 0 0 -26.5343,-28.22876 0.15243843,0.15243822 0 0 0 0.002,-0.0222 0.15243843,0.15243822 0 0 0 -0.15244,-0.15245 0.15243843,0.15243822 0 0 0 -0.0941,0.0357 1.7,1.7 0 0 0 -1.52084,-1.0325 z" /><path
         id="path2"
         style="font-variation-settings:normal;display:inline;fill:none;fill-opacity:1;stroke:#000000;stroke-width:0.0352778;stroke-linecap:square;stroke-linejoin:miter;stroke-miterlimit:4;stroke-dasharray:none;stroke-dashoffset:0;stroke-opacity:1;paint-order:stroke fill markers;stop-color:#000000"
         d="m 88.08035,230.16159 a 1.7,1.7 0 0 0 -1.5627,1.09451 0.15243843,0.15243822 0 0 0 -0.0672,-0.0155 0.15243843,0.15243822 0 0 0 -0.15244,0.15244 0.15243843,0.15243822 0 0 0 10e-4,0.005 28.299999,28.299999 0 0 0 -26.51879,28.16365 28.299999,28.299999 0 0 0 26.51724,28.16263 0.15243843,0.15243822 0 0 0 -0.004,0.031 0.15243843,0.15243822 0 0 0 0.15245,0.15245 0.15243843,0.15243822 0 0 0 0.0806,-0.0233 1.7,1.7 0 0 0 1.5534,1.07694 1.7,1.7 0 0 0 1.55908,-1.08831 0.15243843,0.15243822 0 0 0 0.0723,0.0186 0.15243843,0.15243822 0 0 0 0.15245,-0.15245 0.15243843,0.15243822 0 0 0 -0.001,-0.015 28.299999,28.299999 0 0 0 26.51724,-28.16263 28.299999,28.299999 0 0 0 -26.5343,-28.22876 0.15243843,0.15243822 0 0 0 0.002,-0.0222 0.15243843,0.15243822 0 0 0 -0.15244,-0.15245 0.15243843,0.15243822 0 0 0 -0.0941,0.0357 1.7,1.7 0 0 0 -1.52084,-1.0325 z" /><g
         id="g11"
         transform="rotate(90,168.7164,189.44356)"
         style="stroke:#000000;stroke-width:0.0352778;stroke-dasharray:none"><path
           id="path3"
           style="font-variation-settings:normal;fill:none;fill-opacity:1;stroke:#000000;stroke-width:0.0352778;stroke-linecap:square;stroke-linejoin:miter;stroke-miterlimit:4;stroke-dasharray:none;stroke-dashoffset:0;stroke-opacity:1;paint-order:stroke fill markers;stop-color:#000000"
           d="m 229.34063,130.64288 a 0.25,0.25 0 0 0 0.25011,0.2496 0.25,0.25 0 0 0 0.25011,-0.2496 0.25,0.25 0 0 0 0,-5.1e-4 h 0.99994 a 0.25,0.25 0 0 0 0,5.1e-4 0.25,0.25 0 0 0 0.25012,0.2496 0.25,0.25 0 0 0 0.25011,-0.2496 0.25,0.25 0 0 0 -0.25011,-0.25011 v -0.99994 a 0.25,0.25 0 0 0 0.25011,-0.25011 0.25,0.25 0 0 0 -0.25011,-0.25012 0.25,0.25 0 0 0 -0.25012,0.2496 h -0.99994 a 0.25,0.25 0 0 0 -0.25011,-0.2496 0.25,0.25 0 0 0 -0.25011,0.25012 0.25,0.25 0 0 0 0.25011,0.25011 0.25,0.25 0 0 0 5.2e-4,0 v 0.99994 a 0.25,0.25 0 0 0 -5.2e-4,0 0.25,0.25 0 0 0 -0.25011,0.25011 z" /><path
           id="path4"
           style="font-variation-settings:normal;fill:none;fill-opacity:1;stroke:#000000;stroke-width:0.0352778;stroke-linecap:square;stroke-linejoin:miter;stroke-miterlimit:4;stroke-dasharray:none;stroke-dashoffset:0;stroke-opacity:1;paint-order:stroke fill markers;stop-color:#000000"
           d="m 247.37284,130.64288 a 0.25,0.25 0 0 0 0.25011,0.2496 0.25,0.25 0 0 0 0.25011,-0.2496 0.25,0.25 0 0 0 0,-5.1e-4 h 0.99994 a 0.25,0.25 0 0 0 0,5.1e-4 0.25,0.25 0 0 0 0.25012,0.2496 0.25,0.25 0 0 0 0.25011,-0.2496 0.25,0.25 0 0 0 -0.25011,-0.25011 v -0.99994 a 0.25,0.25 0 0 0 0.25011,-0.25011 0.25,0.25 0 0 0 -0.25011,-0.25012 0.25,0.25 0 0 0 -0.25012,0.2496 h -0.99994 a 0.25,0.25 0 0 0 -0.25011,-0.2496 0.25,0.25 0 0 0 -0.25011,0.25012 0.25,0.25 0 0 0 0.25011,0.25011 0.25,0.25 0 0 0 5.2e-4,0 v 0.99994 a 0.25,0.25 0 0 0 -5.2e-4,0 0.25,0.25 0 0 0 -0.25011,0.25011 z" /><path
           id="path5"
           style="font-variation-settings:normal;fill:none;fill-opacity:1;stroke:#000000;stroke-width:0.0352778;stroke-linecap:square;stroke-linejoin:miter;stroke-miterlimit:4;stroke-dasharray:none;stroke-dashoffset:0;stroke-opacity:1;paint-order:stroke fill markers;stop-color:#000000"
           d="m 247.37284,97.262498 a 0.25,0.25 0 0 0 0.25011,0.2496 0.25,0.25 0 0 0 0.25011,-0.2496 0.25,0.25 0 0 0 0,-5.1e-4 h 0.99994 a 0.25,0.25 0 0 0 0,5.1e-4 0.25,0.25 0 0 0 0.25012,0.2496 0.25,0.25 0 0 0 0.25011,-0.2496 0.25,0.25 0 0 0 -0.25011,-0.25011 v -0.99994 a 0.25,0.25 0 0 0 0.25011,-0.25011 0.25,0.25 0 0 0 -0.25011,-0.25012 0.25,0.25 0 0 0 -0.25012,0.2496 h -0.99994 a 0.25,0.25 0 0 0 -0.25011,-0.2496 0.25,0.25 0 0 0 -0.25011,0.25012 0.25,0.25 0 0 0 0.25011,0.25011 0.25,0.25 0 0 0 5.2e-4,0 v 0.99994 a 0.25,0.25 0 0 0 -5.2e-4,0 0.25,0.25 0 0 0 -0.25011,0.25011 z" /><path
           id="path6"
           style="font-variation-settings:normal;fill:none;fill-opacity:1;stroke:#000000;stroke-width:0.0352778;stroke-linecap:square;stroke-linejoin:miter;stroke-miterlimit:4;stroke-dasharray:none;stroke-dashoffset:0;stroke-opacity:1;paint-order:stroke fill markers;stop-color:#000000"
           d="m 229.34063,97.262498 a 0.25,0.25 0 0 0 0.25011,0.2496 0.25,0.25 0 0 0 0.25011,-0.2496 0.25,0.25 0 0 0 0,-5.1e-4 h 0.99994 a 0.25,0.25 0 0 0 0,5.1e-4 0.25,0.25 0 0 0 0.25012,0.2496 0.25,0.25 0 0 0 0.25011,-0.2496 0.25,0.25 0 0 0 -0.25011,-0.25011 v -0.99994 a 0.25,0.25 0 0 0 0.25011,-0.25011 0.25,0.25 0 0 0 -0.25011,-0.25012 0.25,0.25 0 0 0 -0.25012,0.2496 h -0.99994 a 0.25,0.25 0 0 0 -0.25011,-0.2496 0.25,0.25 0 0 0 -0.25011,0.25012 0.25,0.25 0 0 0 0.25011,0.25011 0.25,0.25 0 0 0 5.2e-4,0 v 0.99994 a 0.25,0.25 0 0 0 -5.2e-4,0 0.25,0.25 0 0 0 -0.25011,0.25011 z" /><rect
           style="font-variation-settings:normal;fill:none;fill-opacity:1;stroke:#000000;stroke-width:0.0352778;stroke-linecap:square;stroke-linejoin:miter;stroke-miterlimit:4;stroke-dasharray:none;stroke-dashoffset:0;stroke-opacity:1;paint-order:stroke fill markers;stop-color:#000000"
           id="rect6"
           width="39.474102"
           height="34.731472"
           x="-132.93941"
           y="221.99121"
           transform="rotate(-90)" /><path
           id="path7"
           style="font-variation-settings:normal;fill:none;fill-opacity:1;stroke:#000000;stroke-width:0.0352778;stroke-linecap:square;stroke-linejoin:miter;stroke-miterlimit:4;stroke-dasharray:none;stroke-dashoffset:0;stroke-opacity:1;paint-order:stroke fill markers;stop-color:#000000"
           d="m 217.93166,102.62977 v 2.24999 h -3.00033 v 1.50017 h 3.00033 v 2.24999 h 1.49965 v -6.00015 z" /><path
           id="path8"
           style="font-variation-settings:normal;fill:none;fill-opacity:1;stroke:#000000;stroke-width:0.0352778;stroke-linecap:square;stroke-linejoin:miter;stroke-miterlimit:4;stroke-dasharray:none;stroke-dashoffset:0;stroke-opacity:1;paint-order:stroke fill markers;stop-color:#000000"
           d="m 217.93166,117.77481 v 2.24999 h -3.00033 v 1.50017 h 3.00033 v 2.24999 h 1.49965 v -6.00015 z" /><path
           id="path9"
           style="font-variation-settings:normal;fill:none;fill-opacity:1;stroke:#000000;stroke-width:0.0352778;stroke-linecap:square;stroke-linejoin:miter;stroke-miterlimit:4;stroke-dasharray:none;stroke-dashoffset:0;stroke-opacity:1;paint-order:stroke fill markers;stop-color:#000000"
           d="m 259.7266,102.62977 v 2.24999 h 3.00033 v 1.50017 h -3.00033 v 2.24999 h -1.49965 v -6.00015 z" /><path
           id="path10"
           style="font-variation-settings:normal;fill:none;fill-opacity:1;stroke:#000000;stroke-width:0.0352778;stroke-linecap:square;stroke-linejoin:miter;stroke-miterlimit:4;stroke-dasharray:none;stroke-dashoffset:0;stroke-opacity:1;paint-order:stroke fill markers;stop-color:#000000"
           d="m 259.7266,117.77481 v 2.24999 h 3.00033 v 1.50017 h -3.00033 v 2.24999 h -1.49965 v -6.00015 z" /><path
           id="path11"
           style="font-variation-settings:normal;display:inline;fill:none;fill-opacity:1;stroke:#000000;stroke-width:0.0352778;stroke-linecap:square;stroke-linejoin:miter;stroke-miterlimit:4;stroke-dasharray:none;stroke-dashoffset:0;stroke-opacity:1;paint-order:stroke fill markers;stop-color:#000000"
           d="m 209.43444,113.28912 a 1.7,1.7 0 0 0 1.09451,1.5627 0.15243822,0.15243843 0 0 0 -0.0155,0.0672 0.15243822,0.15243843 0 0 0 0.15244,0.15244 0.15243822,0.15243843 0 0 0 0.005,-0.001 28.299999,28.299999 0 0 0 28.16365,26.51879 28.299999,28.299999 0 0 0 28.16263,-26.51724 0.15243822,0.15243843 0 0 0 0.031,0.004 0.15243822,0.15243843 0 0 0 0.15245,-0.15245 0.15243822,0.15243843 0 0 0 -0.0233,-0.0806 1.7,1.7 0 0 0 1.07694,-1.5534 1.7,1.7 0 0 0 -1.08831,-1.55908 0.15243822,0.15243843 0 0 0 0.0186,-0.0723 0.15243822,0.15243843 0 0 0 -0.15245,-0.15245 0.15243822,0.15243843 0 0 0 -0.015,0.001 28.299999,28.299999 0 0 0 -28.16263,-26.517239 28.299999,28.299999 0 0 0 -28.22876,26.534299 0.15243822,0.15243843 0 0 0 -0.0222,-0.002 0.15243822,0.15243843 0 0 0 -0.15245,0.15244 0.15243822,0.15243843 0 0 0 0.0357,0.0941 1.7,1.7 0 0 0 -1.0325,1.52084 z" /></g><path
         id="path12"
         style="font-variation-settings:normal;display:inline;fill:none;fill-opacity:1;stroke:#000000;stroke-width:0.0352778;stroke-linecap:square;stroke-linejoin:miter;stroke-miterlimit:4;stroke-dasharray:none;stroke-dashoffset:0;stroke-opacity:1;paint-order:stroke fill markers;stop-color:#000000"
         d="m 323.26606,230.16159 a 1.7,1.7 0 0 0 -1.5627,1.09451 0.15243843,0.15243822 0 0 0 -0.0672,-0.0155 0.15243843,0.15243822 0 0 0 -0.15244,0.15244 0.15243843,0.15243822 0 0 0 10e-4,0.005 28.299999,28.299999 0 0 0 -26.51879,28.16365 28.299999,28.299999 0 0 0 26.51724,28.16263 0.15243843,0.15243822 0 0 0 -0.004,0.031 0.15243843,0.15243822 0 0 0 0.15245,0.15245 0.15243843,0.15243822 0 0 0 0.0806,-0.0233 1.7,1.7 0 0 0 1.5534,1.07694 1.7,1.7 0 0 0 1.55908,-1.08831 0.15243843,0.15243822 0 0 0 0.0723,0.0186 0.15243843,0.15243822 0 0 0 0.15245,-0.15245 0.15243843,0.15243822 0 0 0 -10e-4,-0.015 28.299999,28.299999 0 0 0 26.51724,-28.16263 28.299999,28.299999 0 0 0 -26.5343,-28.22876 0.15243843,0.15243822 0 0 0 0.002,-0.0222 0.15243843,0.15243822 0 0 0 -0.15244,-0.15245 0.15243843,0.15243822 0 0 0 -0.0941,0.0357 1.7,1.7 0 0 0 -1.52084,-1.0325 z" /><g
         id="g33"
         transform="rotate(90,207.91401,228.64117)"
         style="stroke:#000000;stroke-width:0.0352778;stroke-dasharray:none"><path
           id="path13"
           style="font-variation-settings:normal;fill:none;fill-opacity:1;stroke:#000000;stroke-width:0.0352778;stroke-linecap:square;stroke-linejoin:miter;stroke-miterlimit:4;stroke-dasharray:none;stroke-dashoffset:0;stroke-opacity:1;paint-order:stroke fill markers;stop-color:#000000"
           d="m 229.34063,130.64288 a 0.25,0.25 0 0 0 0.25011,0.2496 0.25,0.25 0 0 0 0.25011,-0.2496 0.25,0.25 0 0 0 0,-5.1e-4 h 0.99994 a 0.25,0.25 0 0 0 0,5.1e-4 0.25,0.25 0 0 0 0.25012,0.2496 0.25,0.25 0 0 0 0.25011,-0.2496 0.25,0.25 0 0 0 -0.25011,-0.25011 v -0.99994 a 0.25,0.25 0 0 0 0.25011,-0.25011 0.25,0.25 0 0 0 -0.25011,-0.25012 0.25,0.25 0 0 0 -0.25012,0.2496 h -0.99994 a 0.25,0.25 0 0 0 -0.25011,-0.2496 0.25,0.25 0 0 0 -0.25011,0.25012 0.25,0.25 0 0 0 0.25011,0.25011 0.25,0.25 0 0 0 5.2e-4,0 v 0.99994 a 0.25,0.25 0 0 0 -5.2e-4,0 0.25,0.25 0 0 0 -0.25011,0.25011 z" /><path
           id="path14"
           style="font-variation-settings:normal;fill:none;fill-opacity:1;stroke:#000000;stroke-width:0.0352778;stroke-linecap:square;stroke-linejoin:miter;stroke-miterlimit:4;stroke-dasharray:none;stroke-dashoffset:0;stroke-opacity:1;paint-order:stroke fill markers;stop-color:#000000"
           d="m 247.37284,130.64288 a 0.25,0.25 0 0 0 0.25011,0.2496 0.25,0.25 0 0 0 0.25011,-0.2496 0.25,0.25 0 0 0 0,-5.1e-4 h 0.99994 a 0.25,0.25 0 0 0 0,5.1e-4 0.25,0.25 0 0 0 0.25012,0.2496 0.25,0.25 0 0 0 0.25011,-0.2496 0.25,0.25 0 0 0 -0.25011,-0.25011 v -0.99994 a 0.25,0.25 0 0 0 0.25011,-0.25011 0.25,0.25 0 0 0 -0.25011,-0.25012 0.25,0.25 0 0 0 -0.25012,0.2496 h -0.99994 a 0.25,0.25 0 0 0 -0.25011,-0.2496 0.25,0.25 0 0 0 -0.25011,0.25012 0.25,0.25 0 0 0 0.25011,0.25011 0.25,0.25 0 0 0 5.2e-4,0 v 0.99994 a 0.25,0.25 0 0 0 -5.2e-4,0 0.25,0.25 0 0 0 -0.25011,0.25011 z" /><path
           id="path15"
           style="font-variation-settings:normal;fill:none;fill-opacity:1;stroke:#000000;stroke-width:0.0352778;stroke-linecap:square;stroke-linejoin:miter;stroke-miterlimit:4;stroke-dasharray:none;stroke-dashoffset:0;stroke-opacity:1;paint-order:stroke fill markers;stop-color:#000000"
           d="m 247.37284,97.262498 a 0.25,0.25 0 0 0 0.25011,0.2496 0.25,0.25 0 0 0 0.25011,-0.2496 0.25,0.25 0 0 0 0,-5.1e-4 h 0.99994 a 0.25,0.25 0 0 0 0,5.1e-4 0.25,0.25 0 0 0 0.25012,0.2496 0.25,0.25 0 0 0 0.25011,-0.2496 0.25,0.25 0 0 0 -0.25011,-0.25011 v -0.99994 a 0.25,0.25 0 0 0 0.25011,-0.25011 0.25,0.25 0 0 0 -0.25011,-0.25012 0.25,0.25 0 0 0 -0.25012,0.2496 h -0.99994 a 0.25,0.25 0 0 0 -0.25011,-0.2496 0.25,0.25 0 0 0 -0.25011,0.25012 0.25,0.25 0 0 0 0.25011,0.25011 0.25,0.25 0 0 0 5.2e-4,0 v 0.99994 a 0.25,0.25 0 0 0 -5.2e-4,0 0.25,0.25 0 0 0 -0.25011,0.25011 z" /><path
           id="path26"
           style="font-variation-settings:normal;fill:none;fill-opacity:1;stroke:#000000;stroke-width:0.0352778;stroke-linecap:square;stroke-linejoin:miter;stroke-miterlimit:4;stroke-dasharray:none;stroke-dashoffset:0;stroke-opacity:1;paint-order:stroke fill markers;stop-color:#000000"
           d="m 229.34063,97.262498 a 0.25,0.25 0 0 0 0.25011,0.2496 0.25,0.25 0 0 0 0.25011,-0.2496 0.25,0.25 0 0 0 0,-5.1e-4 h 0.99994 a 0.25,0.25 0 0 0 0,5.1e-4 0.25,0.25 0 0 0 0.25012,0.2496 0.25,0.25 0 0 0 0.25011,-0.2496 0.25,0.25 0 0 0 -0.25011,-0.25011 v -0.99994 a 0.25,0.25 0 0 0 0.25011,-0.25011 0.25,0.25 0 0 0 -0.25011,-0.25012 0.25,0.25 0 0 0 -0.25012,0.2496 h -0.99994 a 0.25,0.25 0 0 0 -0.25011,-0.2496 0.25,0.25 0 0 0 -0.25011,0.25012 0.25,0.25 0 0 0 0.25011,0.25011 0.25,0.25 0 0 0 5.2e-4,0 v 0.99994 a 0.25,0.25 0 0 0 -5.2e-4,0 0.25,0.25 0 0 0 -0.25011,0.25011 z" /><rect
           style="font-variation-settings:normal;fill:none;fill-opacity:1;stroke:#000000;stroke-width:0.0352778;stroke-linecap:square;stroke-linejoin:miter;stroke-miterlimit:4;stroke-dasharray:none;stroke-dashoffset:0;stroke-opacity:1;paint-order:stroke fill markers;stop-color:#000000"
           id="rect26"
           width="39.474102"
           height="34.731472"
           x="-132.93941"
           y="221.99121"
           transform="rotate(-90)" /><path
           id="path27"
           style="font-variation-settings:normal;fill:none;fill-opacity:1;stroke:#000000;stroke-width:0.0352778;stroke-linecap:square;stroke-linejoin:miter;stroke-miterlimit:4;stroke-dasharray:none;stroke-dashoffset:0;stroke-opacity:1;paint-order:stroke fill markers;stop-color:#000000"
           d="m 217.93166,102.62977 v 2.24999 h -3.00033 v 1.50017 h 3.00033 v 2.24999 h 1.49965 v -6.00015 z" /><path
           id="path28"
           style="font-variation-settings:normal;fill:none;fill-opacity:1;stroke:#000000;stroke-width:0.0352778;stroke-linecap:square;stroke-linejoin:miter;stroke-miterlimit:4;stroke-dasharray:none;stroke-dashoffset:0;stroke-opacity:1;paint-order:stroke fill markers;stop-color:#000000"
           d="m 217.93166,117.77481 v 2.24999 h -3.00033 v 1.50017 h 3.00033 v 2.24999 h 1.49965 v -6.00015 z" /><path
           id="path31"
           style="font-variation-settings:normal;fill:none;fill-opacity:1;stroke:#000000;stroke-width:0.0352778;stroke-linecap:square;stroke-linejoin:miter;stroke-miterlimit:4;stroke-dasharray:none;stroke-dashoffset:0;stroke-opacity:1;paint-order:stroke fill markers;stop-color:#000000"
           d="m 259.7266,102.62977 v 2.24999 h 3.00033 v 1.50017 h -3.00033 v 2.24999 h -1.49965 v -6.00015 z" /><path
           id="path32"
           style="font-variation-settings:normal;fill:none;fill-opacity:1;stroke:#000000;stroke-width:0.0352778;stroke-linecap:square;stroke-linejoin:miter;stroke-miterlimit:4;stroke-dasharray:none;stroke-dashoffset:0;stroke-opacity:1;paint-order:stroke fill markers;stop-color:#000000"
           d="m 259.7266,117.77481 v 2.24999 h 3.00033 v 1.50017 h -3.00033 v 2.24999 h -1.49965 v -6.00015 z" /></g><g
         id="g56"
         transform="rotate(90,129.51871,150.24586)"
         style="stroke:#000000;stroke-width:0.0352778;stroke-dasharray:none"><path
           id="path41"
           style="font-variation-settings:normal;fill:none;fill-opacity:1;stroke:#000000;stroke-width:0.0352778;stroke-linecap:square;stroke-linejoin:miter;stroke-miterlimit:4;stroke-dasharray:none;stroke-dashoffset:0;stroke-opacity:1;paint-order:stroke fill markers;stop-color:#000000"
           d="m 229.34063,130.64288 a 0.25,0.25 0 0 0 0.25011,0.2496 0.25,0.25 0 0 0 0.25011,-0.2496 0.25,0.25 0 0 0 0,-5.1e-4 h 0.99994 a 0.25,0.25 0 0 0 0,5.1e-4 0.25,0.25 0 0 0 0.25012,0.2496 0.25,0.25 0 0 0 0.25011,-0.2496 0.25,0.25 0 0 0 -0.25011,-0.25011 v -0.99994 a 0.25,0.25 0 0 0 0.25011,-0.25011 0.25,0.25 0 0 0 -0.25011,-0.25012 0.25,0.25 0 0 0 -0.25012,0.2496 h -0.99994 a 0.25,0.25 0 0 0 -0.25011,-0.2496 0.25,0.25 0 0 0 -0.25011,0.25012 0.25,0.25 0 0 0 0.25011,0.25011 0.25,0.25 0 0 0 5.2e-4,0 v 0.99994 a 0.25,0.25 0 0 0 -5.2e-4,0 0.25,0.25 0 0 0 -0.25011,0.25011 z" /><path
           id="path47"
           style="font-variation-settings:normal;fill:none;fill-opacity:1;stroke:#000000;stroke-width:0.0352778;stroke-linecap:square;stroke-linejoin:miter;stroke-miterlimit:4;stroke-dasharray:none;stroke-dashoffset:0;stroke-opacity:1;paint-order:stroke fill markers;stop-color:#000000"
           d="m 247.37284,130.64288 a 0.25,0.25 0 0 0 0.25011,0.2496 0.25,0.25 0 0 0 0.25011,-0.2496 0.25,0.25 0 0 0 0,-5.1e-4 h 0.99994 a 0.25,0.25 0 0 0 0,5.1e-4 0.25,0.25 0 0 0 0.25012,0.2496 0.25,0.25 0 0 0 0.25011,-0.2496 0.25,0.25 0 0 0 -0.25011,-0.25011 v -0.99994 a 0.25,0.25 0 0 0 0.25011,-0.25011 0.25,0.25 0 0 0 -0.25011,-0.25012 0.25,0.25 0 0 0 -0.25012,0.2496 h -0.99994 a 0.25,0.25 0 0 0 -0.25011,-0.2496 0.25,0.25 0 0 0 -0.25011,0.25012 0.25,0.25 0 0 0 0.25011,0.25011 0.25,0.25 0 0 0 5.2e-4,0 v 0.99994 a 0.25,0.25 0 0 0 -5.2e-4,0 0.25,0.25 0 0 0 -0.25011,0.25011 z" /><path
           id="path51"
           style="font-variation-settings:normal;fill:none;fill-opacity:1;stroke:#000000;stroke-width:0.0352778;stroke-linecap:square;stroke-linejoin:miter;stroke-miterlimit:4;stroke-dasharray:none;stroke-dashoffset:0;stroke-opacity:1;paint-order:stroke fill markers;stop-color:#000000"
           d="m 247.37284,97.262498 a 0.25,0.25 0 0 0 0.25011,0.2496 0.25,0.25 0 0 0 0.25011,-0.2496 0.25,0.25 0 0 0 0,-5.1e-4 h 0.99994 a 0.25,0.25 0 0 0 0,5.1e-4 0.25,0.25 0 0 0 0.25012,0.2496 0.25,0.25 0 0 0 0.25011,-0.2496 0.25,0.25 0 0 0 -0.25011,-0.25011 v -0.99994 a 0.25,0.25 0 0 0 0.25011,-0.25011 0.25,0.25 0 0 0 -0.25011,-0.25012 0.25,0.25 0 0 0 -0.25012,0.2496 h -0.99994 a 0.25,0.25 0 0 0 -0.25011,-0.2496 0.25,0.25 0 0 0 -0.25011,0.25012 0.25,0.25 0 0 0 0.25011,0.25011 0.25,0.25 0 0 0 5.2e-4,0 v 0.99994 a 0.25,0.25 0 0 0 -5.2e-4,0 0.25,0.25 0 0 0 -0.25011,0.25011 z" /><path
           id="path52"
           style="font-variation-settings:normal;fill:none;fill-opacity:1;stroke:#000000;stroke-width:0.0352778;stroke-linecap:square;stroke-linejoin:miter;stroke-miterlimit:4;stroke-dasharray:none;stroke-dashoffset:0;stroke-opacity:1;paint-order:stroke fill markers;stop-color:#000000"
           d="m 229.34063,97.262498 a 0.25,0.25 0 0 0 0.25011,0.2496 0.25,0.25 0 0 0 0.25011,-0.2496 0.25,0.25 0 0 0 0,-5.1e-4 h 0.99994 a 0.25,0.25 0 0 0 0,5.1e-4 0.25,0.25 0 0 0 0.25012,0.2496 0.25,0.25 0 0 0 0.25011,-0.2496 0.25,0.25 0 0 0 -0.25011,-0.25011 v -0.99994 a 0.25,0.25 0 0 0 0.25011,-0.25011 0.25,0.25 0 0 0 -0.25011,-0.25012 0.25,0.25 0 0 0 -0.25012,0.2496 h -0.99994 a 0.25,0.25 0 0 0 -0.25011,-0.2496 0.25,0.25 0 0 0 -0.25011,0.25012 0.25,0.25 0 0 0 0.25011,0.25011 0.25,0.25 0 0 0 5.2e-4,0 v 0.99994 a 0.25,0.25 0 0 0 -5.2e-4,0 0.25,0.25 0 0 0 -0.25011,0.25011 z" /><rect
           style="font-variation-settings:normal;fill:none;fill-opacity:1;stroke:#000000;stroke-width:0.0352778;stroke-linecap:square;stroke-linejoin:miter;stroke-miterlimit:4;stroke-dasharray:none;stroke-dashoffset:0;stroke-opacity:1;paint-order:stroke fill markers;stop-color:#000000"
           id="rect52"
           width="39.474102"
           height="34.731472"
           x="-132.93941"
           y="221.99121"
           transform="rotate(-90)" /><path
           id="path53"
           style="font-variation-settings:normal;fill:none;fill-opacity:1;stroke:#000000;stroke-width:0.0352778;stroke-linecap:square;stroke-linejoin:miter;stroke-miterlimit:4;stroke-dasharray:none;stroke-dashoffset:0;stroke-opacity:1;paint-order:stroke fill markers;stop-color:#000000"
           d="m 217.93166,102.62977 v 2.24999 h -3.00033 v 1.50017 h 3.00033 v 2.24999 h 1.49965 v -6.00015 z" /><path
           id="path54"
           style="font-variation-settings:normal;fill:none;fill-opacity:1;stroke:#000000;stroke-width:0.0352778;stroke-linecap:square;stroke-linejoin:miter;stroke-miterlimit:4;stroke-dasharray:none;stroke-dashoffset:0;stroke-opacity:1;paint-order:stroke fill markers;stop-color:#000000"
           d="m 217.93166,117.77481 v 2.24999 h -3.00033 v 1.50017 h 3.00033 v 2.24999 h 1.49965 v -6.00015 z" /><path
           id="path55"
           style="font-variation-settings:normal;fill:none;fill-opacity:1;stroke:#000000;stroke-width:0.0352778;stroke-linecap:square;stroke-linejoin:miter;stroke-miterlimit:4;stroke-dasharray:none;stroke-dashoffset:0;stroke-opacity:1;paint-order:stroke fill markers;stop-color:#000000"
           d="m 259.7266,102.62977 v 2.24999 h 3.00033 v 1.50017 h -3.00033 v 2.24999 h -1.49965 v -6.00015 z" /><path
           id="path56"
           style="font-variation-settings:normal;fill:none;fill-opacity:1;stroke:#000000;stroke-width:0.0352778;stroke-linecap:square;stroke-linejoin:miter;stroke-miterlimit:4;stroke-dasharray:none;stroke-dashoffset:0;stroke-opacity:1;paint-order:stroke fill markers;stop-color:#000000"
           d="m 259.7266,117.77481 v 2.24999 h 3.00033 v 1.50017 h -3.00033 v 2.24999 h -1.49965 v -6.00015 z" /></g><g
         id="g64"
         transform="rotate(90,90.32116,111.04831)"
         style="stroke:#000000;stroke-width:0.0352778;stroke-dasharray:none"><path
           id="path57"
           style="font-variation-settings:normal;fill:none;fill-opacity:1;stroke:#000000;stroke-width:0.0352778;stroke-linecap:square;stroke-linejoin:miter;stroke-miterlimit:4;stroke-dasharray:none;stroke-dashoffset:0;stroke-opacity:1;paint-order:stroke fill markers;stop-color:#000000"
           d="m 229.34063,130.64288 a 0.25,0.25 0 0 0 0.25011,0.2496 0.25,0.25 0 0 0 0.25011,-0.2496 0.25,0.25 0 0 0 0,-5.1e-4 h 0.99994 a 0.25,0.25 0 0 0 0,5.1e-4 0.25,0.25 0 0 0 0.25012,0.2496 0.25,0.25 0 0 0 0.25011,-0.2496 0.25,0.25 0 0 0 -0.25011,-0.25011 v -0.99994 a 0.25,0.25 0 0 0 0.25011,-0.25011 0.25,0.25 0 0 0 -0.25011,-0.25012 0.25,0.25 0 0 0 -0.25012,0.2496 h -0.99994 a 0.25,0.25 0 0 0 -0.25011,-0.2496 0.25,0.25 0 0 0 -0.25011,0.25012 0.25,0.25 0 0 0 0.25011,0.25011 0.25,0.25 0 0 0 5.2e-4,0 v 0.99994 a 0.25,0.25 0 0 0 -5.2e-4,0 0.25,0.25 0 0 0 -0.25011,0.25011 z" /><path
           id="path58"
           style="font-variation-settings:normal;fill:none;fill-opacity:1;stroke:#000000;stroke-width:0.0352778;stroke-linecap:square;stroke-linejoin:miter;stroke-miterlimit:4;stroke-dasharray:none;stroke-dashoffset:0;stroke-opacity:1;paint-order:stroke fill markers;stop-color:#000000"
           d="m 247.37284,130.64288 a 0.25,0.25 0 0 0 0.25011,0.2496 0.25,0.25 0 0 0 0.25011,-0.2496 0.25,0.25 0 0 0 0,-5.1e-4 h 0.99994 a 0.25,0.25 0 0 0 0,5.1e-4 0.25,0.25 0 0 0 0.25012,0.2496 0.25,0.25 0 0 0 0.25011,-0.2496 0.25,0.25 0 0 0 -0.25011,-0.25011 v -0.99994 a 0.25,0.25 0 0 0 0.25011,-0.25011 0.25,0.25 0 0 0 -0.25011,-0.25012 0.25,0.25 0 0 0 -0.25012,0.2496 h -0.99994 a 0.25,0.25 0 0 0 -0.25011,-0.2496 0.25,0.25 0 0 0 -0.25011,0.25012 0.25,0.25 0 0 0 0.25011,0.25011 0.25,0.25 0 0 0 5.2e-4,0 v 0.99994 a 0.25,0.25 0 0 0 -5.2e-4,0 0.25,0.25 0 0 0 -0.25011,0.25011 z" /><path
           id="path59"
           style="font-variation-settings:normal;fill:none;fill-opacity:1;stroke:#000000;stroke-width:0.0352778;stroke-linecap:square;stroke-linejoin:miter;stroke-miterlimit:4;stroke-dasharray:none;stroke-dashoffset:0;stroke-opacity:1;paint-order:stroke fill markers;stop-color:#000000"
           d="m 247.37284,97.262498 a 0.25,0.25 0 0 0 0.25011,0.2496 0.25,0.25 0 0 0 0.25011,-0.2496 0.25,0.25 0 0 0 0,-5.1e-4 h 0.99994 a 0.25,0.25 0 0 0 0,5.1e-4 0.25,0.25 0 0 0 0.25012,0.2496 0.25,0.25 0 0 0 0.25011,-0.2496 0.25,0.25 0 0 0 -0.25011,-0.25011 v -0.99994 a 0.25,0.25 0 0 0 0.25011,-0.25011 0.25,0.25 0 0 0 -0.25011,-0.25012 0.25,0.25 0 0 0 -0.25012,0.2496 h -0.99994 a 0.25,0.25 0 0 0 -0.25011,-0.2496 0.25,0.25 0 0 0 -0.25011,0.25012 0.25,0.25 0 0 0 0.25011,0.25011 0.25,0.25 0 0 0 5.2e-4,0 v 0.99994 a 0.25,0.25 0 0 0 -5.2e-4,0 0.25,0.25 0 0 0 -0.25011,0.25011 z" /><path
           id="path60"
           style="font-variation-settings:normal;fill:none;fill-opacity:1;stroke:#000000;stroke-width:0.0352778;stroke-linecap:square;stroke-linejoin:miter;stroke-miterlimit:4;stroke-dasharray:none;stroke-dashoffset:0;stroke-opacity:1;paint-order:stroke fill markers;stop-color:#000000"
           d="m 229.34063,97.262498 a 0.25,0.25 0 0 0 0.25011,0.2496 0.25,0.25 0 0 0 0.25011,-0.2496 0.25,0.25 0 0 0 0,-5.1e-4 h 0.99994 a 0.25,0.25 0 0 0 0,5.1e-4 0.25,0.25 0 0 0 0.25012,0.2496 0.25,0.25 0 0 0 0.25011,-0.2496 0.25,0.25 0 0 0 -0.25011,-0.25011 v -0.99994 a 0.25,0.25 0 0 0 0.25011,-0.25011 0.25,0.25 0 0 0 -0.25011,-0.25012 0.25,0.25 0 0 0 -0.25012,0.2496 h -0.99994 a 0.25,0.25 0 0 0 -0.25011,-0.2496 0.25,0.25 0 0 0 -0.25011,0.25012 0.25,0.25 0 0 0 0.25011,0.25011 0.25,0.25 0 0 0 5.2e-4,0 v 0.99994 a 0.25,0.25 0 0 0 -5.2e-4,0 0.25,0.25 0 0 0 -0.25011,0.25011 z" /><rect
           style="font-variation-settings:normal;fill:none;fill-opacity:1;stroke:#000000;stroke-width:0.0352778;stroke-linecap:square;stroke-linejoin:miter;stroke-miterlimit:4;stroke-dasharray:none;stroke-dashoffset:0;stroke-opacity:1;paint-order:stroke fill markers;stop-color:#000000"
           id="rect60"
           width="39.474102"
           height="34.731472"
           x="-132.93941"
           y="221.99121"
           transform="rotate(-90)" /><path
           id="path61"
           style="font-variation-settings:normal;fill:none;fill-opacity:1;stroke:#000000;stroke-width:0.0352778;stroke-linecap:square;stroke-linejoin:miter;stroke-miterlimit:4;stroke-dasharray:none;stroke-dashoffset:0;stroke-opacity:1;paint-order:stroke fill markers;stop-color:#000000"
           d="m 217.93166,102.62977 v 2.24999 h -3.00033 v 1.50017 h 3.00033 v 2.24999 h 1.49965 v -6.00015 z" /><path
           id="path62"
           style="font-variation-settings:normal;fill:none;fill-opacity:1;stroke:#000000;stroke-width:0.0352778;stroke-linecap:square;stroke-linejoin:miter;stroke-miterlimit:4;stroke-dasharray:none;stroke-dashoffset:0;stroke-opacity:1;paint-order:stroke fill markers;stop-color:#000000"
           d="m 217.93166,117.77481 v 2.24999 h -3.00033 v 1.50017 h 3.00033 v 2.24999 h 1.49965 v -6.00015 z" /><path
           id="path63"
           style="font-variation-settings:normal;fill:none;fill-opacity:1;stroke:#000000;stroke-width:0.0352778;stroke-linecap:square;stroke-linejoin:miter;stroke-miterlimit:4;stroke-dasharray:none;stroke-dashoffset:0;stroke-opacity:1;paint-order:stroke fill markers;stop-color:#000000"
           d="m 259.7266,102.62977 v 2.24999 h 3.00033 v 1.50017 h -3.00033 v 2.24999 h -1.49965 v -6.00015 z" /><path
           id="path64"
           style="font-variation-settings:normal;fill:none;fill-opacity:1;stroke:#000000;stroke-width:0.0352778;stroke-linecap:square;stroke-linejoin:miter;stroke-miterlimit:4;stroke-dasharray:none;stroke-dashoffset:0;stroke-opacity:1;paint-order:stroke fill markers;stop-color:#000000"
           d="m 259.7266,117.77481 v 2.24999 h 3.00033 v 1.50017 h -3.00033 v 2.24999 h -1.49965 v -6.00015 z" /></g><circle
         style="font-variation-settings:normal;display:inline;fill:none;fill-opacity:1;stroke:#000000;stroke-width:0.0352778;stroke-linecap:square;stroke-linejoin:miter;stroke-miterlimit:4;stroke-dasharray:none;stroke-dashoffset:0;stroke-opacity:1;paint-order:stroke fill markers;stop-color:#000000"
         id="circle64"
         cx="259.55627"
         cy="-166.47519"
         r="30.977749"
         transform="rotate(90)" /><circle
         style="font-variation-settings:normal;display:inline;fill:none;fill-opacity:1;stroke:#000000;stroke-width:0.0352778;stroke-linecap:square;stroke-linejoin:miter;stroke-miterlimit:4;stroke-dasharray:none;stroke-dashoffset:0;stroke-opacity:1;paint-order:stroke fill markers;stop-color:#000000"
         id="circle65"
         cx="259.55627"
         cy="-88.080093"
         r="30.977749"
         transform="rotate(90)" /><circle
         style="font-variation-settings:normal;display:inline;fill:none;fill-opacity:1;stroke:#000000;stroke-width:0.0352778;stroke-linecap:square;stroke-linejoin:miter;stroke-miterlimit:4;stroke-dasharray:none;stroke-dashoffset:0;stroke-opacity:1;paint-order:stroke fill markers;stop-color:#000000"
         id="circle66"
         cx="259.55627"
         cy="-323.26581"
         r="30.977749"
         transform="rotate(90)" /></g></g></svg>
