<?xml version="1.0" encoding="UTF-8" standalone="no"?>
<!-- Created with Inkscape (http://www.inkscape.org/) -->

<svg
   width="308mm"
   height="194mm"
   viewBox="0 0 308 194.00001"
   version="1.1"
   id="svg1"
   xml:space="preserve"
   sodipodi:docname="Miku_Panel_Guide.svg"
   inkscape:version="1.4 (e7c3feb1, 2024-10-09)"
   xmlns:inkscape="http://www.inkscape.org/namespaces/inkscape"
   xmlns:sodipodi="http://sodipodi.sourceforge.net/DTD/sodipodi-0.dtd"
   xmlns="http://www.w3.org/2000/svg"
   xmlns:svg="http://www.w3.org/2000/svg"
   xmlns:rdf="http://www.w3.org/1999/02/22-rdf-syntax-ns#"
   xmlns:cc="http://creativecommons.org/ns#"
   xmlns:dc="http://purl.org/dc/elements/1.1/"><title
     id="title55">Diva Mini Panel Laser Cutter Design Guide</title><sodipodi:namedview
     id="namedview1"
     pagecolor="#0e0e0e"
     bordercolor="#666666"
     borderopacity="1.0"
     inkscape:showpageshadow="2"
     inkscape:pageopacity="0.0"
     inkscape:pagecheckerboard="0"
     inkscape:deskcolor="#d1d1d1"
     inkscape:document-units="mm"
     inkscape:zoom="0.49282839"
     inkscape:cx="412.92264"
     inkscape:cy="537.71253"
     inkscape:window-width="1440"
     inkscape:window-height="847"
     inkscape:window-x="0"
     inkscape:window-y="25"
     inkscape:window-maximized="1"
     inkscape:current-layer="svg1" /><defs
     id="defs1"><inkscape:perspective
       sodipodi:type="inkscape:persp3d"
       inkscape:vp_x="0 : 41.600015 : 1"
       inkscape:vp_y="0 : 1000 : 0"
       inkscape:vp_z="609.60001 : 41.600015 : 1"
       inkscape:persp3d-origin="304.80001 : -9.1999859 : 1"
       id="perspective2" /></defs><metadata
     id="metadata3192"><rdf:RDF><cc:Work
         rdf:about=""><dc:title>Diva Mini Panel Laser Cutter Design Guide</dc:title></cc:Work></rdf:RDF></metadata><g
     inkscape:groupmode="layer"
     id="layer3"
     inkscape:label="Bottom Panel Only"
     style="display:inline"
     sodipodi:insensitive="true"><g
       id="g1608"
       style="font-variation-settings:normal;fill:none;fill-opacity:1;stroke:#ff00ff;stroke-width:0.4;stroke-linecap:square;stroke-linejoin:miter;stroke-miterlimit:4;stroke-dasharray:none;stroke-dashoffset:0;stroke-opacity:1;paint-order:stroke fill markers;stop-color:#000000"
       transform="translate(-953.99998,3.3272958e-5)"><rect
         style="font-variation-settings:normal;opacity:1;fill:none;fill-opacity:1;stroke:#ff00ff;stroke-width:0.4;stroke-linecap:square;stroke-linejoin:miter;stroke-miterlimit:4;stroke-dasharray:none;stroke-dashoffset:0;stroke-opacity:1;paint-order:stroke fill markers;stop-color:#000000;stop-opacity:1"
         id="rect1606"
         width="31.683001"
         height="21.523001"
         x="1021.3377"
         y="73.663902" /><rect
         style="font-variation-settings:normal;opacity:1;fill:none;fill-opacity:1;stroke:#ff00ff;stroke-width:0.4;stroke-linecap:square;stroke-linejoin:miter;stroke-miterlimit:4;stroke-dasharray:none;stroke-dashoffset:0;stroke-opacity:1;paint-order:stroke fill markers;stop-color:#000000;stop-opacity:1"
         id="rect1607"
         width="31.683001"
         height="21.523001"
         x="1089.6177"
         y="73.663902" /><rect
         style="font-variation-settings:normal;opacity:1;fill:none;fill-opacity:1;stroke:#ff00ff;stroke-width:0.4;stroke-linecap:square;stroke-linejoin:miter;stroke-miterlimit:4;stroke-dasharray:none;stroke-dashoffset:0;stroke-opacity:1;paint-order:stroke fill markers;stop-color:#000000;stop-opacity:1"
         id="rect1608"
         width="31.683001"
         height="21.523001"
         x="1157.8977"
         y="73.663902" /></g></g><g
     inkscape:groupmode="layer"
     id="layer6"
     inkscape:label="Bottom and Center Panels"
     style="display:inline"
     sodipodi:insensitive="true"><path
       id="path6302"
       style="font-variation-settings:normal;fill:none;fill-opacity:1;stroke:#ff8000;stroke-width:0.4;stroke-linecap:square;stroke-linejoin:miter;stroke-miterlimit:4;stroke-dasharray:none;stroke-dashoffset:0;stroke-opacity:1;paint-order:stroke fill markers;stop-color:#000000"
       d="m 55.67163,59.393543 -5e-4,5.2e-4 v 0.49919 l 5e-4,5.2e-4 h 2.498 v 0.99994 h 1.4997 5e-4 v -0.99994 h 4.378 v 0.99994 h 1.4997 v -0.99994 h 2.4985 6e-4 2.498 v 0.99994 h 1.5002 v -0.99994 h 4.378 v 0.99994 h 1.4996 6e-4 v -0.99994 h 2.498 5e-4 2.4981 v 0.99994 h 1.5001 v -0.99994 h 4.378 v 0.99994 h 1.5002 v -0.99994 h 2.4981 5e-4 2.498 v 0.99994 h 1.5002 v -0.99994 h 4.378 v 0.99994 h 1.5002 v -0.99994 h 2.498 5e-4 2.4981 v 0.99994 h 1.5001 v -0.99994 h 4.3781 v 0.99994 h 1.5001 v -0.99994 h 2.4981 5e-4 2.498 v 0.99994 h 1.5002 v -0.99994 h 4.378 v 0.99994 h 1.5002 v -0.99994 h 2.498 5e-4 2.4981 v 0.99994 h 1.5001 v -0.99994 h 4.3781 v 0.99994 h 1.5001 v -0.99994 h 2.4981 5e-4 2.498 v 0.99994 h 5e-4 1.4997 v -0.99994 h 4.378 v 0.99994 h 1.5002 v -0.99994 h 2.498 5e-4 2.4986 v 0.99994 h 1.4996 v -0.99994 h 4.3781 v 0.99994 h 5e-4 1.4996 v -0.99994 h 2.4981 5e-4 2.4986 v 0.99994 h 1.4996 v -0.99994 h 4.3785 v 0.99994 h 1.4997 v -0.99994 h 2.498 l 6e-4,-5.2e-4 5e-4,5.2e-4 h 2.498 v 0.99994 h 1.4997 v -0.99994 h 4.3785 v 0.99994 h 1.4997 v -0.99994 h 2.4985 5e-4 2.4981 v 0.99994 h 1.4996 5e-4 v -0.99994 h 4.3781 v 0.99994 h 1.4996 v -0.99994 h 2.4986 5e-4 2.498 v 0.99994 h 1.5002 v -0.99994 h 4.378 v 0.99994 h 1.4997 v -0.99994 h 2.4985 5e-4 2.4981 v 0.99994 h 1.5001 v -0.99994 h 4.3781 v 0.99994 h 1.4996 5e-4 v -0.99994 h 2.4981 5e-4 2.498 v 0.99994 h 1.5002 v -0.99994 h 4.378 v 0.99994 h 1.5002 v -0.99994 h 2.498 5e-4 2.4981 v 0.99994 h 1.5002 v -0.99994 h 4.378 v 0.99994 h 1.5001 v -0.99994 h 2.4981 l 5e-4,-5.2e-4 v -0.49919 l -5e-4,-5.2e-4 h -8.3762 -1.5002 -2.4981 -5e-4 -12.3744 -5e-4 -12.3745 -5e-4 -12.3744 -5e-4 -12.3745 -5e-4 -12.3744 l -5e-4,5.2e-4 -6e-4,-5.2e-4 h -12.3744 -5e-4 -12.3745 -5e-4 -12.3744 -5e-4 -12.3745 -5e-4 -12.3744 -5e-4 -12.3745 -5e-4 -12.3744 -5e-4 -12.3745 -5e-4 -12.3744 -6e-4 z" /><rect
       style="font-variation-settings:normal;opacity:1;vector-effect:none;fill:none;fill-opacity:1;stroke:#ff8000;stroke-width:0.4;stroke-linecap:square;stroke-linejoin:miter;stroke-miterlimit:4;stroke-dasharray:none;stroke-dashoffset:0;stroke-opacity:1;-inkscape-stroke:none;paint-order:stroke fill markers;stop-color:#000000;stop-opacity:1"
       id="rect4005"
       width="304.79999"
       height="194"
       x="1.6000061"
       y="-2.0428104e-14" /></g><g
     inkscape:groupmode="layer"
     id="layer2"
     inkscape:label="Center Panel Only"
     style="display:inline"
     sodipodi:insensitive="true"><g
       id="g3"
       transform="rotate(-90,201.22294,199.62294)"><rect
         style="font-variation-settings:normal;fill:none;fill-opacity:1;stroke:#00ffff;stroke-width:0.4;stroke-linecap:square;stroke-linejoin:miter;stroke-miterlimit:4;stroke-dasharray:none;stroke-dashoffset:0;stroke-opacity:1;paint-order:stroke fill markers;stop-color:#000000"
         id="rect1605"
         width="205.84"
         height="33.200001"
         x="53.546017"
         y="-338.69424"
         transform="rotate(90)" /></g></g><g
     inkscape:groupmode="layer"
     id="layer1"
     inkscape:label="Top Panel Only"
     style="display:inline"
     sodipodi:insensitive="true"><rect
       style="font-variation-settings:normal;opacity:1;vector-effect:none;fill:none;fill-opacity:1;stroke:#00ff00;stroke-width:0.4;stroke-linecap:square;stroke-linejoin:miter;stroke-miterlimit:4;stroke-dasharray:none;stroke-dashoffset:0;stroke-opacity:1;-inkscape-stroke:none;paint-order:stroke fill markers;stop-color:#000000;stop-opacity:1"
       id="rect4006"
       width="308"
       height="194"
       x="0"
       y="0" /></g><g
     inkscape:groupmode="layer"
     id="layer4"
     inkscape:label="All Panels"
     style="display:inline"
     sodipodi:insensitive="true"><g
       id="g3192"
       transform="translate(-953.99998,3.3272958e-5)"
       style="stroke:#00ff00;stroke-width:0.4;stroke-dasharray:none;stroke-opacity:1"><circle
         style="font-variation-settings:normal;fill:none;fill-opacity:1;stroke:#00ff00;stroke-width:0.4;stroke-linecap:square;stroke-linejoin:miter;stroke-miterlimit:4;stroke-dasharray:none;stroke-dashoffset:0;stroke-opacity:1;paint-order:stroke fill markers;stop-color:#000000"
         id="circle5832"
         cx="968.27527"
         cy="14.133603"
         r="2.4926522" /><circle
         style="font-variation-settings:normal;fill:none;fill-opacity:1;stroke:#00ff00;stroke-width:0.4;stroke-linecap:square;stroke-linejoin:miter;stroke-miterlimit:4;stroke-dasharray:none;stroke-dashoffset:0;stroke-opacity:1;paint-order:stroke fill markers;stop-color:#000000"
         id="circle5833"
         cx="968.27527"
         cy="180.23779"
         r="2.4926522" /><circle
         style="font-variation-settings:normal;fill:none;fill-opacity:1;stroke:#00ff00;stroke-width:0.4;stroke-linecap:square;stroke-linejoin:miter;stroke-miterlimit:4;stroke-dasharray:none;stroke-dashoffset:0;stroke-opacity:1;paint-order:stroke fill markers;stop-color:#000000"
         id="circle5834"
         cx="1249.7415"
         cy="14.133603"
         r="2.4926522" /><circle
         style="font-variation-settings:normal;fill:none;fill-opacity:1;stroke:#00ff00;stroke-width:0.4;stroke-linecap:square;stroke-linejoin:miter;stroke-miterlimit:4;stroke-dasharray:none;stroke-dashoffset:0;stroke-opacity:1;paint-order:stroke fill markers;stop-color:#000000"
         id="circle5835"
         cx="1249.7415"
         cy="180.23779"
         r="2.4926522" /></g><g
       id="g5968"
       transform="translate(0.59275049,-205.93461)"
       style="font-variation-settings:normal;vector-effect:none;fill:none;fill-opacity:1;stroke:#00ff00;stroke-width:0.4;stroke-linecap:square;stroke-linejoin:miter;stroke-miterlimit:4;stroke-dasharray:none;stroke-dashoffset:0;stroke-opacity:1;-inkscape-stroke:none;paint-order:stroke fill markers;stop-color:#000000"><circle
         style="font-variation-settings:normal;opacity:1;vector-effect:none;fill:none;fill-opacity:1;stroke:#00ff00;stroke-width:0.4;stroke-linecap:square;stroke-linejoin:miter;stroke-miterlimit:4;stroke-dasharray:none;stroke-dashoffset:0;stroke-opacity:1;-inkscape-stroke:none;paint-order:stroke fill markers;stop-color:#000000;stop-opacity:1"
         id="circle5959"
         cx="233.25826"
         cy="236.42189"
         r="3.5" /><circle
         style="font-variation-settings:normal;opacity:1;vector-effect:none;fill:none;fill-opacity:1;stroke:#00ff00;stroke-width:0.4;stroke-linecap:square;stroke-linejoin:miter;stroke-miterlimit:4;stroke-dasharray:none;stroke-dashoffset:0;stroke-opacity:1;-inkscape-stroke:none;paint-order:stroke fill markers;stop-color:#000000;stop-opacity:1"
         id="circle5960"
         cx="206.08235"
         cy="236.42191"
         r="3.5" /><circle
         style="font-variation-settings:normal;opacity:1;vector-effect:none;fill:none;fill-opacity:1;stroke:#00ff00;stroke-width:0.4;stroke-linecap:square;stroke-linejoin:miter;stroke-miterlimit:4;stroke-dasharray:none;stroke-dashoffset:0;stroke-opacity:1;-inkscape-stroke:none;paint-order:stroke fill markers;stop-color:#000000;stop-opacity:1"
         id="circle5961"
         cx="219.6703"
         cy="236.42191"
         r="3.5" /><circle
         style="font-variation-settings:normal;opacity:1;vector-effect:none;fill:none;fill-opacity:1;stroke:#00ff00;stroke-width:0.4;stroke-linecap:square;stroke-linejoin:miter;stroke-miterlimit:4;stroke-dasharray:none;stroke-dashoffset:0;stroke-opacity:1;-inkscape-stroke:none;paint-order:stroke fill markers;stop-color:#000000;stop-opacity:1"
         id="circle5962"
         cx="-280.66278"
         cy="236.42191"
         r="3.5"
         transform="scale(-1,1)" /><circle
         style="font-variation-settings:normal;opacity:1;vector-effect:none;fill:none;fill-opacity:1;stroke:#00ff00;stroke-width:0.4;stroke-linecap:square;stroke-linejoin:miter;stroke-miterlimit:4;stroke-dasharray:none;stroke-dashoffset:0;stroke-opacity:1;-inkscape-stroke:none;paint-order:stroke fill markers;stop-color:#000000;stop-opacity:1"
         id="circle5963"
         cx="-267.07483"
         cy="236.42191"
         r="3.5"
         transform="scale(-1,1)" /><circle
         style="font-variation-settings:normal;opacity:1;vector-effect:none;fill:none;fill-opacity:1;stroke:#00ff00;stroke-width:0.4;stroke-linecap:square;stroke-linejoin:miter;stroke-miterlimit:4;stroke-dasharray:none;stroke-dashoffset:0;stroke-opacity:1;-inkscape-stroke:none;paint-order:stroke fill markers;stop-color:#000000;stop-opacity:1"
         id="circle5964"
         cx="-253.48689"
         cy="236.42189"
         r="3.5"
         transform="scale(-1,1)" /><circle
         style="font-variation-settings:normal;vector-effect:none;fill:none;fill-opacity:1;stroke:#00ff00;stroke-width:0.4;stroke-linecap:square;stroke-linejoin:miter;stroke-miterlimit:4;stroke-dasharray:none;stroke-dashoffset:0;stroke-opacity:1;-inkscape-stroke:none;paint-order:stroke fill markers;stop-color:#000000;stop-opacity:1"
         id="circle5965"
         cx="162.88229"
         cy="235.96829"
         r="3.5" /><circle
         style="font-variation-settings:normal;opacity:1;vector-effect:none;fill:none;fill-opacity:1;stroke:#00ff00;stroke-width:0.4;stroke-linecap:square;stroke-linejoin:miter;stroke-miterlimit:4;stroke-dasharray:none;stroke-dashoffset:0;stroke-opacity:1;-inkscape-stroke:none;paint-order:stroke fill markers;stop-color:#000000;stop-opacity:1"
         id="circle5966"
         cx="-185.85371"
         cy="235.97243"
         r="3.5"
         transform="scale(-1,1)" /><circle
         style="font-variation-settings:normal;opacity:1;vector-effect:none;fill:none;fill-opacity:1;stroke:#00ff00;stroke-width:0.4;stroke-linecap:square;stroke-linejoin:miter;stroke-miterlimit:4;stroke-dasharray:none;stroke-dashoffset:0;stroke-opacity:1;-inkscape-stroke:none;paint-order:stroke fill markers;stop-color:#000000;stop-opacity:1"
         id="circle5967"
         cx="174.36801"
         cy="235.97037"
         r="3.5" /><circle
         style="font-variation-settings:normal;opacity:1;vector-effect:none;fill:none;fill-opacity:1;stroke:#00ff00;stroke-width:0.4;stroke-linecap:square;stroke-linejoin:miter;stroke-miterlimit:4;stroke-dasharray:none;stroke-dashoffset:0;stroke-opacity:1;-inkscape-stroke:none;paint-order:stroke fill markers;stop-color:#000000;stop-opacity:1"
         id="circle5968"
         cx="224.48465"
         cy="174.36903"
         r="3.5"
         transform="matrix(0,1,1,0,0,0)" /></g><g
       id="g1619"
       transform="translate(-318.80829,4.3272958e-5)"
       style="stroke:#00ff00;stroke-width:0.4;stroke-dasharray:none;stroke-opacity:1"><path
         id="path1616"
         style="font-variation-settings:normal;fill:none;fill-opacity:1;stroke:#00ff00;stroke-width:0.4;stroke-linecap:square;stroke-linejoin:miter;stroke-miterlimit:4;stroke-dasharray:none;stroke-dashoffset:0;stroke-opacity:1;paint-order:stroke fill markers;stop-color:#000000"
         d="m 355.12843,106.52934 a 1.7,1.7 0 0 0 -1.62987,1.21646 28.299999,28.299999 0 0 0 -26.67021,28.18381 28.299999,28.299999 0 0 0 26.67021,28.18329 1.7,1.7 0 0 0 1.62987,1.21647 1.7,1.7 0 0 0 1.62936,-1.21647 28.299999,28.299999 0 0 0 26.67072,-28.18329 28.299999,28.299999 0 0 0 -26.69191,-28.24995 1.7,1.7 0 0 0 -1.60817,-1.15032 z" /><path
         id="path1617"
         style="font-variation-settings:normal;fill:none;fill-opacity:1;stroke:#00ff00;stroke-width:0.4;stroke-linecap:square;stroke-linejoin:miter;stroke-miterlimit:4;stroke-dasharray:none;stroke-dashoffset:0;stroke-opacity:1;paint-order:stroke fill markers;stop-color:#000000"
         d="m 433.52367,106.52934 a 1.7,1.7 0 0 0 -1.62987,1.21646 28.299999,28.299999 0 0 0 -26.67021,28.18381 28.299999,28.299999 0 0 0 26.67021,28.18329 1.7,1.7 0 0 0 1.62987,1.21647 1.7,1.7 0 0 0 1.62936,-1.21647 28.299999,28.299999 0 0 0 26.67072,-28.18329 28.299999,28.299999 0 0 0 -26.69191,-28.24995 1.7,1.7 0 0 0 -1.60817,-1.15032 z" /><path
         id="path1618"
         style="font-variation-settings:normal;fill:none;fill-opacity:1;stroke:#00ff00;stroke-width:0.4;stroke-linecap:square;stroke-linejoin:miter;stroke-miterlimit:4;stroke-dasharray:none;stroke-dashoffset:0;stroke-opacity:1;paint-order:stroke fill markers;stop-color:#000000"
         d="m 511.91891,106.52934 a 1.7,1.7 0 0 0 -1.62987,1.21646 28.299999,28.299999 0 0 0 -26.6702,28.18381 28.299999,28.299999 0 0 0 26.6702,28.18329 1.7,1.7 0 0 0 1.62987,1.21647 1.7,1.7 0 0 0 1.62936,-1.21647 28.299999,28.299999 0 0 0 26.67072,-28.18329 28.299999,28.299999 0 0 0 -26.69191,-28.24995 1.7,1.7 0 0 0 -1.60817,-1.15032 z" /><path
         id="path1619"
         style="font-variation-settings:normal;fill:none;fill-opacity:1;stroke:#00ff00;stroke-width:0.4;stroke-linecap:square;stroke-linejoin:miter;stroke-miterlimit:4;stroke-dasharray:none;stroke-dashoffset:0;stroke-opacity:1;paint-order:stroke fill markers;stop-color:#000000"
         d="m 590.31413,106.52934 a 1.7,1.7 0 0 0 -1.62987,1.21646 28.299999,28.299999 0 0 0 -26.6702,28.18381 28.299999,28.299999 0 0 0 26.6702,28.18329 1.7,1.7 0 0 0 1.62987,1.21647 1.7,1.7 0 0 0 1.62936,-1.21647 28.299999,28.299999 0 0 0 26.67072,-28.18329 28.299999,28.299999 0 0 0 -26.69191,-28.24995 1.7,1.7 0 0 0 -1.60817,-1.15032 z" /></g></g><rect
     style="font-variation-settings:normal;vector-effect:none;fill:#000000;fill-opacity:1;stroke:#ff8000;stroke-width:0.413409;stroke-linecap:square;stroke-linejoin:miter;stroke-miterlimit:4;stroke-dasharray:none;stroke-dashoffset:0;stroke-opacity:1;-inkscape-stroke:none;paint-order:stroke fill markers"
     id="rect28"
     width="102.9784"
     height="179.69537"
     x="-103.18511"
     y="0.20670909"
     ry="0.11799921" /><text
     xml:space="preserve"
     style="font-size:10.5833px;line-height:1.25;font-family:'Open Sans';-inkscape-font-specification:'Open Sans';text-align:start;text-anchor:start;stroke-width:0.264583"
     x="-96.696678"
     y="13.332494"
     id="text15"><tspan
       sodipodi:role="line"
       style="font-style:normal;font-variant:normal;font-weight:600;font-stretch:normal;font-family:'Open Sans';-inkscape-font-specification:'Open Sans Semi-Bold';text-align:start;text-anchor:start;fill:#f9f9f9;stroke-width:0.264583"
       x="-96.696678"
       y="13.332494"
       id="tspan54">Panel / Layer</tspan><tspan
       sodipodi:role="line"
       style="font-style:normal;font-variant:normal;font-weight:600;font-stretch:normal;font-family:'Open Sans';-inkscape-font-specification:'Open Sans Semi-Bold';text-align:start;text-anchor:start;fill:#f9f9f9;stroke-width:0.264583"
       x="-96.696678"
       y="26.561619"
       id="tspan55">Color Guide</tspan><tspan
       sodipodi:role="line"
       style="font-style:normal;font-variant:normal;font-weight:600;font-stretch:normal;font-family:'Open Sans';-inkscape-font-specification:'Open Sans Semi-Bold';text-align:start;text-anchor:start;fill:#00ff00;stroke-width:0.264583"
       x="-96.696678"
       y="39.790741"
       id="tspan14">All</tspan><tspan
       sodipodi:role="line"
       style="font-style:normal;font-variant:normal;font-weight:600;font-stretch:normal;font-family:'Open Sans';-inkscape-font-specification:'Open Sans Semi-Bold';text-align:start;text-anchor:start;fill:#ff6600;stroke-width:0.264583"
       x="-96.696678"
       y="53.019867"
       id="tspan15">Center + Bottom</tspan><tspan
       sodipodi:role="line"
       style="font-style:normal;font-variant:normal;font-weight:600;font-stretch:normal;font-family:'Open Sans';-inkscape-font-specification:'Open Sans Semi-Bold';text-align:start;text-anchor:start;fill:#ff0000;stroke-width:0.264583"
       x="-96.696678"
       y="66.248993"
       id="tspan24">Top Only</tspan><tspan
       sodipodi:role="line"
       style="font-style:normal;font-variant:normal;font-weight:600;font-stretch:normal;font-family:'Open Sans';-inkscape-font-specification:'Open Sans Semi-Bold';text-align:start;text-anchor:start;fill:#00ffff;stroke-width:0.264583"
       x="-96.696678"
       y="79.478119"
       id="tspan26">Center Only</tspan><tspan
       sodipodi:role="line"
       style="font-style:normal;font-variant:normal;font-weight:600;font-stretch:normal;font-family:'Open Sans';-inkscape-font-specification:'Open Sans Semi-Bold';text-align:start;text-anchor:start;fill:#ff00ff;stroke-width:0.264583"
       x="-96.696678"
       y="92.707245"
       id="tspan28">Bottom Only</tspan></text><text
     xml:space="preserve"
     style="font-size:8.46667px;line-height:1.25;font-family:'Open Sans';-inkscape-font-specification:'Open Sans';text-align:start;text-anchor:start;white-space:pre;inline-size:97.3298;display:inline;fill:#ffffff;stroke-width:0.264583"
     x="-178.12254"
     y="110.54556"
     id="text35"
     transform="translate(80.53006)"><tspan
       x="-178.12254"
       y="110.54556"
       id="tspan2"><tspan
         style="font-weight:600;-inkscape-font-specification:'Open Sans Semi-Bold'"
         id="tspan1">Lines are thicker for </tspan></tspan><tspan
       x="-178.12254"
       y="121.1289"
       id="tspan4"><tspan
         style="font-weight:600;-inkscape-font-specification:'Open Sans Semi-Bold'"
         id="tspan3">visibility.
</tspan></tspan><tspan
       x="-178.12254"
       y="131.71224"
       id="tspan6"><tspan
         style="font-weight:600;-inkscape-font-specification:'Open Sans Semi-Bold'"
         id="tspan5">
</tspan></tspan><tspan
       x="-178.12254"
       y="142.29557"
       id="tspan10"><tspan
         style="font-weight:600;-inkscape-font-specification:'Open Sans Semi-Bold'"
         id="tspan7">Set line width to </tspan><tspan
         style="font-weight:bold"
         id="tspan8">0.1pt</tspan><tspan
         style="font-weight:600;-inkscape-font-specification:'Open Sans Semi-Bold'"
         id="tspan9">
</tspan></tspan><tspan
       x="-178.12254"
       y="152.87892"
       id="tspan12"><tspan
         style="font-weight:600;-inkscape-font-specification:'Open Sans Semi-Bold'"
         id="tspan11">or whatever your laser </tspan></tspan><tspan
       x="-178.12254"
       y="163.46226"
       id="tspan16"><tspan
         style="font-weight:600;-inkscape-font-specification:'Open Sans Semi-Bold'"
         id="tspan13">cutter design guide </tspan></tspan><tspan
       x="-178.12254"
       y="174.0456"
       id="tspan18"><tspan
         style="font-weight:600;-inkscape-font-specification:'Open Sans Semi-Bold'"
         id="tspan17">recommends</tspan></tspan></text></svg>
