<?xml version="1.0" encoding="UTF-8" standalone="no"?>
<!-- Created with Inkscape (http://www.inkscape.org/) -->

<svg
   width="14in"
   height="8.5in"
   viewBox="0 0 355.6 215.9"
   version="1.1"
   id="svg1"
   xml:space="preserve"
   inkscape:version="1.3.2 (091e20e, 2023-11-25, custom)"
   sodipodi:docname="Miku_Panel_PRINT.svg"
   xmlns:inkscape="http://www.inkscape.org/namespaces/inkscape"
   xmlns:sodipodi="http://sodipodi.sourceforge.net/DTD/sodipodi-0.dtd"
   xmlns="http://www.w3.org/2000/svg"
   xmlns:svg="http://www.w3.org/2000/svg"
   xmlns:rdf="http://www.w3.org/1999/02/22-rdf-syntax-ns#"
   xmlns:cc="http://creativecommons.org/ns#"
   xmlns:dc="http://purl.org/dc/elements/1.1/"><title
     id="title3192">SVG Image created as MPR121-Breakout-F_Cu.svg date 2024/11/12 20:38:25 </title><sodipodi:namedview
     id="namedview1"
     pagecolor="#ffffff"
     bordercolor="#666666"
     borderopacity="1.0"
     inkscape:showpageshadow="2"
     inkscape:pageopacity="0.0"
     inkscape:pagecheckerboard="0"
     inkscape:deskcolor="#d1d1d1"
     inkscape:document-units="mm"
     inkscape:zoom="1.0507525"
     inkscape:cx="936.47172"
     inkscape:cy="292.64741"
     inkscape:window-width="5104"
     inkscape:window-height="1401"
     inkscape:window-x="0"
     inkscape:window-y="0"
     inkscape:window-maximized="0"
     inkscape:current-layer="layer1"
     showgrid="false"><inkscape:page
       x="0"
       y="0"
       width="355.60001"
       height="215.89999"
       id="page1"
       margin="0"
       bleed="0" /></sodipodi:namedview><defs
     id="defs1"><clipPath
       clipPathUnits="userSpaceOnUse"
       id="clipPath1610"><rect
         style="fill:#00ffff;stroke-width:0.940729;paint-order:stroke fill markers"
         id="rect1611"
         width="308"
         height="194"
         x="1.2874603e-06"
         y="0.44448191" /></clipPath><clipPath
       clipPathUnits="userSpaceOnUse"
       id="clipPath1610-1"><rect
         style="fill:#00ffff;stroke-width:0.940729;paint-order:stroke fill markers"
         id="rect1611-7"
         width="308"
         height="194"
         x="1.2874603e-06"
         y="0.44448191" /></clipPath><filter
       inkscape:collect="always"
       style="color-interpolation-filters:sRGB"
       id="filter11"
       x="-0.0019589529"
       y="-0.0064024641"
       width="1.0039179"
       height="1.0128049"><feGaussianBlur
         inkscape:collect="always"
         stdDeviation="0.1123529"
         id="feGaussianBlur11" /></filter></defs><g
     inkscape:label="Layer 1"
     inkscape:groupmode="layer"
     id="layer1"
     transform="translate(-317.96253)"><g
       id="g19"><rect
         style="opacity:1;fill:#666666;fill-opacity:1;stroke:none;stroke-width:0.558816;stroke-linecap:square;-inkscape-stroke:none;paint-order:stroke fill markers"
         id="rect11"
         width="308"
         height="194"
         x="341.76254"
         y="10.949997" /><text
         xml:space="preserve"
         style="font-weight:bold;font-size:18.6443px;line-height:1.25;font-family:'Open Sans';-inkscape-font-specification:'Open Sans Bold';text-align:center;letter-spacing:0px;word-spacing:0px;text-anchor:middle;fill:#ffffff;stroke-width:0.582634"
         x="497.60703"
         y="128.27505"
         id="text16"
         transform="scale(0.99629329,1.0037205)"><tspan
           sodipodi:role="line"
           id="tspan16"
           style="text-align:center;text-anchor:middle;fill:#ffffff;stroke-width:0.582634"
           x="497.60703"
           y="128.27505">REPLACE THIS GRAY</tspan><tspan
           sodipodi:role="line"
           style="text-align:center;text-anchor:middle;fill:#ffffff;stroke-width:0.582634"
           x="497.60703"
           y="151.58043"
           id="tspan17">SQUARE WITH YOUR ART</tspan><tspan
           sodipodi:role="line"
           style="text-align:center;text-anchor:middle;fill:#ffffff;stroke-width:0.582634"
           x="497.60703"
           y="174.8858"
           id="tspan18">AND USE IT TO CROP/MASK</tspan><tspan
           sodipodi:role="line"
           style="text-align:center;text-anchor:middle;fill:#ffffff;stroke-width:0.582634"
           x="497.60703"
           y="198.19118"
           id="tspan19">THE ART</tspan></text></g><g
       id="g16"><g
         id="g4208"
         transform="matrix(0.999996,0,0,1.0074509,342.1127,-399.65346)"><path
           id="path4206"
           style="font-variation-settings:normal;vector-effect:none;fill:#f9f9f9;fill-opacity:1;stroke:#f9f9f9;stroke-width:0.212915;stroke-linecap:butt;stroke-linejoin:miter;stroke-miterlimit:4;stroke-dasharray:none;stroke-dashoffset:0;stroke-opacity:1;-inkscape-stroke:none;paint-order:stroke fill markers"
           d="m 55.514763,471.19033 v 25.00002 h 1.228552 4.914213 1.228553 4.913705 1.228553 4.914212 1.228553 4.913705 1.228553 4.914212 1.228553 4.913705 1.228553 4.914213 1.228553 4.913709 1.22855 4.91421 1.22856 4.9137 1.22855 4.91422 1.22855 4.9137 1.22856 4.91421 1.22855 4.9137 1.22856 4.91421 1.22855 4.91371 1.22855 4.91421 1.22855 4.91371 1.22855 4.91421 1.22856 4.9137 1.22855 4.91422 1.22855 4.9137 1.22856 4.91421 1.22804 4.91422 1.22855 4.91421 1.22855 4.91371 1.22855 4.91422 1.22804 4.91422 1.22855 4.91421 1.22805 4.91421 1.22856 4.91421 1.22804 4.91421 1.22856 v -25.00002 h -1.22856 -4.91421 -1.22804 -4.91421 -1.22856 -4.91421 -1.22805 -4.91421 -1.22855 -4.91422 -1.22804 -4.91422 -1.22855 -4.91371 -1.22855 -4.91421 -1.22855 -4.91422 -1.22804 -4.91421 -1.22856 -4.9137 -1.22855 -4.91422 -1.22855 -4.9137 -1.22856 -4.91421 -1.22855 -4.91371 -1.22855 -4.91421 -1.22855 -4.91371 -1.22855 -4.91421 -1.22856 -4.9137 -1.22855 -4.91421 -1.22856 -4.9137 -1.22855 -4.91422 -1.22855 -4.9137 -1.22856 -4.91421 -1.22855 -4.913709 -1.228553 -4.914213 -1.228553 -4.913705 -1.228553 -4.914212 -1.228553 -4.913705 -1.228553 -4.914212 -1.228553 -4.913705 -1.228553 -4.914213 z" /><path
           id="path4207"
           style="vector-effect:none;fill:#999999;fill-opacity:1;stroke-width:2.63079;paint-order:stroke fill markers"
           inkscape:transform-center-x="2.3001554"
           inkscape:transform-center-y="1.4126373"
           d="m 72.178862,472.49709 c -0.497535,-0.0213 -0.810287,0.29197 -0.810287,0.29197 l -13.483414,9.36428 c 0,0 -0.891152,0.58096 -0.889352,1.49294 0.0018,0.91143 0.894003,1.6185 0.894003,1.6185 l 13.51132,9.30641 c 0,0 0.664726,0.38064 1.471228,-0.0439 0.91782,-0.48316 0.775663,-1.51671 0.775663,-1.51671 l -0.02791,-18.67018 c 0,0 0.0327,-1.20617 -0.886768,-1.6862 -0.202111,-0.10551 -0.388643,-0.14999 -0.554488,-0.15709 z m -7.205245,6.01823 h 2.198832 v 8.55504 h 4.206462 v 1.81591 h -6.405294 z" /><text
           xml:space="preserve"
           style="font-weight:bold;font-size:18.5753px;line-height:1.25;font-family:'Open Sans';-inkscape-font-specification:'Open Sans Bold';letter-spacing:0px;word-spacing:0px;fill:#999999;stroke-width:0.580477"
           x="87.350395"
           y="490.25583"
           id="text4207"><tspan
             sodipodi:role="line"
             id="tspan4207"
             style="fill:#999999;stroke-width:0.580477"
             x="87.350395"
             y="490.25583">TOUCH SLIDER</tspan></text><path
           id="path4208"
           style="vector-effect:none;fill:#999999;fill-opacity:1;stroke-width:2.63079;paint-order:stroke fill markers"
           inkscape:transform-center-x="-2.3001526"
           inkscape:transform-center-y="1.4126373"
           d="m 236.63958,472.49711 c -0.16585,0.007 -0.35238,0.0516 -0.55449,0.15709 -0.91947,0.48003 -0.88677,1.6862 -0.88677,1.6862 l -0.0279,18.67018 c 0,0 -0.14216,1.03355 0.77566,1.51671 0.8065,0.42456 1.47123,0.0439 1.47123,0.0439 l 13.5108,-9.30641 c 0,0 0.89276,-0.70707 0.89452,-1.6185 0.002,-0.91198 -0.88987,-1.49294 -0.88987,-1.49294 l -13.4829,-9.36428 c 0,0 -0.31275,-0.31328 -0.81028,-0.29197 z m -0.39429,6.01823 h 3.02203 c 1.40925,0 2.45173,0.25814 3.12798,0.7736 0.67625,0.51073 1.01441,1.2886 1.01441,2.33371 0,0.61004 -0.16757,1.1538 -0.50333,1.63142 -0.33576,0.4729 -0.81099,0.84408 -1.42575,1.11363 1.56056,2.3314 2.57704,3.83761 3.04994,4.51859 h -2.44016 l -2.47582,-3.97961 h -1.17047 v 3.97961 h -2.19883 z m 2.19883,1.80196 v 2.8019 h 0.70952 c 0.69516,0 1.2084,-0.11555 1.53944,-0.34727 0.33102,-0.23172 0.49661,-0.59589 0.49661,-1.09244 0,-0.49181 -0.1706,-0.84198 -0.51108,-1.05006 -0.33576,-0.20808 -0.858,-0.31213 -1.56735,-0.31213 z" /></g><path
         id="path5969"
         style="font-variation-settings:normal;vector-effect:none;fill:#f9f9f9;fill-opacity:1;stroke:#f9f9f9;stroke-width:0.213706;stroke-linecap:butt;stroke-linejoin:miter;stroke-miterlimit:4;stroke-dasharray:none;stroke-dashoffset:0;stroke-opacity:1;-inkscape-stroke:none;paint-order:stroke fill markers"
         d="m 397.62724,75.047659 v 25.186291 h 1.22855 4.91419 1.22855 4.91369 1.22855 4.91419 1.22855 4.91368 1.22855 4.91419 1.22855 4.91368 1.22855 4.9142 1.22854 4.91369 1.22855 4.91419 1.22855 4.91369 1.22854 4.9142 1.22855 4.91368 1.22855 4.91419 1.22855 4.91368 1.22855 4.91419 1.22855 4.91369 1.22854 4.91419 1.22855 4.91369 1.22854 4.91419 1.22856 4.91368 1.22854 4.9142 1.22855 4.91368 1.22856 4.91419 1.22803 4.9142 1.22855 4.91419 1.22854 4.91369 1.22855 4.9142 1.22803 4.9142 1.22855 4.91419 1.22804 4.91419 1.22856 4.91419 1.22803 4.91419 1.22856 V 75.047659 h -1.22856 -4.91419 -1.22803 -4.91419 -1.22856 -4.91419 -1.22804 -4.91419 -1.22855 -4.9142 -1.22803 -4.9142 -1.22855 -4.91369 -1.22854 -4.91419 -1.22855 -4.9142 -1.22803 -4.91419 -1.22856 -4.91368 -1.22855 -4.9142 -1.22854 -4.91368 -1.22856 -4.91419 -1.22854 -4.91369 -1.22855 -4.91419 -1.22854 -4.91369 -1.22855 -4.91419 -1.22855 -4.91368 -1.22855 -4.91419 -1.22855 -4.91368 -1.22855 -4.9142 -1.22854 -4.91369 -1.22855 -4.91419 -1.22855 -4.91369 -1.22854 -4.9142 -1.22855 -4.91368 -1.22855 -4.91419 -1.22855 -4.91368 -1.22855 -4.91419 -1.22855 -4.91369 -1.22855 -4.91419 z" /><path
         id="path5970"
         style="vector-effect:none;fill:#999999;fill-opacity:1;stroke-width:2.64057;paint-order:stroke fill markers"
         inkscape:transform-center-x="2.3001554"
         inkscape:transform-center-y="1.4126373"
         d="m 414.29128,76.364156 c -0.49754,-0.02146 -0.81029,0.294145 -0.81029,0.294145 l -13.48336,9.434052 c 0,0 -0.89115,0.585289 -0.88935,1.504064 0.002,0.918221 0.894,1.630559 0.894,1.630559 l 13.51127,9.375751 c 0,0 0.66472,0.383477 1.47122,-0.04423 0.91782,-0.48676 0.77566,-1.52801 0.77566,-1.52801 l -0.0279,-18.80929 c 0,0 0.0327,-1.215157 -0.88676,-1.698764 -0.20211,-0.106296 -0.38865,-0.151107 -0.55449,-0.15826 z m -7.20522,6.063071 h 2.19882 v 8.618783 h 4.20645 v 1.82944 h -6.40527 z" /><text
         xml:space="preserve"
         style="font-weight:bold;font-size:18.6443px;line-height:1.25;font-family:'Open Sans';-inkscape-font-specification:'Open Sans Bold';letter-spacing:0px;word-spacing:0px;fill:#999999;stroke-width:0.582634"
         x="431.06058"
         y="93.90583"
         id="text5970"
         transform="scale(0.99629327,1.0037205)"><tspan
           sodipodi:role="line"
           id="tspan5970"
           style="fill:#999999;stroke-width:0.582634"
           x="431.06058"
           y="93.90583">TOUCH SLIDER</tspan></text><path
         id="path5971"
         style="vector-effect:none;fill:#999999;fill-opacity:1;stroke-width:2.64057;paint-order:stroke fill markers"
         inkscape:transform-center-x="-2.3001526"
         inkscape:transform-center-y="1.4126373"
         d="m 578.75134,76.364176 c -0.16585,0.0071 -0.35238,0.05198 -0.55449,0.15826 -0.91947,0.483607 -0.88677,1.698764 -0.88677,1.698764 l -0.0279,18.80929 c 0,0 -0.14216,1.04125 0.77566,1.52801 0.8065,0.427724 1.47122,0.04423 1.47122,0.04423 l 13.51075,-9.375751 c 0,0 0.89276,-0.712338 0.89452,-1.630559 0.002,-0.918775 -0.88987,-1.504064 -0.88987,-1.504064 l -13.48285,-9.434052 c 0,0 -0.31275,-0.315614 -0.81027,-0.294145 z m -0.39429,6.063071 h 3.02202 c 1.40924,0 2.45172,0.260063 3.12796,0.779364 0.67625,0.514535 1.01441,1.298201 1.01441,2.351098 0,0.614586 -0.16757,1.162397 -0.50333,1.643576 -0.33576,0.476423 -0.81099,0.850369 -1.42574,1.121927 1.56055,2.348771 2.57703,3.866204 3.04992,4.552258 h -2.44015 l -2.47581,-4.009262 h -1.17046 v 4.009262 h -2.19882 z m 2.19882,1.815386 v 2.822777 h 0.70952 c 0.69515,0 1.20839,-0.116411 1.53943,-0.349858 0.33102,-0.233446 0.49661,-0.60033 0.49661,-1.100579 0,-0.495475 -0.1706,-0.848254 -0.51108,-1.057884 -0.33576,-0.209631 -0.858,-0.314456 -1.56734,-0.314456 z" /></g><g
       id="g11"
       style="mix-blend-mode:normal;fill:#10b4b4;fill-opacity:1;filter:url(#filter11);opacity:0.5"
       transform="translate(0.1491949,0.17423348)"><text
         xml:space="preserve"
         style="font-weight:bold;font-size:8.46667px;line-height:1.25;font-family:'Open Sans';-inkscape-font-specification:'Open Sans Bold';text-align:center;letter-spacing:0px;word-spacing:0px;text-anchor:middle;fill:#10b4b4;fill-opacity:1;stroke-width:0.264583"
         x="575.49036"
         y="55.929188"
         id="text1"><tspan
           sodipodi:role="line"
           id="tspan1"
           style="text-align:center;text-anchor:middle;fill:#10b4b4;fill-opacity:1;stroke-width:0.264583"
           x="575.49036"
           y="55.929188">L1</tspan></text><text
         xml:space="preserve"
         style="font-weight:bold;font-size:8.46667px;line-height:1.25;font-family:'Open Sans';-inkscape-font-specification:'Open Sans Bold';text-align:center;letter-spacing:0px;word-spacing:0px;text-anchor:middle;fill:#10b4b4;fill-opacity:1;stroke-width:0.264583"
         x="548.81885"
         y="55.927128"
         id="text2"><tspan
           sodipodi:role="line"
           id="tspan2"
           style="text-align:center;text-anchor:middle;fill:#10b4b4;fill-opacity:1;stroke-width:0.264583"
           x="548.81885"
           y="55.927128">L3</tspan></text><text
         xml:space="preserve"
         style="font-weight:bold;font-size:8.46667px;line-height:1.25;font-family:'Open Sans';-inkscape-font-specification:'Open Sans Bold';text-align:center;letter-spacing:0px;word-spacing:0px;text-anchor:middle;fill:#10b4b4;fill-opacity:1;stroke-width:0.264583"
         x="561.87347"
         y="55.970531"
         id="text3"><tspan
           sodipodi:role="line"
           id="tspan3"
           style="text-align:center;text-anchor:middle;fill:#10b4b4;fill-opacity:1;stroke-width:0.264583"
           x="561.87347"
           y="55.970531">L2</tspan></text><text
         xml:space="preserve"
         style="font-weight:bold;font-size:8.46667px;line-height:1.25;font-family:'Open Sans';-inkscape-font-specification:'Open Sans Bold';text-align:center;letter-spacing:0px;word-spacing:0px;text-anchor:middle;fill:#10b4b4;fill-opacity:1;stroke-width:0.264583"
         x="622.8949"
         y="55.929192"
         id="text4"><tspan
           sodipodi:role="line"
           id="tspan4"
           style="text-align:center;text-anchor:middle;fill:#10b4b4;fill-opacity:1;stroke-width:0.264583"
           x="622.8949"
           y="55.929192">R3</tspan></text><text
         xml:space="preserve"
         style="font-weight:bold;font-size:8.46667px;line-height:1.25;font-family:'Open Sans';-inkscape-font-specification:'Open Sans Bold';text-align:center;letter-spacing:0px;word-spacing:0px;text-anchor:middle;fill:#10b4b4;fill-opacity:1;stroke-width:0.264583"
         x="596.22339"
         y="55.927128"
         id="text5"><tspan
           sodipodi:role="line"
           id="tspan5"
           style="text-align:center;text-anchor:middle;fill:#10b4b4;fill-opacity:1;stroke-width:0.264583"
           x="596.22339"
           y="55.927128">R1</tspan></text><text
         xml:space="preserve"
         style="font-weight:bold;font-size:8.46667px;line-height:1.25;font-family:'Open Sans';-inkscape-font-specification:'Open Sans Bold';text-align:center;letter-spacing:0px;word-spacing:0px;text-anchor:middle;fill:#10b4b4;fill-opacity:1;stroke-width:0.264583"
         x="609.27802"
         y="55.970535"
         id="text6"><tspan
           sodipodi:role="line"
           id="tspan6"
           style="text-align:center;text-anchor:middle;fill:#10b4b4;fill-opacity:1;stroke-width:0.264583"
           x="609.27802"
           y="55.970535">R2</tspan></text><text
         xml:space="preserve"
         style="font-weight:bold;font-size:8.46667px;line-height:1.25;font-family:'Open Sans';-inkscape-font-specification:'Open Sans Bold';text-align:center;letter-spacing:0px;word-spacing:0px;text-anchor:middle;fill:#10b4b4;fill-opacity:1;stroke-width:0.264583"
         x="537.26459"
         y="20.136484"
         id="text7"><tspan
           sodipodi:role="line"
           id="tspan7"
           style="text-align:center;text-anchor:middle;fill:#10b4b4;fill-opacity:1;stroke-width:0.264583"
           x="537.26459"
           y="20.136484">HOME</tspan></text><text
         xml:space="preserve"
         style="font-weight:bold;font-size:8.46667px;line-height:1.25;font-family:'Open Sans';-inkscape-font-specification:'Open Sans Bold';text-align:center;letter-spacing:0px;word-spacing:0px;text-anchor:middle;fill:#10b4b4;fill-opacity:1;stroke-width:0.264583"
         x="573.6579"
         y="20.136484"
         id="text8"><tspan
           sodipodi:role="line"
           id="tspan8"
           style="text-align:center;text-anchor:middle;fill:#10b4b4;fill-opacity:1;stroke-width:0.264583"
           x="573.6579"
           y="20.136484">SEL</tspan></text><text
         xml:space="preserve"
         style="font-weight:bold;font-size:8.46667px;line-height:1.25;font-family:'Open Sans';-inkscape-font-specification:'Open Sans Bold';text-align:center;letter-spacing:0px;word-spacing:0px;text-anchor:middle;fill:#10b4b4;fill-opacity:1;stroke-width:0.264583"
         x="610.46338"
         y="20.136484"
         id="text9"><tspan
           sodipodi:role="line"
           id="tspan9"
           style="text-align:center;text-anchor:middle;fill:#10b4b4;fill-opacity:1;stroke-width:0.264583"
           x="610.46338"
           y="20.136484">START</tspan></text><text
         xml:space="preserve"
         style="font-weight:bold;font-size:8.46667px;line-height:1.25;font-family:'Open Sans';-inkscape-font-specification:'Open Sans Bold';text-align:center;letter-spacing:0px;word-spacing:0px;text-anchor:middle;fill:#10b4b4;fill-opacity:1;stroke-width:0.264583"
         x="501.12552"
         y="20.136484"
         id="text10"><tspan
           sodipodi:role="line"
           id="tspan10"
           style="text-align:center;text-anchor:middle;fill:#10b4b4;fill-opacity:1;stroke-width:0.264583"
           x="501.12552"
           y="20.136484">TPAD</tspan></text><text
         xml:space="preserve"
         style="font-weight:bold;font-size:8.46667px;line-height:1.25;font-family:'Open Sans';-inkscape-font-specification:'Open Sans Bold';text-align:center;letter-spacing:0px;word-spacing:0px;text-anchor:middle;fill:#10b4b4;fill-opacity:1;stroke-width:0.264583"
         x="516.69934"
         y="56.030762"
         id="text11"><tspan
           sodipodi:role="line"
           id="tspan11"
           style="text-align:center;text-anchor:middle;fill:#10b4b4;fill-opacity:1;stroke-width:0.264583"
           x="516.69934"
           y="56.030762">D-Pad</tspan></text></g><g
       id="g2"
       style="fill:#e8fdfd;fill-opacity:1"><text
         xml:space="preserve"
         style="font-weight:bold;font-size:8.46667px;line-height:1.25;font-family:'Open Sans';-inkscape-font-specification:'Open Sans Bold';text-align:center;letter-spacing:0px;word-spacing:0px;text-anchor:middle;fill:#e8fdfd;fill-opacity:1;stroke-width:0.264583"
         x="575.49036"
         y="55.929188"
         id="text4098"><tspan
           sodipodi:role="line"
           id="tspan4098"
           style="text-align:center;text-anchor:middle;fill:#e8fdfd;fill-opacity:1;stroke-width:0.264583"
           x="575.49036"
           y="55.929188">L1</tspan></text><text
         xml:space="preserve"
         style="font-weight:bold;font-size:8.46667px;line-height:1.25;font-family:'Open Sans';-inkscape-font-specification:'Open Sans Bold';text-align:center;letter-spacing:0px;word-spacing:0px;text-anchor:middle;fill:#e8fdfd;fill-opacity:1;stroke-width:0.264583"
         x="548.81885"
         y="55.927128"
         id="text4100"><tspan
           sodipodi:role="line"
           id="tspan4100"
           style="text-align:center;text-anchor:middle;fill:#e8fdfd;fill-opacity:1;stroke-width:0.264583"
           x="548.81885"
           y="55.927128">L3</tspan></text><text
         xml:space="preserve"
         style="font-weight:bold;font-size:8.46667px;line-height:1.25;font-family:'Open Sans';-inkscape-font-specification:'Open Sans Bold';text-align:center;letter-spacing:0px;word-spacing:0px;text-anchor:middle;fill:#e8fdfd;fill-opacity:1;stroke-width:0.264583"
         x="561.87347"
         y="55.970531"
         id="text4102"><tspan
           sodipodi:role="line"
           id="tspan4102"
           style="text-align:center;text-anchor:middle;fill:#e8fdfd;fill-opacity:1;stroke-width:0.264583"
           x="561.87347"
           y="55.970531">L2</tspan></text><text
         xml:space="preserve"
         style="font-weight:bold;font-size:8.46667px;line-height:1.25;font-family:'Open Sans';-inkscape-font-specification:'Open Sans Bold';text-align:center;letter-spacing:0px;word-spacing:0px;text-anchor:middle;fill:#e8fdfd;fill-opacity:1;stroke-width:0.264583"
         x="622.8949"
         y="55.929192"
         id="text4107"><tspan
           sodipodi:role="line"
           id="tspan4107"
           style="text-align:center;text-anchor:middle;fill:#e8fdfd;fill-opacity:1;stroke-width:0.264583"
           x="622.8949"
           y="55.929192">R3</tspan></text><text
         xml:space="preserve"
         style="font-weight:bold;font-size:8.46667px;line-height:1.25;font-family:'Open Sans';-inkscape-font-specification:'Open Sans Bold';text-align:center;letter-spacing:0px;word-spacing:0px;text-anchor:middle;fill:#e8fdfd;fill-opacity:1;stroke-width:0.264583"
         x="596.22339"
         y="55.927128"
         id="text4111"><tspan
           sodipodi:role="line"
           id="tspan4111"
           style="text-align:center;text-anchor:middle;fill:#e8fdfd;fill-opacity:1;stroke-width:0.264583"
           x="596.22339"
           y="55.927128">R1</tspan></text><text
         xml:space="preserve"
         style="font-weight:bold;font-size:8.46667px;line-height:1.25;font-family:'Open Sans';-inkscape-font-specification:'Open Sans Bold';text-align:center;letter-spacing:0px;word-spacing:0px;text-anchor:middle;fill:#e8fdfd;fill-opacity:1;stroke-width:0.264583"
         x="609.27802"
         y="55.970535"
         id="text4109"><tspan
           sodipodi:role="line"
           id="tspan4109"
           style="text-align:center;text-anchor:middle;fill:#e8fdfd;fill-opacity:1;stroke-width:0.264583"
           x="609.27802"
           y="55.970535">R2</tspan></text><text
         xml:space="preserve"
         style="font-weight:bold;font-size:8.46667px;line-height:1.25;font-family:'Open Sans';-inkscape-font-specification:'Open Sans Bold';text-align:center;letter-spacing:0px;word-spacing:0px;text-anchor:middle;fill:#e8fdfd;stroke-width:0.264583;fill-opacity:1"
         x="537.26459"
         y="20.136484"
         id="text6129"><tspan
           sodipodi:role="line"
           id="tspan6129"
           style="text-align:center;text-anchor:middle;fill:#e8fdfd;stroke-width:0.264583;fill-opacity:1"
           x="537.26459"
           y="20.136484">HOME</tspan></text><text
         xml:space="preserve"
         style="font-weight:bold;font-size:8.46667px;line-height:1.25;font-family:'Open Sans';-inkscape-font-specification:'Open Sans Bold';text-align:center;letter-spacing:0px;word-spacing:0px;text-anchor:middle;fill:#e8fdfd;stroke-width:0.264583;fill-opacity:1"
         x="573.6579"
         y="20.136484"
         id="text6130"><tspan
           sodipodi:role="line"
           id="tspan6130"
           style="text-align:center;text-anchor:middle;fill:#e8fdfd;stroke-width:0.264583;fill-opacity:1"
           x="573.6579"
           y="20.136484">SEL</tspan></text><text
         xml:space="preserve"
         style="font-weight:bold;font-size:8.46667px;line-height:1.25;font-family:'Open Sans';-inkscape-font-specification:'Open Sans Bold';text-align:center;letter-spacing:0px;word-spacing:0px;text-anchor:middle;fill:#e8fdfd;stroke-width:0.264583;fill-opacity:1"
         x="610.46338"
         y="20.136484"
         id="text6131"><tspan
           sodipodi:role="line"
           id="tspan6131"
           style="text-align:center;text-anchor:middle;fill:#e8fdfd;stroke-width:0.264583;fill-opacity:1"
           x="610.46338"
           y="20.136484">START</tspan></text><text
         xml:space="preserve"
         style="font-weight:bold;font-size:8.46667px;line-height:1.25;font-family:'Open Sans';-inkscape-font-specification:'Open Sans Bold';text-align:center;letter-spacing:0px;word-spacing:0px;text-anchor:middle;fill:#e8fdfd;stroke-width:0.264583;fill-opacity:1"
         x="501.12552"
         y="20.136484"
         id="text6132"><tspan
           sodipodi:role="line"
           id="tspan6132"
           style="text-align:center;text-anchor:middle;fill:#e8fdfd;stroke-width:0.264583;fill-opacity:1"
           x="501.12552"
           y="20.136484">TPAD</tspan></text><text
         xml:space="preserve"
         style="font-weight:bold;font-size:8.46667px;line-height:1.25;font-family:'Open Sans';-inkscape-font-specification:'Open Sans Bold';text-align:center;letter-spacing:0px;word-spacing:0px;text-anchor:middle;fill:#e8fdfd;fill-opacity:1;stroke-width:0.264583"
         x="516.69934"
         y="56.030762"
         id="text6152"><tspan
           sodipodi:role="line"
           id="tspan6152"
           style="text-align:center;text-anchor:middle;fill:#e8fdfd;fill-opacity:1;stroke-width:0.264583"
           x="516.69934"
           y="56.030762">D-Pad</tspan></text></g></g><metadata
     id="metadata3192"><rdf:RDF><cc:Work
         rdf:about=""><dc:title>SVG Image created as MPR121-Breakout-F_Cu.svg date 2024/11/12 20:38:25 </dc:title></cc:Work></rdf:RDF></metadata></svg>
